RedHatMono-Medium.ufo
<glyph name="exclam" format="2">
  <advance width="600"/>
  <unicode hex="0021"/>
  <outline>
    <contour>
      <point x="257" y="227" type="line"/>
      <point x="342" y="227" type="line"/>
      <point x="356" y="727" type="line"/>
      <point x="244" y="727" type="line"/>
    </contour>
    <contour>
      <point x="300" y="-9" type="curve" smooth="yes"/>
      <point x="346" y="-9"/>
      <point x="381" y="26"/>
      <point x="381" y="71" type="curve" smooth="yes"/>
      <point x="381" y="116"/>
      <point x="346" y="152"/>
      <point x="300" y="152" type="curve" smooth="yes"/>
      <point x="254" y="152"/>
      <point x="219" y="116"/>
      <point x="219" y="71" type="curve" smooth="yes"/>
      <point x="219" y="26"/>
      <point x="254" y="-9"/>
    </contour>
  </outline>
</glyph>
<glyph name="numbersign" format="2">
  <advance width="600"/>
  <unicode hex="0023"/>
  <outline>
    <contour>
      <point x="22" y="0" type="line"/>
      <point x="118" y="0" type="line"/>
      <point x="188" y="203" type="line"/>
      <point x="312" y="203" type="line"/>
      <point x="242" y="0" type="line"/>
      <point x="338" y="0" type="line"/>
      <point x="408" y="203" type="line"/>
      <point x="547" y="203" type="line"/>
      <point x="547" y="284" type="line"/>
      <point x="435" y="284" type="line"/>
      <point x="481" y="416" type="line"/>
      <point x="595" y="416" type="line"/>
      <point x="595" y="497" type="line"/>
      <point x="509" y="497" type="line"/>
      <point x="578" y="700" type="line"/>
      <point x="482" y="700" type="line"/>
      <point x="413" y="497" type="line"/>
      <point x="289" y="497" type="line"/>
      <point x="358" y="700" type="line"/>
      <point x="262" y="700" type="line"/>
      <point x="192" y="497" type="line"/>
      <point x="53" y="497" type="line"/>
      <point x="53" y="416" type="line"/>
      <point x="165" y="416" type="line"/>
      <point x="119" y="284" type="line"/>
      <point x="5" y="284" type="line"/>
      <point x="5" y="203" type="line"/>
      <point x="92" y="203" type="line"/>
    </contour>
    <contour>
      <point x="216" y="284" type="line"/>
      <point x="261" y="416" type="line"/>
      <point x="385" y="416" type="line"/>
      <point x="339" y="284" type="line"/>
    </contour>
  </outline>
</glyph>
<glyph name="dollar" format="2">
  <advance width="600"/>
  <unicode hex="0024"/>
  <outline>
    <contour>
      <point x="269" y="-67" type="line"/>
      <point x="334" y="-67" type="line"/>
      <point x="334" y="19" type="line"/>
      <point x="461" y="29"/>
      <point x="545" y="104"/>
      <point x="545" y="211" type="curve" smooth="yes"/>
      <point x="545" y="309"/>
      <point x="483" y="362"/>
      <point x="334" y="400" type="curve"/>
      <point x="334" y="585" type="line"/>
      <point x="381" y="576"/>
      <point x="427" y="555"/>
      <point x="470" y="521" type="curve"/>
      <point x="527" y="601" type="line"/>
      <point x="473" y="644"/>
      <point x="405" y="672"/>
      <point x="334" y="680" type="curve"/>
      <point x="334" y="767" type="line"/>
      <point x="269" y="767" type="line"/>
      <point x="269" y="682" type="line"/>
      <point x="142" y="674"/>
      <point x="62" y="602"/>
      <point x="62" y="496" type="curve" smooth="yes"/>
      <point x="62" y="406"/>
      <point x="120" y="346"/>
      <point x="269" y="311" type="curve"/>
      <point x="269" y="114" type="line"/>
      <point x="219" y="121"/>
      <point x="167" y="143"/>
      <point x="110" y="184" type="curve"/>
      <point x="55" y="101" type="line"/>
      <point x="120" y="54"/>
      <point x="193" y="26"/>
      <point x="269" y="19" type="curve"/>
    </contour>
    <contour>
      <point x="166" y="504" type="curve" smooth="yes"/>
      <point x="166" y="551"/>
      <point x="206" y="584"/>
      <point x="269" y="589" type="curve"/>
      <point x="269" y="413" type="line"/>
      <point x="190" y="436"/>
      <point x="166" y="463"/>
    </contour>
    <contour>
      <point x="437" y="202" type="curve" smooth="yes"/>
      <point x="437" y="154"/>
      <point x="396" y="120"/>
      <point x="334" y="112" type="curve"/>
      <point x="334" y="298" type="line"/>
      <point x="408" y="277"/>
      <point x="437" y="249"/>
    </contour>
  </outline>
</glyph>
<glyph name="percent" format="2">
  <advance width="600"/>
  <unicode hex="0025"/>
  <outline>
    <contour>
      <point x="146" y="413" type="curve" smooth="yes"/>
      <point x="221" y="413"/>
      <point x="271" y="471"/>
      <point x="271" y="559" type="curve" smooth="yes"/>
      <point x="271" y="647"/>
      <point x="221" y="705"/>
      <point x="146" y="705" type="curve" smooth="yes"/>
      <point x="71" y="705"/>
      <point x="21" y="647"/>
      <point x="21" y="559" type="curve" smooth="yes"/>
      <point x="21" y="471"/>
      <point x="71" y="413"/>
    </contour>
    <contour>
      <point x="146" y="471" type="curve" smooth="yes"/>
      <point x="108" y="471"/>
      <point x="85" y="503"/>
      <point x="85" y="559" type="curve" smooth="yes"/>
      <point x="85" y="615"/>
      <point x="108" y="647"/>
      <point x="146" y="647" type="curve" smooth="yes"/>
      <point x="183" y="647"/>
      <point x="207" y="615"/>
      <point x="207" y="559" type="curve" smooth="yes"/>
      <point x="207" y="503"/>
      <point x="183" y="471"/>
    </contour>
    <contour>
      <point x="454" y="-5" type="curve" smooth="yes"/>
      <point x="529" y="-5"/>
      <point x="579" y="53"/>
      <point x="579" y="141" type="curve" smooth="yes"/>
      <point x="579" y="229"/>
      <point x="529" y="287"/>
      <point x="454" y="287" type="curve" smooth="yes"/>
      <point x="379" y="287"/>
      <point x="329" y="229"/>
      <point x="329" y="141" type="curve" smooth="yes"/>
      <point x="329" y="53"/>
      <point x="379" y="-5"/>
    </contour>
    <contour>
      <point x="454" y="53" type="curve" smooth="yes"/>
      <point x="417" y="53"/>
      <point x="393" y="85"/>
      <point x="393" y="141" type="curve" smooth="yes"/>
      <point x="393" y="197"/>
      <point x="417" y="229"/>
      <point x="454" y="229" type="curve" smooth="yes"/>
      <point x="492" y="229"/>
      <point x="515" y="197"/>
      <point x="515" y="141" type="curve" smooth="yes"/>
      <point x="515" y="85"/>
      <point x="492" y="53"/>
    </contour>
    <component base="fraction" xOffset="17"/>
  </outline>
</glyph>
<glyph name="ampersand" format="2">
  <advance width="600"/>
  <unicode hex="0026"/>
  <outline>
    <contour>
      <point x="243" y="-11" type="curve" smooth="yes"/>
      <point x="314" y="-11"/>
      <point x="377" y="16"/>
      <point x="429" y="69" type="curve"/>
      <point x="465" y="36"/>
      <point x="497" y="10"/>
      <point x="530" y="-16" type="curve"/>
      <point x="597" y="57" type="line"/>
      <point x="567" y="81"/>
      <point x="534" y="109"/>
      <point x="490" y="148" type="curve"/>
      <point x="520" y="201"/>
      <point x="543" y="265"/>
      <point x="560" y="342" type="curve"/>
      <point x="464" y="358" type="line"/>
      <point x="454" y="301"/>
      <point x="438" y="254"/>
      <point x="420" y="214" type="curve"/>
      <point x="369" y="264"/>
      <point x="320" y="315"/>
      <point x="280" y="361" type="curve"/>
      <point x="391" y="432"/>
      <point x="432" y="485"/>
      <point x="432" y="558" type="curve" smooth="yes"/>
      <point x="432" y="646"/>
      <point x="361" y="711"/>
      <point x="263" y="711" type="curve" smooth="yes"/>
      <point x="161" y="711"/>
      <point x="85" y="638"/>
      <point x="85" y="538" type="curve" smooth="yes"/>
      <point x="85" y="485"/>
      <point x="104" y="434"/>
      <point x="144" y="376" type="curve"/>
      <point x="65" y="321"/>
      <point x="29" y="262"/>
      <point x="29" y="186" type="curve" smooth="yes"/>
      <point x="29" y="67"/>
      <point x="115" y="-11"/>
    </contour>
    <contour>
      <point x="183" y="540" type="curve" smooth="yes"/>
      <point x="183" y="593"/>
      <point x="215" y="629"/>
      <point x="260" y="629" type="curve" smooth="yes"/>
      <point x="301" y="629"/>
      <point x="333" y="597"/>
      <point x="333" y="555" type="curve" smooth="yes"/>
      <point x="333" y="508"/>
      <point x="305" y="475"/>
      <point x="228" y="427" type="curve"/>
      <point x="197" y="471"/>
      <point x="183" y="505"/>
    </contour>
    <contour>
      <point x="129" y="192" type="curve" smooth="yes"/>
      <point x="129" y="233"/>
      <point x="151" y="270"/>
      <point x="198" y="307" type="curve"/>
      <point x="247" y="249"/>
      <point x="303" y="189"/>
      <point x="363" y="131" type="curve"/>
      <point x="331" y="95"/>
      <point x="291" y="76"/>
      <point x="249" y="76" type="curve" smooth="yes"/>
      <point x="176" y="76"/>
      <point x="129" y="121"/>
    </contour>
  </outline>
</glyph>
<glyph name="quotesingle" format="2">
  <advance width="600"/>
  <unicode hex="0027"/>
  <outline>
    <contour>
      <point x="261" y="489" type="line"/>
      <point x="340" y="489" type="line"/>
      <point x="353" y="750" type="line"/>
      <point x="247" y="750" type="line"/>
    </contour>
  </outline>
</glyph>
<glyph name="parenleft" format="2">
  <advance width="600"/>
  <unicode hex="0028"/>
  <outline>
    <contour>
      <point x="445" y="-223" type="curve"/>
      <point x="492" y="-145" type="line"/>
      <point x="333" y="-65"/>
      <point x="251" y="69"/>
      <point x="251" y="245" type="curve" smooth="yes"/>
      <point x="251" y="420"/>
      <point x="333" y="554"/>
      <point x="492" y="634" type="curve"/>
      <point x="445" y="713" type="line"/>
      <point x="264" y="628"/>
      <point x="149" y="458"/>
      <point x="149" y="245" type="curve" smooth="yes"/>
      <point x="149" y="31"/>
      <point x="264" y="-138"/>
    </contour>
  </outline>
</glyph>
<glyph name="asterisk" format="2">
  <advance width="600"/>
  <unicode hex="002A"/>
  <outline>
    <contour>
      <point x="263" y="325" type="line"/>
      <point x="335" y="325" type="line"/>
      <point x="333" y="449" type="line"/>
      <point x="437" y="381" type="line"/>
      <point x="479" y="445" type="line"/>
      <point x="366" y="514" type="line"/>
      <point x="477" y="583" type="line"/>
      <point x="436" y="645" type="line"/>
      <point x="334" y="579" type="line"/>
      <point x="335" y="700" type="line"/>
      <point x="263" y="700" type="line"/>
      <point x="264" y="579" type="line"/>
      <point x="162" y="645" type="line"/>
      <point x="123" y="583" type="line"/>
      <point x="233" y="514" type="line"/>
      <point x="121" y="445" type="line"/>
      <point x="161" y="381" type="line"/>
      <point x="265" y="449" type="line"/>
    </contour>
  </outline>
</glyph>
<glyph name="plus" format="2">
  <advance width="600"/>
  <unicode hex="002B"/>
  <outline>
    <contour>
      <point x="255" y="135" type="line"/>
      <point x="345" y="135" type="line"/>
      <point x="345" y="314" type="line"/>
      <point x="510" y="314" type="line"/>
      <point x="510" y="401" type="line"/>
      <point x="345" y="401" type="line"/>
      <point x="345" y="578" type="line"/>
      <point x="255" y="578" type="line"/>
      <point x="255" y="401" type="line"/>
      <point x="90" y="401" type="line"/>
      <point x="90" y="314" type="line"/>
      <point x="255" y="314" type="line"/>
    </contour>
  </outline>
</glyph>
<glyph name="comma" format="2">
  <advance width="600"/>
  <unicode hex="002C"/>
  <outline>
    <contour>
      <point x="196" y="-166" type="line"/>
      <point x="280" y="-166" type="line"/>
      <point x="388" y="98" type="line"/>
      <point x="256" y="98" type="line"/>
    </contour>
  </outline>
</glyph>
<glyph name="hyphen" format="2">
  <advance width="600"/>
  <unicode hex="002D"/>
  <outline>
    <contour>
      <point x="126" y="236" type="line"/>
      <point x="474" y="236" type="line"/>
      <point x="474" y="330" type="line"/>
      <point x="126" y="330" type="line"/>
    </contour>
  </outline>
</glyph>
<glyph name="period" format="2">
  <advance width="600"/>
  <unicode hex="002E"/>
  <outline>
    <contour>
      <point x="300" y="-9" type="curve" smooth="yes"/>
      <point x="347" y="-9"/>
      <point x="384" y="28"/>
      <point x="384" y="74" type="curve" smooth="yes"/>
      <point x="384" y="121"/>
      <point x="347" y="158"/>
      <point x="300" y="158" type="curve" smooth="yes"/>
      <point x="253" y="158"/>
      <point x="216" y="121"/>
      <point x="216" y="74" type="curve" smooth="yes"/>
      <point x="216" y="28"/>
      <point x="253" y="-9"/>
    </contour>
  </outline>
</glyph>
<glyph name="slash" format="2">
  <advance width="600"/>
  <unicode hex="002F"/>
  <outline>
    <contour>
      <point x="14" y="-209" type="line"/>
      <point x="124" y="-209" type="line"/>
      <point x="524" y="700" type="line"/>
      <point x="415" y="700" type="line"/>
    </contour>
  </outline>
</glyph>
<glyph name="zero" format="2">
  <advance width="600"/>
  <unicode hex="0030"/>
  <outline>
    <contour>
      <point x="300" y="-11" type="curve" smooth="yes"/>
      <point x="457" y="-11"/>
      <point x="565" y="125"/>
      <point x="565" y="350" type="curve" smooth="yes"/>
      <point x="565" y="575"/>
      <point x="457" y="711"/>
      <point x="300" y="711" type="curve" smooth="yes"/>
      <point x="143" y="711"/>
      <point x="35" y="575"/>
      <point x="35" y="350" type="curve" smooth="yes"/>
      <point x="35" y="125"/>
      <point x="143" y="-11"/>
    </contour>
    <contour>
      <point x="144" y="350" type="curve" smooth="yes"/>
      <point x="144" y="511"/>
      <point x="205" y="614"/>
      <point x="300" y="614" type="curve" smooth="yes"/>
      <point x="331" y="614"/>
      <point x="358" y="603"/>
      <point x="381" y="583" type="curve"/>
      <point x="173" y="189" type="line"/>
      <point x="155" y="231"/>
      <point x="144" y="286"/>
    </contour>
    <contour>
      <point x="300" y="86" type="curve" smooth="yes"/>
      <point x="269" y="86"/>
      <point x="242" y="97"/>
      <point x="219" y="117" type="curve"/>
      <point x="427" y="511" type="line"/>
      <point x="445" y="469"/>
      <point x="456" y="414"/>
      <point x="456" y="350" type="curve" smooth="yes"/>
      <point x="456" y="189"/>
      <point x="395" y="86"/>
    </contour>
  </outline>
</glyph>
<glyph name="one" format="2">
  <advance width="600"/>
  <unicode hex="0031"/>
  <outline>
    <contour>
      <point x="70" y="0" type="line"/>
      <point x="544" y="0" type="line"/>
      <point x="544" y="94" type="line"/>
      <point x="356" y="94" type="line"/>
      <point x="356" y="700" type="line"/>
      <point x="287" y="700" type="line"/>
      <point x="70" y="607" type="line"/>
      <point x="70" y="509" type="line"/>
      <point x="247" y="585" type="line"/>
      <point x="247" y="94" type="line"/>
      <point x="70" y="94" type="line"/>
    </contour>
  </outline>
</glyph>
<glyph name="two" format="2">
  <advance width="600"/>
  <unicode hex="0032"/>
  <outline>
    <contour>
      <point x="63" y="0" type="line"/>
      <point x="537" y="0" type="line"/>
      <point x="537" y="94" type="line"/>
      <point x="202" y="93" type="line"/>
      <point x="425" y="323" type="line" smooth="yes"/>
      <point x="500" y="402"/>
      <point x="524" y="451"/>
      <point x="524" y="519" type="curve" smooth="yes"/>
      <point x="524" y="633"/>
      <point x="430" y="711"/>
      <point x="293" y="711" type="curve" smooth="yes"/>
      <point x="205" y="711"/>
      <point x="124" y="676"/>
      <point x="47" y="605" type="curve"/>
      <point x="109" y="530" type="line"/>
      <point x="176" y="592"/>
      <point x="226" y="615"/>
      <point x="291" y="615" type="curve" smooth="yes"/>
      <point x="364" y="615"/>
      <point x="418" y="571"/>
      <point x="418" y="513" type="curve" smooth="yes"/>
      <point x="418" y="468"/>
      <point x="401" y="433"/>
      <point x="350" y="379" type="curve" smooth="yes"/>
      <point x="63" y="79" type="line"/>
    </contour>
  </outline>
</glyph>
<glyph name="three" format="2">
  <advance width="600"/>
  <unicode hex="0033"/>
  <outline>
    <contour>
      <point x="288" y="-11" type="curve" smooth="yes"/>
      <point x="439" y="-11"/>
      <point x="549" y="75"/>
      <point x="549" y="194" type="curve" smooth="yes"/>
      <point x="549" y="273"/>
      <point x="487" y="335"/>
      <point x="394" y="355" type="curve"/>
      <point x="473" y="378"/>
      <point x="526" y="440"/>
      <point x="526" y="514" type="curve" smooth="yes"/>
      <point x="526" y="629"/>
      <point x="426" y="711"/>
      <point x="287" y="711" type="curve" smooth="yes"/>
      <point x="191" y="711"/>
      <point x="100" y="671"/>
      <point x="36" y="600" type="curve"/>
      <point x="110" y="531" type="line"/>
      <point x="167" y="592"/>
      <point x="214" y="614"/>
      <point x="284" y="614" type="curve" smooth="yes"/>
      <point x="359" y="614"/>
      <point x="417" y="566"/>
      <point x="417" y="503" type="curve" smooth="yes"/>
      <point x="417" y="440"/>
      <point x="373" y="399"/>
      <point x="305" y="399" type="curve" smooth="yes"/>
      <point x="228" y="399" type="line"/>
      <point x="228" y="307" type="line"/>
      <point x="314" y="307" type="line" smooth="yes"/>
      <point x="388" y="307"/>
      <point x="439" y="264"/>
      <point x="439" y="201" type="curve" smooth="yes"/>
      <point x="439" y="132"/>
      <point x="377" y="85"/>
      <point x="286" y="85" type="curve" smooth="yes"/>
      <point x="208" y="85"/>
      <point x="158" y="106"/>
      <point x="102" y="164" type="curve"/>
      <point x="29" y="94" type="line"/>
      <point x="92" y="27"/>
      <point x="185" y="-11"/>
    </contour>
  </outline>
</glyph>
<glyph name="four" format="2">
  <advance width="600"/>
  <unicode hex="0034"/>
  <outline>
    <contour>
      <point x="387" y="0" type="line"/>
      <point x="493" y="0" type="line"/>
      <point x="493" y="173" type="line"/>
      <point x="582" y="173" type="line"/>
      <point x="582" y="267" type="line"/>
      <point x="493" y="267" type="line"/>
      <point x="493" y="700" type="line"/>
      <point x="374" y="700" type="line"/>
      <point x="20" y="262" type="line"/>
      <point x="20" y="173" type="line"/>
      <point x="387" y="173" type="line"/>
    </contour>
    <contour>
      <point x="141" y="267" type="line"/>
      <point x="387" y="572" type="line"/>
      <point x="387" y="267" type="line"/>
    </contour>
  </outline>
</glyph>
<glyph name="five" format="2">
  <advance width="600"/>
  <unicode hex="0035"/>
  <outline>
    <contour>
      <point x="284" y="-11" type="curve" smooth="yes"/>
      <point x="442" y="-11"/>
      <point x="548" y="84"/>
      <point x="548" y="226" type="curve" smooth="yes"/>
      <point x="548" y="352"/>
      <point x="455" y="437"/>
      <point x="316" y="437" type="curve" smooth="yes"/>
      <point x="268" y="437"/>
      <point x="223" y="429"/>
      <point x="173" y="405" type="curve"/>
      <point x="182" y="606" type="line"/>
      <point x="511" y="606" type="line"/>
      <point x="511" y="700" type="line"/>
      <point x="86" y="700" type="line"/>
      <point x="70" y="338" type="line"/>
      <point x="147" y="315" type="line"/>
      <point x="196" y="340"/>
      <point x="239" y="352"/>
      <point x="285" y="352" type="curve" smooth="yes"/>
      <point x="374" y="352"/>
      <point x="437" y="298"/>
      <point x="437" y="220" type="curve" smooth="yes"/>
      <point x="437" y="138"/>
      <point x="377" y="83"/>
      <point x="288" y="83" type="curve" smooth="yes"/>
      <point x="218" y="83"/>
      <point x="164" y="105"/>
      <point x="104" y="159" type="curve"/>
      <point x="38" y="84" type="line"/>
      <point x="106" y="21"/>
      <point x="190" y="-11"/>
    </contour>
  </outline>
</glyph>
<glyph name="six" format="2">
  <advance width="600"/>
  <unicode hex="0036"/>
  <outline>
    <contour>
      <point x="323" y="-10" type="curve" smooth="yes"/>
      <point x="465" y="-10"/>
      <point x="570" y="88"/>
      <point x="570" y="221" type="curve" smooth="yes"/>
      <point x="570" y="346"/>
      <point x="472" y="436"/>
      <point x="335" y="436" type="curve" smooth="yes"/>
      <point x="261" y="436"/>
      <point x="190" y="399"/>
      <point x="142" y="333" type="curve"/>
      <point x="144" y="509"/>
      <point x="220" y="613"/>
      <point x="350" y="613" type="curve" smooth="yes"/>
      <point x="401" y="613"/>
      <point x="445" y="599"/>
      <point x="485" y="570" type="curve"/>
      <point x="545" y="651" type="line"/>
      <point x="499" y="688"/>
      <point x="426" y="711"/>
      <point x="359" y="711" type="curve" smooth="yes"/>
      <point x="163" y="711"/>
      <point x="33" y="560"/>
      <point x="33" y="332" type="curve" smooth="yes"/>
      <point x="33" y="129"/>
      <point x="151" y="-10"/>
    </contour>
    <contour>
      <point x="318" y="350" type="curve" smooth="yes"/>
      <point x="403" y="350"/>
      <point x="462" y="295"/>
      <point x="462" y="219" type="curve" smooth="yes"/>
      <point x="462" y="141"/>
      <point x="401" y="84"/>
      <point x="319" y="84" type="curve" smooth="yes"/>
      <point x="230" y="84"/>
      <point x="165" y="156"/>
      <point x="147" y="266" type="curve"/>
      <point x="191" y="318"/>
      <point x="252" y="350"/>
    </contour>
  </outline>
</glyph>
<glyph name="seven" format="2">
  <advance width="600"/>
  <unicode hex="0037"/>
  <outline>
    <contour>
      <point x="115" y="0" type="line"/>
      <point x="244" y="0" type="line"/>
      <point x="560" y="617" type="line"/>
      <point x="560" y="700" type="line"/>
      <point x="40" y="700" type="line"/>
      <point x="40" y="604" type="line"/>
      <point x="442" y="604" type="line"/>
    </contour>
  </outline>
</glyph>
<glyph name="eight" format="2">
  <advance width="600"/>
  <unicode hex="0038"/>
  <outline>
    <contour>
      <point x="300" y="-11" type="curve" smooth="yes"/>
      <point x="452" y="-11"/>
      <point x="560" y="74"/>
      <point x="560" y="193" type="curve" smooth="yes"/>
      <point x="560" y="273"/>
      <point x="498" y="341"/>
      <point x="410" y="364" type="curve"/>
      <point x="485" y="389"/>
      <point x="536" y="449"/>
      <point x="536" y="519" type="curve" smooth="yes"/>
      <point x="536" y="629"/>
      <point x="435" y="711"/>
      <point x="300" y="711" type="curve"/>
      <point x="165" y="711"/>
      <point x="64" y="629"/>
      <point x="64" y="519" type="curve" smooth="yes"/>
      <point x="64" y="449"/>
      <point x="115" y="389"/>
      <point x="190" y="364" type="curve"/>
      <point x="102" y="341"/>
      <point x="40" y="273"/>
      <point x="40" y="193" type="curve" smooth="yes"/>
      <point x="40" y="74"/>
      <point x="148" y="-11"/>
    </contour>
    <contour>
      <point x="300" y="404" type="curve"/>
      <point x="227" y="404"/>
      <point x="171" y="451"/>
      <point x="171" y="513" type="curve"/>
      <point x="171" y="575"/>
      <point x="227" y="621"/>
      <point x="300" y="621" type="curve"/>
      <point x="373" y="621"/>
      <point x="429" y="575"/>
      <point x="429" y="513" type="curve"/>
      <point x="429" y="451"/>
      <point x="373" y="404"/>
    </contour>
    <contour>
      <point x="300" y="79" type="curve" smooth="yes"/>
      <point x="213" y="79"/>
      <point x="150" y="131"/>
      <point x="150" y="200" type="curve" smooth="yes"/>
      <point x="150" y="269"/>
      <point x="213" y="320"/>
      <point x="300" y="320" type="curve" smooth="yes"/>
      <point x="387" y="320"/>
      <point x="450" y="269"/>
      <point x="450" y="200" type="curve" smooth="yes"/>
      <point x="450" y="131"/>
      <point x="387" y="79"/>
    </contour>
  </outline>
</glyph>
<glyph name="question" format="2">
  <advance width="600"/>
  <unicode hex="003F"/>
  <outline>
    <contour>
      <point x="229" y="229" type="curve"/>
      <point x="322" y="229" type="line"/>
      <point x="307" y="358"/>
      <point x="522" y="355"/>
      <point x="522" y="528" type="curve" smooth="yes"/>
      <point x="522" y="632"/>
      <point x="430" y="711"/>
      <point x="303" y="711" type="curve" smooth="yes"/>
      <point x="201" y="711"/>
      <point x="113" y="658"/>
      <point x="67" y="569" type="curve"/>
      <point x="154" y="526" type="line"/>
      <point x="186" y="582"/>
      <point x="238" y="615"/>
      <point x="299" y="615" type="curve" smooth="yes"/>
      <point x="365" y="615"/>
      <point x="415" y="577"/>
      <point x="415" y="525" type="curve" smooth="yes"/>
      <point x="415" y="405"/>
      <point x="213" y="420"/>
    </contour>
    <contour>
      <point x="277" y="-9" type="curve" smooth="yes"/>
      <point x="323" y="-9"/>
      <point x="358" y="26"/>
      <point x="358" y="71" type="curve" smooth="yes"/>
      <point x="358" y="116"/>
      <point x="323" y="152"/>
      <point x="277" y="152" type="curve" smooth="yes"/>
      <point x="231" y="152"/>
      <point x="196" y="116"/>
      <point x="196" y="71" type="curve" smooth="yes"/>
      <point x="196" y="26"/>
      <point x="231" y="-9"/>
    </contour>
  </outline>
</glyph>
<glyph name="at" format="2">
  <advance width="600"/>
  <unicode hex="0040"/>
  <outline>
    <contour>
      <point x="274" y="48" type="curve" smooth="yes"/>
      <point x="305" y="48"/>
      <point x="339" y="62"/>
      <point x="368" y="88" type="curve"/>
      <point x="383" y="65"/>
      <point x="409" y="52"/>
      <point x="444" y="52" type="curve" smooth="yes"/>
      <point x="531" y="52"/>
      <point x="588" y="139"/>
      <point x="588" y="267" type="curve" smooth="yes"/>
      <point x="588" y="453"/>
      <point x="469" y="580"/>
      <point x="310" y="580" type="curve" smooth="yes"/>
      <point x="138" y="580"/>
      <point x="12" y="424"/>
      <point x="12" y="215" type="curve" smooth="yes"/>
      <point x="12" y="10"/>
      <point x="139" y="-144"/>
      <point x="312" y="-144" type="curve" smooth="yes"/>
      <point x="378" y="-144"/>
      <point x="440" y="-128"/>
      <point x="494" y="-92" type="curve"/>
      <point x="469" y="-47" type="line"/>
      <point x="425" y="-78"/>
      <point x="367" y="-94"/>
      <point x="312" y="-94" type="curve" smooth="yes"/>
      <point x="165" y="-94"/>
      <point x="64" y="39"/>
      <point x="64" y="215" type="curve" smooth="yes"/>
      <point x="64" y="394"/>
      <point x="164" y="530"/>
      <point x="308" y="530" type="curve" smooth="yes"/>
      <point x="442" y="530"/>
      <point x="536" y="424"/>
      <point x="536" y="265" type="curve" smooth="yes"/>
      <point x="536" y="165"/>
      <point x="500" y="103"/>
      <point x="454" y="103" type="curve" smooth="yes"/>
      <point x="428" y="103"/>
      <point x="418" y="120"/>
      <point x="423" y="150" type="curve" smooth="yes"/>
      <point x="456" y="368" type="line"/>
      <point x="385" y="368" type="line"/>
      <point x="382" y="347" type="line"/>
      <point x="360" y="369"/>
      <point x="329" y="381"/>
      <point x="296" y="381" type="curve" smooth="yes"/>
      <point x="207" y="381"/>
      <point x="141" y="307"/>
      <point x="141" y="201" type="curve" smooth="yes"/>
      <point x="141" y="111"/>
      <point x="198" y="48"/>
    </contour>
    <contour>
      <point x="288" y="111" type="curve" smooth="yes"/>
      <point x="242" y="111"/>
      <point x="209" y="149"/>
      <point x="209" y="207" type="curve" smooth="yes"/>
      <point x="209" y="270"/>
      <point x="249" y="317"/>
      <point x="300" y="317" type="curve" smooth="yes"/>
      <point x="331" y="317"/>
      <point x="357" y="302"/>
      <point x="371" y="277" type="curve"/>
      <point x="355" y="164" type="line" smooth="yes"/>
      <point x="353" y="155"/>
      <point x="353" y="147"/>
      <point x="354" y="139" type="curve"/>
      <point x="335" y="120"/>
      <point x="311" y="111"/>
    </contour>
  </outline>
</glyph>
<glyph name="A" format="2">
  <advance width="600"/>
  <unicode hex="0041"/>
  <anchor x="300" y="700" name="top"/>
  <anchor x="591" y="0" name="bottom"/>
  <outline>
    <contour>
      <point x="9" y="0" type="line"/>
      <point x="127" y="0" type="line"/>
      <point x="177" y="169" type="line"/>
      <point x="418" y="169" type="line"/>
      <point x="469" y="0" type="line"/>
      <point x="591" y="0" type="line"/>
      <point x="371" y="700" type="line"/>
      <point x="229" y="700" type="line"/>
    </contour>
    <contour>
      <point x="204" y="262" type="line"/>
      <point x="298" y="573" type="line"/>
      <point x="392" y="262" type="line"/>
    </contour>
  </outline>
</glyph>
<glyph name="B" format="2">
  <advance width="600"/>
  <unicode hex="0042"/>
  <outline>
    <contour>
      <point x="85" y="0" type="line"/>
      <point x="327" y="0" type="line" smooth="yes"/>
      <point x="465" y="0"/>
      <point x="559" y="79"/>
      <point x="559" y="195" type="curve" smooth="yes"/>
      <point x="559" y="275"/>
      <point x="505" y="336"/>
      <point x="420" y="361" type="curve"/>
      <point x="490" y="388"/>
      <point x="535" y="445"/>
      <point x="535" y="516" type="curve" smooth="yes"/>
      <point x="535" y="625"/>
      <point x="446" y="700"/>
      <point x="314" y="700" type="curve" smooth="yes"/>
      <point x="85" y="700" type="line"/>
    </contour>
    <contour>
      <point x="203" y="405" type="line"/>
      <point x="203" y="603" type="line"/>
      <point x="302" y="603" type="line" smooth="yes"/>
      <point x="371" y="603"/>
      <point x="416" y="564"/>
      <point x="416" y="504" type="curve" smooth="yes"/>
      <point x="416" y="444"/>
      <point x="371" y="405"/>
      <point x="302" y="405" type="curve" smooth="yes"/>
    </contour>
    <contour>
      <point x="203" y="97" type="line"/>
      <point x="203" y="313" type="line"/>
      <point x="313" y="313" type="line" smooth="yes"/>
      <point x="390" y="313"/>
      <point x="439" y="271"/>
      <point x="439" y="205" type="curve" smooth="yes"/>
      <point x="439" y="139"/>
      <point x="389" y="97"/>
      <point x="313" y="97" type="curve" smooth="yes"/>
    </contour>
  </outline>
</glyph>
<glyph name="C" format="2">
  <advance width="600"/>
  <unicode hex="0043"/>
  <anchor x="310" y="700" name="top"/>
  <anchor x="309" y="0" name="bottom"/>
  <outline>
    <contour>
      <point x="308" y="-11" type="curve" smooth="yes"/>
      <point x="432" y="-11"/>
      <point x="530" y="72"/>
      <point x="565" y="215" type="curve"/>
      <point x="457" y="246" type="line"/>
      <point x="437" y="148"/>
      <point x="378" y="97"/>
      <point x="310" y="97" type="curve" smooth="yes"/>
      <point x="224" y="97"/>
      <point x="157" y="182"/>
      <point x="157" y="350" type="curve" smooth="yes"/>
      <point x="157" y="518"/>
      <point x="224" y="603"/>
      <point x="310" y="603" type="curve" smooth="yes"/>
      <point x="378" y="603"/>
      <point x="437" y="552"/>
      <point x="457" y="454" type="curve"/>
      <point x="565" y="485" type="line"/>
      <point x="530" y="628"/>
      <point x="432" y="711"/>
      <point x="308" y="711" type="curve" smooth="yes"/>
      <point x="159" y="711"/>
      <point x="36" y="582"/>
      <point x="36" y="350" type="curve" smooth="yes"/>
      <point x="36" y="118"/>
      <point x="159" y="-11"/>
    </contour>
  </outline>
</glyph>
<glyph name="D" format="2">
  <advance width="600"/>
  <unicode hex="0044"/>
  <anchor x="306" y="700" name="top"/>
  <outline>
    <contour>
      <point x="191" y="102" type="line"/>
      <point x="191" y="598" type="line"/>
      <point x="266" y="598" type="line" smooth="yes"/>
      <point x="371" y="598"/>
      <point x="445" y="506"/>
      <point x="445" y="350" type="curve" smooth="yes"/>
      <point x="445" y="194"/>
      <point x="371" y="102"/>
      <point x="266" y="102" type="curve" smooth="yes"/>
    </contour>
    <contour>
      <point x="71" y="0" type="line"/>
      <point x="277" y="0" type="line" smooth="yes"/>
      <point x="444" y="0"/>
      <point x="566" y="137"/>
      <point x="566" y="350" type="curve" smooth="yes"/>
      <point x="566" y="563"/>
      <point x="444" y="700"/>
      <point x="277" y="700" type="curve" smooth="yes"/>
      <point x="71" y="700" type="line"/>
    </contour>
  </outline>
</glyph>
<glyph name="E" format="2">
  <advance width="600"/>
  <unicode hex="0045"/>
  <anchor x="324" y="700" name="top"/>
  <anchor x="549" y="0" name="bottom"/>
  <outline>
    <contour>
      <point x="87" y="0" type="line"/>
      <point x="549" y="0" type="line"/>
      <point x="549" y="102" type="line"/>
      <point x="207" y="102" type="line"/>
      <point x="207" y="303" type="line"/>
      <point x="426" y="303" type="line"/>
      <point x="426" y="403" type="line"/>
      <point x="207" y="403" type="line"/>
      <point x="207" y="598" type="line"/>
      <point x="545" y="598" type="line"/>
      <point x="545" y="700" type="line"/>
      <point x="87" y="700" type="line"/>
    </contour>
  </outline>
</glyph>
<glyph name="F" format="2">
  <advance width="600"/>
  <unicode hex="0046"/>
  <outline>
    <contour>
      <point x="92" y="0" type="line"/>
      <point x="212" y="0" type="line"/>
      <point x="212" y="298" type="line"/>
      <point x="439" y="298" type="line"/>
      <point x="439" y="398" type="line"/>
      <point x="212" y="398" type="line"/>
      <point x="212" y="598" type="line"/>
      <point x="553" y="598" type="line"/>
      <point x="553" y="700" type="line"/>
      <point x="92" y="700" type="line"/>
    </contour>
  </outline>
</glyph>
<glyph name="G" format="2">
  <advance width="600"/>
  <unicode hex="0047"/>
  <anchor x="308" y="700" name="top"/>
  <anchor x="309" y="0" name="bottom"/>
  <outline>
    <contour>
      <point x="310" y="-11" type="curve" smooth="yes"/>
      <point x="467" y="-11"/>
      <point x="571" y="119"/>
      <point x="571" y="343" type="curve" smooth="yes"/>
      <point x="571" y="382" type="line"/>
      <point x="319" y="382" type="line"/>
      <point x="319" y="280" type="line"/>
      <point x="458" y="280" type="line"/>
      <point x="450" y="171"/>
      <point x="393" y="97"/>
      <point x="313" y="97" type="curve" smooth="yes"/>
      <point x="222" y="97"/>
      <point x="155" y="182"/>
      <point x="155" y="350" type="curve" smooth="yes"/>
      <point x="155" y="518"/>
      <point x="222" y="603"/>
      <point x="309" y="603" type="curve" smooth="yes"/>
      <point x="373" y="603"/>
      <point x="428" y="558"/>
      <point x="452" y="473" type="curve"/>
      <point x="558" y="508" type="line"/>
      <point x="517" y="636"/>
      <point x="423" y="711"/>
      <point x="306" y="711" type="curve" smooth="yes"/>
      <point x="158" y="711"/>
      <point x="34" y="582"/>
      <point x="34" y="350" type="curve" smooth="yes"/>
      <point x="34" y="118"/>
      <point x="158" y="-11"/>
    </contour>
  </outline>
</glyph>
<glyph name="H" format="2">
  <advance width="600"/>
  <unicode hex="0048"/>
  <anchor x="300" y="700" name="top"/>
  <outline>
    <contour>
      <point x="60" y="0" type="line"/>
      <point x="180" y="0" type="line"/>
      <point x="180" y="300" type="line"/>
      <point x="420" y="300" type="line"/>
      <point x="420" y="0" type="line"/>
      <point x="540" y="0" type="line"/>
      <point x="540" y="700" type="line"/>
      <point x="420" y="700" type="line"/>
      <point x="420" y="405" type="line"/>
      <point x="180" y="405" type="line"/>
      <point x="180" y="700" type="line"/>
      <point x="60" y="700" type="line"/>
    </contour>
  </outline>
</glyph>
<glyph name="I" format="2">
  <advance width="600"/>
  <unicode hex="0049"/>
  <anchor x="300" y="700" name="top"/>
  <anchor x="536" y="0" name="bottom"/>
  <outline>
    <contour>
      <point x="64" y="0" type="line"/>
      <point x="536" y="0" type="line"/>
      <point x="536" y="102" type="line"/>
      <point x="360" y="102" type="line"/>
      <point x="360" y="598" type="line"/>
      <point x="536" y="598" type="line"/>
      <point x="536" y="700" type="line"/>
      <point x="64" y="700" type="line"/>
      <point x="64" y="598" type="line"/>
      <point x="240" y="598" type="line"/>
      <point x="240" y="102" type="line"/>
      <point x="64" y="102" type="line"/>
    </contour>
  </outline>
</glyph>
<glyph name="J" format="2">
  <advance width="600"/>
  <unicode hex="004A"/>
  <anchor x="476" y="700" name="top"/>
  <outline>
    <contour>
      <point x="286" y="-11" type="curve" smooth="yes"/>
      <point x="439" y="-11"/>
      <point x="535" y="94"/>
      <point x="535" y="256" type="curve" smooth="yes"/>
      <point x="535" y="700" type="line"/>
      <point x="415" y="700" type="line"/>
      <point x="415" y="257" type="line" smooth="yes"/>
      <point x="415" y="159"/>
      <point x="364" y="97"/>
      <point x="284" y="97" type="curve" smooth="yes"/>
      <point x="212" y="97"/>
      <point x="163" y="140"/>
      <point x="134" y="225" type="curve"/>
      <point x="24" y="183" type="line"/>
      <point x="64" y="59"/>
      <point x="158" y="-11"/>
    </contour>
  </outline>
</glyph>
<glyph name="K" format="2">
  <advance width="600"/>
  <unicode hex="004B"/>
  <anchor x="309" y="0" name="bottom"/>
  <outline>
    <contour>
      <point x="71" y="0" type="line"/>
      <point x="191" y="0" type="line"/>
      <point x="191" y="320" type="line"/>
      <point x="441" y="0" type="line"/>
      <point x="592" y="0" type="line"/>
      <point x="297" y="361" type="line"/>
      <point x="579" y="700" type="line"/>
      <point x="442" y="700" type="line"/>
      <point x="191" y="387" type="line"/>
      <point x="191" y="700" type="line"/>
      <point x="71" y="700" type="line"/>
    </contour>
  </outline>
</glyph>
<glyph name="L" format="2">
  <advance width="600"/>
  <unicode hex="004C"/>
  <anchor x="148" y="700" name="top"/>
  <anchor x="330" y="0" name="bottom"/>
  <outline>
    <contour>
      <point x="90" y="0" type="line"/>
      <point x="551" y="0" type="line"/>
      <point x="551" y="102" type="line"/>
      <point x="210" y="102" type="line"/>
      <point x="210" y="700" type="line"/>
      <point x="90" y="700" type="line"/>
    </contour>
  </outline>
</glyph>
<glyph name="M" format="2">
  <advance width="600"/>
  <unicode hex="004D"/>
  <outline>
    <contour>
      <point x="50" y="0" type="line"/>
      <point x="153" y="0" type="line"/>
      <point x="153" y="538" type="line"/>
      <point x="299" y="191" type="line"/>
      <point x="445" y="538" type="line"/>
      <point x="445" y="0" type="line"/>
      <point x="550" y="0" type="line"/>
      <point x="550" y="700" type="line"/>
      <point x="416" y="700" type="line"/>
      <point x="300" y="419" type="line"/>
      <point x="184" y="700" type="line"/>
      <point x="50" y="700" type="line"/>
    </contour>
  </outline>
</glyph>
<glyph name="N" format="2">
  <advance width="600"/>
  <unicode hex="004E"/>
  <anchor x="300" y="700" name="top"/>
  <anchor x="300" y="0" name="bottom"/>
  <outline>
    <contour>
      <point x="63" y="0" type="line"/>
      <point x="165" y="0" type="line"/>
      <point x="163" y="506" type="line"/>
      <point x="426" y="0" type="line"/>
      <point x="537" y="0" type="line"/>
      <point x="537" y="700" type="line"/>
      <point x="435" y="700" type="line"/>
      <point x="437" y="210" type="line"/>
      <point x="184" y="700" type="line"/>
      <point x="63" y="700" type="line"/>
    </contour>
  </outline>
</glyph>
<glyph name="O" format="2">
  <advance width="600"/>
  <unicode hex="004F"/>
  <anchor x="300" y="700" name="top"/>
  <outline>
    <contour>
      <point x="300" y="-11" type="curve" smooth="yes"/>
      <point x="448" y="-11"/>
      <point x="572" y="118"/>
      <point x="572" y="350" type="curve" smooth="yes"/>
      <point x="572" y="582"/>
      <point x="448" y="711"/>
      <point x="300" y="711" type="curve" smooth="yes"/>
      <point x="152" y="711"/>
      <point x="28" y="582"/>
      <point x="28" y="350" type="curve" smooth="yes"/>
      <point x="28" y="118"/>
      <point x="152" y="-11"/>
    </contour>
    <contour>
      <point x="300" y="97" type="curve" smooth="yes"/>
      <point x="215" y="97"/>
      <point x="149" y="184"/>
      <point x="149" y="350" type="curve" smooth="yes"/>
      <point x="149" y="516"/>
      <point x="215" y="603"/>
      <point x="300" y="603" type="curve" smooth="yes"/>
      <point x="385" y="603"/>
      <point x="451" y="516"/>
      <point x="451" y="350" type="curve" smooth="yes"/>
      <point x="451" y="184"/>
      <point x="385" y="97"/>
    </contour>
  </outline>
</glyph>
<glyph name="P" format="2">
  <advance width="600"/>
  <unicode hex="0050"/>
  <outline>
    <contour>
      <point x="78" y="0" type="line"/>
      <point x="198" y="0" type="line"/>
      <point x="198" y="267" type="line"/>
      <point x="324" y="267" type="line" smooth="yes"/>
      <point x="466" y="267"/>
      <point x="558" y="356"/>
      <point x="558" y="482" type="curve" smooth="yes"/>
      <point x="558" y="611"/>
      <point x="466" y="700"/>
      <point x="324" y="700" type="curve" smooth="yes"/>
      <point x="78" y="700" type="line"/>
    </contour>
    <contour>
      <point x="198" y="366" type="line"/>
      <point x="198" y="599" type="line"/>
      <point x="305" y="599" type="line" smooth="yes"/>
      <point x="390" y="599"/>
      <point x="437" y="553"/>
      <point x="437" y="483" type="curve" smooth="yes"/>
      <point x="437" y="412"/>
      <point x="390" y="366"/>
      <point x="305" y="366" type="curve" smooth="yes"/>
    </contour>
  </outline>
</glyph>
<glyph name="Q" format="2">
  <advance width="600"/>
  <unicode hex="0051"/>
  <outline>
    <contour>
      <point x="463" y="-27" type="line"/>
      <point x="563" y="3" type="line"/>
      <point x="494" y="87" type="line"/>
      <point x="542" y="148"/>
      <point x="572" y="236"/>
      <point x="572" y="350" type="curve" smooth="yes"/>
      <point x="572" y="582"/>
      <point x="448" y="711"/>
      <point x="300" y="711" type="curve" smooth="yes"/>
      <point x="152" y="711"/>
      <point x="28" y="582"/>
      <point x="28" y="350" type="curve" smooth="yes"/>
      <point x="28" y="118"/>
      <point x="152" y="-11"/>
      <point x="300" y="-11" type="curve" smooth="yes"/>
      <point x="343" y="-11"/>
      <point x="385" y="0"/>
      <point x="422" y="23" type="curve"/>
    </contour>
    <contour>
      <point x="300" y="97" type="curve" smooth="yes"/>
      <point x="215" y="97"/>
      <point x="149" y="184"/>
      <point x="149" y="350" type="curve" smooth="yes"/>
      <point x="149" y="516"/>
      <point x="215" y="603"/>
      <point x="300" y="603" type="curve" smooth="yes"/>
      <point x="385" y="603"/>
      <point x="451" y="516"/>
      <point x="451" y="350" type="curve" smooth="yes"/>
      <point x="451" y="281"/>
      <point x="438" y="225"/>
      <point x="416" y="185" type="curve"/>
      <point x="357" y="257" type="line"/>
      <point x="257" y="226" type="line"/>
      <point x="351" y="111" type="line"/>
      <point x="335" y="101"/>
      <point x="318" y="97"/>
    </contour>
  </outline>
</glyph>
<glyph name="R" format="2">
  <advance width="600"/>
  <unicode hex="0052"/>
  <anchor x="300" y="700" name="top"/>
  <anchor x="309" y="0" name="bottom"/>
  <outline>
    <contour>
      <point x="82" y="0" type="line"/>
      <point x="202" y="0" type="line"/>
      <point x="202" y="280" type="line"/>
      <point x="305" y="280" type="line"/>
      <point x="444" y="0" type="line"/>
      <point x="573" y="0" type="line"/>
      <point x="420" y="297" type="line"/>
      <point x="502" y="328"/>
      <point x="554" y="398"/>
      <point x="554" y="489" type="curve" smooth="yes"/>
      <point x="554" y="614"/>
      <point x="459" y="700"/>
      <point x="320" y="700" type="curve" smooth="yes"/>
      <point x="82" y="700" type="line"/>
    </contour>
    <contour>
      <point x="202" y="376" type="line"/>
      <point x="202" y="599" type="line"/>
      <point x="310" y="599" type="line" smooth="yes"/>
      <point x="384" y="599"/>
      <point x="433" y="555"/>
      <point x="433" y="487" type="curve" smooth="yes"/>
      <point x="433" y="420"/>
      <point x="384" y="376"/>
      <point x="310" y="376" type="curve" smooth="yes"/>
    </contour>
  </outline>
</glyph>
<glyph name="S" format="2">
  <advance width="600"/>
  <unicode hex="0053"/>
  <anchor x="290" y="700" name="top"/>
  <anchor x="303" y="0" name="bottom"/>
  <outline>
    <contour>
      <point x="305" y="-11" type="curve" smooth="yes"/>
      <point x="457" y="-11"/>
      <point x="561" y="78"/>
      <point x="561" y="203" type="curve" smooth="yes"/>
      <point x="561" y="470"/>
      <point x="167" y="351"/>
      <point x="167" y="519" type="curve" smooth="yes"/>
      <point x="167" y="573"/>
      <point x="216" y="612"/>
      <point x="291" y="612" type="curve" smooth="yes"/>
      <point x="357" y="612"/>
      <point x="422" y="586"/>
      <point x="491" y="534" type="curve"/>
      <point x="552" y="623" type="line"/>
      <point x="473" y="682"/>
      <point x="387" y="711"/>
      <point x="294" y="711" type="curve" smooth="yes"/>
      <point x="147" y="711"/>
      <point x="53" y="630"/>
      <point x="53" y="508" type="curve" smooth="yes"/>
      <point x="53" y="245"/>
      <point x="443" y="366"/>
      <point x="443" y="194" type="curve" smooth="yes"/>
      <point x="443" y="133"/>
      <point x="388" y="88"/>
      <point x="308" y="88" type="curve" smooth="yes"/>
      <point x="240" y="88"/>
      <point x="182" y="114"/>
      <point x="97" y="182" type="curve"/>
      <point x="34" y="92" type="line"/>
      <point x="121" y="22"/>
      <point x="206" y="-11"/>
    </contour>
  </outline>
</glyph>
<glyph name="T" format="2">
  <advance width="600"/>
  <unicode hex="0054"/>
  <anchor x="300" y="700" name="top"/>
  <anchor x="300" y="0" name="bottom"/>
  <outline>
    <contour>
      <point x="240" y="0" type="line"/>
      <point x="360" y="0" type="line"/>
      <point x="360" y="598" type="line"/>
      <point x="577" y="598" type="line"/>
      <point x="577" y="700" type="line"/>
      <point x="23" y="700" type="line"/>
      <point x="23" y="598" type="line"/>
      <point x="240" y="598" type="line"/>
    </contour>
  </outline>
</glyph>
<glyph name="U" format="2">
  <advance width="600"/>
  <unicode hex="0055"/>
  <anchor x="300" y="700" name="top"/>
  <anchor x="379" y="0" name="bottom"/>
  <outline>
    <contour>
      <point x="300" y="-11" type="curve" smooth="yes"/>
      <point x="452" y="-11"/>
      <point x="549" y="91"/>
      <point x="549" y="249" type="curve" smooth="yes"/>
      <point x="549" y="700" type="line"/>
      <point x="429" y="700" type="line"/>
      <point x="429" y="249" type="line" smooth="yes"/>
      <point x="429" y="157"/>
      <point x="379" y="97"/>
      <point x="300" y="97" type="curve" smooth="yes"/>
      <point x="221" y="97"/>
      <point x="171" y="157"/>
      <point x="171" y="249" type="curve"/>
      <point x="171" y="700" type="line"/>
      <point x="51" y="700" type="line"/>
      <point x="51" y="249" type="line"/>
      <point x="51" y="91"/>
      <point x="148" y="-11"/>
    </contour>
  </outline>
</glyph>
<glyph name="V" format="2">
  <advance width="600"/>
  <unicode hex="0056"/>
  <outline>
    <contour>
      <point x="228" y="0" type="line"/>
      <point x="371" y="0" type="line"/>
      <point x="591" y="699" type="line"/>
      <point x="473" y="699" type="line"/>
      <point x="301" y="126" type="line"/>
      <point x="131" y="700" type="line"/>
      <point x="9" y="700" type="line"/>
    </contour>
  </outline>
</glyph>
<glyph name="W" format="2">
  <advance width="600"/>
  <unicode hex="0057"/>
  <anchor x="301" y="700" name="top"/>
  <outline>
    <contour>
      <point x="99" y="0" type="line"/>
      <point x="207" y="0" type="line"/>
      <point x="301" y="494" type="line"/>
      <point x="394" y="0" type="line"/>
      <point x="502" y="0" type="line"/>
      <point x="583" y="700" type="line"/>
      <point x="481" y="700" type="line"/>
      <point x="437" y="242" type="line"/>
      <point x="347" y="700" type="line"/>
      <point x="257" y="700" type="line"/>
      <point x="167" y="238" type="line"/>
      <point x="123" y="700" type="line"/>
      <point x="17" y="700" type="line"/>
    </contour>
  </outline>
</glyph>
<glyph name="X" format="2">
  <advance width="600"/>
  <unicode hex="0058"/>
  <outline>
    <contour>
      <point x="13" y="0" type="line"/>
      <point x="141" y="0" type="line"/>
      <point x="298" y="261" type="line"/>
      <point x="454" y="0" type="line"/>
      <point x="587" y="0" type="line"/>
      <point x="363" y="365" type="line"/>
      <point x="570" y="700" type="line"/>
      <point x="442" y="700" type="line"/>
      <point x="301" y="467" type="line"/>
      <point x="162" y="700" type="line"/>
      <point x="30" y="700" type="line"/>
      <point x="236" y="363" type="line"/>
    </contour>
  </outline>
</glyph>
<glyph name="Y" format="2">
  <advance width="600"/>
  <unicode hex="0059"/>
  <anchor x="300" y="700" name="top"/>
  <outline>
    <contour>
      <point x="240" y="0" type="line"/>
      <point x="360" y="0" type="line"/>
      <point x="360" y="286" type="line"/>
      <point x="590" y="700" type="line"/>
      <point x="468" y="700" type="line"/>
      <point x="303" y="397" type="line"/>
      <point x="139" y="700" type="line"/>
      <point x="10" y="700" type="line"/>
      <point x="240" y="287" type="line"/>
    </contour>
  </outline>
</glyph>
<glyph name="Z" format="2">
  <advance width="600"/>
  <unicode hex="005A"/>
  <anchor x="295" y="700" name="top"/>
  <outline>
    <contour>
      <point x="48" y="0" type="line"/>
      <point x="554" y="0" type="line"/>
      <point x="554" y="102" type="line"/>
      <point x="200" y="100" type="line"/>
      <point x="548" y="620" type="line"/>
      <point x="548" y="700" type="line"/>
      <point x="50" y="700" type="line"/>
      <point x="50" y="598" type="line"/>
      <point x="397" y="601" type="line"/>
      <point x="48" y="80" type="line"/>
    </contour>
  </outline>
</glyph>
<glyph name="bracketleft" format="2">
  <advance width="600"/>
  <unicode hex="005B"/>
  <outline>
    <contour>
      <point x="165" y="-215" type="line"/>
      <point x="484" y="-215" type="line"/>
      <point x="484" y="-125" type="line"/>
      <point x="269" y="-125" type="line"/>
      <point x="269" y="610" type="line"/>
      <point x="484" y="610" type="line"/>
      <point x="484" y="700" type="line"/>
      <point x="165" y="700" type="line"/>
    </contour>
  </outline>
</glyph>
<glyph name="backslash" format="2">
  <advance width="600"/>
  <unicode hex="005C"/>
  <outline>
    <contour>
      <point x="476" y="-209" type="line"/>
      <point x="591" y="-209" type="line"/>
      <point x="190" y="700" type="line"/>
      <point x="75" y="700" type="line"/>
    </contour>
  </outline>
</glyph>
<glyph name="asciicircum" format="2">
  <advance width="600"/>
  <unicode hex="005E"/>
  <outline>
    <contour>
      <point x="77" y="350" type="line"/>
      <point x="170" y="350" type="line"/>
      <point x="300" y="611" type="line"/>
      <point x="430" y="350" type="line"/>
      <point x="523" y="350" type="line"/>
      <point x="347" y="700" type="line"/>
      <point x="253" y="700" type="line"/>
    </contour>
  </outline>
</glyph>
<glyph name="underscore" format="2">
  <advance width="600"/>
  <unicode hex="005F"/>
  <outline>
    <contour>
      <point x="66" y="-161" type="line"/>
      <point x="534" y="-161" type="line"/>
      <point x="534" y="-80" type="line"/>
      <point x="66" y="-80" type="line"/>
    </contour>
  </outline>
</glyph>
<glyph name="grave" format="2">
  <advance width="600"/>
  <unicode hex="0060"/>
  <outline>
    <contour>
      <point x="285" y="603" type="line"/>
      <point x="391" y="603" type="line"/>
      <point x="267" y="736" type="line"/>
      <point x="119" y="736" type="line"/>
    </contour>
  </outline>
</glyph>
<glyph name="a" format="2">
  <advance width="600"/>
  <unicode hex="0061"/>
  <anchor x="288" y="501" name="top"/>
  <anchor x="506" y="0" name="bottom"/>
  <outline>
    <contour>
      <point x="242" y="-9" type="curve" smooth="yes"/>
      <point x="301" y="-9"/>
      <point x="349" y="10"/>
      <point x="394" y="53" type="curve"/>
      <point x="394" y="0" type="line"/>
      <point x="506" y="0" type="line"/>
      <point x="506" y="321" type="line" smooth="yes"/>
      <point x="506" y="441"/>
      <point x="430" y="509"/>
      <point x="298" y="509" type="curve" smooth="yes"/>
      <point x="229" y="509"/>
      <point x="159" y="492"/>
      <point x="82" y="454" type="curve"/>
      <point x="125" y="372" type="line"/>
      <point x="185" y="403"/>
      <point x="232" y="415"/>
      <point x="276" y="415" type="curve" smooth="yes"/>
      <point x="355" y="415"/>
      <point x="394" y="380"/>
      <point x="394" y="309" type="curve" smooth="yes"/>
      <point x="394" y="259" type="line"/>
      <point x="349" y="281"/>
      <point x="304" y="291"/>
      <point x="256" y="291" type="curve" smooth="yes"/>
      <point x="136" y="291"/>
      <point x="62" y="234"/>
      <point x="62" y="143" type="curve" smooth="yes"/>
      <point x="62" y="53"/>
      <point x="136" y="-9"/>
    </contour>
    <contour>
      <point x="168" y="146" type="curve" smooth="yes"/>
      <point x="168" y="191"/>
      <point x="209" y="218"/>
      <point x="276" y="218" type="curve" smooth="yes"/>
      <point x="319" y="218"/>
      <point x="358" y="211"/>
      <point x="394" y="193" type="curve"/>
      <point x="394" y="114" type="line"/>
      <point x="360" y="84"/>
      <point x="319" y="70"/>
      <point x="273" y="70" type="curve"/>
      <point x="209" y="70"/>
      <point x="168" y="99"/>
    </contour>
  </outline>
</glyph>
<glyph name="b" format="2">
  <advance width="600"/>
  <unicode hex="0062"/>
  <outline>
    <contour>
      <point x="77" y="0" type="line"/>
      <point x="187" y="0" type="line"/>
      <point x="187" y="58" type="line"/>
      <point x="222" y="16"/>
      <point x="272" y="-7"/>
      <point x="329" y="-7" type="curve" smooth="yes"/>
      <point x="456" y="-7"/>
      <point x="556" y="105"/>
      <point x="556" y="250" type="curve" smooth="yes"/>
      <point x="556" y="395"/>
      <point x="455" y="508"/>
      <point x="327" y="508" type="curve" smooth="yes"/>
      <point x="273" y="508"/>
      <point x="226" y="486"/>
      <point x="190" y="447" type="curve"/>
      <point x="190" y="739" type="line"/>
      <point x="77" y="720" type="line"/>
    </contour>
    <contour>
      <point x="302" y="86" type="curve" smooth="yes"/>
      <point x="257" y="86"/>
      <point x="217" y="104"/>
      <point x="190" y="136" type="curve"/>
      <point x="190" y="364" type="line"/>
      <point x="217" y="395"/>
      <point x="258" y="415"/>
      <point x="302" y="415" type="curve" smooth="yes"/>
      <point x="386" y="415"/>
      <point x="444" y="346"/>
      <point x="444" y="250" type="curve" smooth="yes"/>
      <point x="444" y="154"/>
      <point x="386" y="86"/>
    </contour>
  </outline>
</glyph>
<glyph name="c" format="2">
  <advance width="600"/>
  <unicode hex="0063"/>
  <anchor x="312" y="501" name="top"/>
  <anchor x="311" y="0" name="bottom"/>
  <outline>
    <contour>
      <point x="313" y="-10" type="curve" smooth="yes"/>
      <point x="411" y="-10"/>
      <point x="494" y="36"/>
      <point x="540" y="107" type="curve"/>
      <point x="452" y="167" type="line"/>
      <point x="425" y="119"/>
      <point x="374" y="88"/>
      <point x="313" y="88" type="curve" smooth="yes"/>
      <point x="227" y="88"/>
      <point x="164" y="156"/>
      <point x="164" y="249" type="curve" smooth="yes"/>
      <point x="164" y="342"/>
      <point x="227" y="411"/>
      <point x="313" y="411" type="curve" smooth="yes"/>
      <point x="374" y="411"/>
      <point x="425" y="380"/>
      <point x="452" y="331" type="curve"/>
      <point x="540" y="392" type="line"/>
      <point x="494" y="463"/>
      <point x="411" y="509"/>
      <point x="313" y="509" type="curve" smooth="yes"/>
      <point x="165" y="509"/>
      <point x="51" y="397"/>
      <point x="51" y="249" type="curve" smooth="yes"/>
      <point x="51" y="102"/>
      <point x="165" y="-10"/>
    </contour>
  </outline>
</glyph>
<glyph name="e" format="2">
  <advance width="600"/>
  <unicode hex="0065"/>
  <anchor x="303" y="501" name="top"/>
  <anchor x="395" y="0" name="bottom"/>
  <outline>
    <contour>
      <point x="313" y="-10" type="curve" smooth="yes"/>
      <point x="396" y="-10"/>
      <point x="464" y="15"/>
      <point x="522" y="73" type="curve"/>
      <point x="447" y="140" type="line"/>
      <point x="417" y="104"/>
      <point x="371" y="83"/>
      <point x="319" y="83" type="curve" smooth="yes"/>
      <point x="238" y="83"/>
      <point x="175" y="142"/>
      <point x="164" y="223" type="curve"/>
      <point x="552" y="223" type="line"/>
      <point x="552" y="250" type="line"/>
      <point x="552" y="400"/>
      <point x="447" y="509"/>
      <point x="301" y="509" type="curve" smooth="yes"/>
      <point x="160" y="509"/>
      <point x="53" y="397"/>
      <point x="53" y="250" type="curve" smooth="yes"/>
      <point x="53" y="103"/>
      <point x="167" y="-10"/>
    </contour>
    <contour>
      <point x="165" y="294" type="line"/>
      <point x="180" y="368"/>
      <point x="233" y="417"/>
      <point x="303" y="417" type="curve" smooth="yes"/>
      <point x="376" y="417"/>
      <point x="431" y="367"/>
      <point x="444" y="294" type="curve"/>
    </contour>
  </outline>
</glyph>
<glyph name="f" format="2">
  <advance width="600"/>
  <unicode hex="0066"/>
  <outline>
    <contour>
      <point x="204" y="0" type="line"/>
      <point x="318" y="0" type="line"/>
      <point x="318" y="411" type="line"/>
      <point x="530" y="411" type="line"/>
      <point x="530" y="501" type="line"/>
      <point x="318" y="501" type="line"/>
      <point x="318" y="563" type="line" smooth="yes"/>
      <point x="318" y="632"/>
      <point x="347" y="658"/>
      <point x="410" y="658" type="curve" smooth="yes"/>
      <point x="449" y="658"/>
      <point x="480" y="654"/>
      <point x="530" y="637" type="curve"/>
      <point x="530" y="735" type="line"/>
      <point x="492" y="747"/>
      <point x="446" y="755"/>
      <point x="407" y="755" type="curve" smooth="yes"/>
      <point x="273" y="755"/>
      <point x="204" y="695"/>
      <point x="204" y="577" type="curve" smooth="yes"/>
      <point x="204" y="501" type="line"/>
      <point x="44" y="501" type="line"/>
      <point x="44" y="411" type="line"/>
      <point x="204" y="411" type="line"/>
    </contour>
  </outline>
</glyph>
<glyph name="g" format="2">
  <advance width="600"/>
  <unicode hex="0067"/>
  <anchor x="298" y="501" name="top"/>
  <outline>
    <contour>
      <point x="294" y="-219" type="curve" smooth="yes"/>
      <point x="442" y="-219"/>
      <point x="523" y="-147"/>
      <point x="523" y="-18" type="curve" smooth="yes"/>
      <point x="523" y="501" type="line"/>
      <point x="412" y="501" type="line"/>
      <point x="412" y="443" type="line"/>
      <point x="376" y="483"/>
      <point x="328" y="505"/>
      <point x="273" y="505" type="curve"/>
      <point x="145" y="505"/>
      <point x="44" y="393"/>
      <point x="44" y="251" type="curve" smooth="yes"/>
      <point x="44" y="109"/>
      <point x="142" y="-5"/>
      <point x="266" y="-5" type="curve" smooth="yes"/>
      <point x="324" y="-5"/>
      <point x="375" y="19"/>
      <point x="411" y="61" type="curve"/>
      <point x="411" y="-18" type="line" smooth="yes"/>
      <point x="411" y="-91"/>
      <point x="369" y="-129"/>
      <point x="290" y="-129" type="curve" smooth="yes"/>
      <point x="240" y="-129"/>
      <point x="192" y="-116"/>
      <point x="133" y="-87" type="curve"/>
      <point x="94" y="-170" type="line"/>
      <point x="152" y="-201"/>
      <point x="223" y="-219"/>
    </contour>
    <contour>
      <point x="298" y="88" type="curve" smooth="yes"/>
      <point x="214" y="88"/>
      <point x="156" y="157"/>
      <point x="156" y="250" type="curve" smooth="yes"/>
      <point x="156" y="344"/>
      <point x="214" y="412"/>
      <point x="298" y="412" type="curve"/>
      <point x="342" y="412"/>
      <point x="383" y="393"/>
      <point x="411" y="361" type="curve"/>
      <point x="411" y="140" type="line"/>
      <point x="383" y="107"/>
      <point x="344" y="88"/>
    </contour>
  </outline>
</glyph>
<glyph name="h" format="2">
  <advance width="600"/>
  <unicode hex="0068"/>
  <anchor x="136" y="700" name="top"/>
  <outline>
    <contour>
      <point x="81" y="0" type="line"/>
      <point x="194" y="0" type="line"/>
      <point x="194" y="363" type="line"/>
      <point x="220" y="399"/>
      <point x="256" y="418"/>
      <point x="299" y="418" type="curve" smooth="yes"/>
      <point x="366" y="418"/>
      <point x="409" y="371"/>
      <point x="409" y="298" type="curve" smooth="yes"/>
      <point x="409" y="0" type="line"/>
      <point x="523" y="0" type="line"/>
      <point x="523" y="330" type="line" smooth="yes"/>
      <point x="523" y="436"/>
      <point x="451" y="509"/>
      <point x="348" y="509" type="curve" smooth="yes"/>
      <point x="285" y="509"/>
      <point x="232" y="481"/>
      <point x="194" y="426" type="curve"/>
      <point x="194" y="737" type="line"/>
      <point x="81" y="717" type="line"/>
    </contour>
  </outline>
</glyph>
<glyph name="i" format="2">
  <advance width="600"/>
  <unicode hex="0069"/>
  <note>
Version created Wed Nov 11 16:21:20 2020
</note>
  <anchor x="298" y="501" name="top"/>
  <anchor x="494" y="0" name="bottom"/>
  <outline>
    <contour>
      <point x="297" y="599" type="curve" smooth="yes"/>
      <point x="341" y="599"/>
      <point x="377" y="636"/>
      <point x="377" y="680" type="curve" smooth="yes"/>
      <point x="377" y="724"/>
      <point x="341" y="760"/>
      <point x="297" y="760" type="curve" smooth="yes"/>
      <point x="252" y="760"/>
      <point x="216" y="724"/>
      <point x="216" y="680" type="curve" smooth="yes"/>
      <point x="216" y="636"/>
      <point x="252" y="599"/>
    </contour>
    <contour>
      <point x="425" y="-10" type="curve" smooth="yes"/>
      <point x="465" y="-10"/>
      <point x="511" y="0"/>
      <point x="542" y="13" type="curve"/>
      <point x="542" y="108" type="line"/>
      <point x="503" y="93"/>
      <point x="472" y="87"/>
      <point x="440" y="87" type="curve" smooth="yes"/>
      <point x="381" y="87"/>
      <point x="353" y="112"/>
      <point x="353" y="172" type="curve" smooth="yes"/>
      <point x="353" y="501" type="line"/>
      <point x="60" y="501" type="line"/>
      <point x="60" y="411" type="line"/>
      <point x="240" y="411" type="line"/>
      <point x="240" y="160" type="line" smooth="yes"/>
      <point x="240" y="47"/>
      <point x="304" y="-10"/>
    </contour>
  </outline>
</glyph>
<glyph name="k" format="2">
  <advance width="600"/>
  <unicode hex="006B"/>
  <anchor x="303" y="0" name="bottom"/>
  <outline>
    <contour>
      <point x="89" y="0" type="line"/>
      <point x="202" y="0" type="line"/>
      <point x="202" y="233" type="line"/>
      <point x="424" y="0" type="line"/>
      <point x="569" y="0" type="line"/>
      <point x="313" y="268" type="line"/>
      <point x="556" y="501" type="line"/>
      <point x="425" y="501" type="line"/>
      <point x="202" y="285" type="line"/>
      <point x="202" y="737" type="line"/>
      <point x="89" y="718" type="line"/>
    </contour>
  </outline>
</glyph>
<glyph name="m" format="2">
  <advance width="600"/>
  <unicode hex="006D"/>
  <outline>
    <contour>
      <point x="51" y="0" type="line"/>
      <point x="148" y="0" type="line"/>
      <point x="148" y="401" type="line"/>
      <point x="163" y="420"/>
      <point x="178" y="425"/>
      <point x="195" y="425" type="curve"/>
      <point x="232" y="425"/>
      <point x="254" y="395"/>
      <point x="254" y="348" type="curve"/>
      <point x="254" y="0" type="line"/>
      <point x="350" y="0" type="line"/>
      <point x="350" y="373" type="line" smooth="yes"/>
      <point x="350" y="382"/>
      <point x="350" y="390"/>
      <point x="348" y="398" type="curve"/>
      <point x="363" y="419"/>
      <point x="379" y="425"/>
      <point x="397" y="425" type="curve"/>
      <point x="434" y="425"/>
      <point x="455" y="395"/>
      <point x="455" y="348" type="curve"/>
      <point x="455" y="0" type="line"/>
      <point x="551" y="0" type="line"/>
      <point x="551" y="378" type="line" smooth="yes"/>
      <point x="551" y="455"/>
      <point x="505" y="508"/>
      <point x="439" y="508" type="curve"/>
      <point x="394" y="508"/>
      <point x="360" y="489"/>
      <point x="333" y="448" type="curve"/>
      <point x="314" y="486"/>
      <point x="279" y="508"/>
      <point x="236" y="508" type="curve"/>
      <point x="200" y="508"/>
      <point x="172" y="492"/>
      <point x="148" y="458" type="curve"/>
      <point x="148" y="501" type="line"/>
      <point x="51" y="501" type="line"/>
    </contour>
  </outline>
</glyph>
<glyph name="n" format="2">
  <advance width="600"/>
  <unicode hex="006E"/>
  <anchor x="300" y="501" name="top"/>
  <anchor x="300" y="0" name="bottom"/>
  <outline>
    <contour>
      <point x="81" y="0" type="line"/>
      <point x="194" y="0" type="line"/>
      <point x="194" y="363" type="line"/>
      <point x="220" y="399"/>
      <point x="256" y="418"/>
      <point x="299" y="418" type="curve" smooth="yes"/>
      <point x="366" y="418"/>
      <point x="409" y="371"/>
      <point x="409" y="298" type="curve" smooth="yes"/>
      <point x="409" y="0" type="line"/>
      <point x="523" y="0" type="line"/>
      <point x="523" y="330" type="line" smooth="yes"/>
      <point x="523" y="436"/>
      <point x="451" y="509"/>
      <point x="348" y="509" type="curve" smooth="yes"/>
      <point x="285" y="509"/>
      <point x="232" y="481"/>
      <point x="194" y="426" type="curve"/>
      <point x="194" y="501" type="line"/>
      <point x="81" y="501" type="line"/>
    </contour>
  </outline>
</glyph>
<glyph name="o" format="2">
  <advance width="600"/>
  <unicode hex="006F"/>
  <anchor x="300" y="501" name="top"/>
  <outline>
    <contour>
      <point x="300" y="-10" type="curve" smooth="yes"/>
      <point x="443" y="-10"/>
      <point x="551" y="102"/>
      <point x="551" y="249" type="curve" smooth="yes"/>
      <point x="551" y="397"/>
      <point x="443" y="509"/>
      <point x="300" y="509" type="curve" smooth="yes"/>
      <point x="157" y="509"/>
      <point x="49" y="397"/>
      <point x="49" y="249" type="curve" smooth="yes"/>
      <point x="49" y="102"/>
      <point x="157" y="-10"/>
    </contour>
    <contour>
      <point x="300" y="87" type="curve" smooth="yes"/>
      <point x="219" y="87"/>
      <point x="159" y="155"/>
      <point x="159" y="249" type="curve" smooth="yes"/>
      <point x="159" y="343"/>
      <point x="219" y="412"/>
      <point x="300" y="412" type="curve" smooth="yes"/>
      <point x="381" y="412"/>
      <point x="441" y="343"/>
      <point x="441" y="249" type="curve" smooth="yes"/>
      <point x="441" y="155"/>
      <point x="381" y="87"/>
    </contour>
  </outline>
</glyph>
<glyph name="q" format="2">
  <advance width="600"/>
  <unicode hex="0071"/>
  <outline>
    <contour>
      <point x="271" y="-7" type="curve" smooth="yes"/>
      <point x="327" y="-7"/>
      <point x="375" y="14"/>
      <point x="410" y="55" type="curve"/>
      <point x="410" y="-209" type="line"/>
      <point x="523" y="-209" type="line"/>
      <point x="523" y="501" type="line"/>
      <point x="413" y="501" type="line"/>
      <point x="413" y="445" type="line"/>
      <point x="377" y="485"/>
      <point x="328" y="508"/>
      <point x="274" y="508" type="curve" smooth="yes"/>
      <point x="146" y="508"/>
      <point x="45" y="395"/>
      <point x="45" y="250" type="curve" smooth="yes"/>
      <point x="45" y="105"/>
      <point x="145" y="-7"/>
    </contour>
    <contour>
      <point x="298" y="86" type="curve" smooth="yes"/>
      <point x="214" y="86"/>
      <point x="156" y="154"/>
      <point x="156" y="250" type="curve" smooth="yes"/>
      <point x="156" y="346"/>
      <point x="214" y="415"/>
      <point x="298" y="415" type="curve" smooth="yes"/>
      <point x="342" y="415"/>
      <point x="383" y="396"/>
      <point x="410" y="364" type="curve"/>
      <point x="410" y="135" type="line"/>
      <point x="383" y="103"/>
      <point x="343" y="86"/>
    </contour>
  </outline>
</glyph>
<glyph name="r" format="2">
  <advance width="600"/>
  <unicode hex="0072"/>
  <anchor x="382" y="501" name="top"/>
  <anchor x="257" y="0" name="bottom"/>
  <outline>
    <contour>
      <point x="77" y="0" type="line"/>
      <point x="446" y="0" type="line"/>
      <point x="446" y="89" type="line"/>
      <point x="314" y="89" type="line"/>
      <point x="314" y="319" type="line"/>
      <point x="343" y="376"/>
      <point x="400" y="409"/>
      <point x="465" y="409" type="curve" smooth="yes"/>
      <point x="496" y="409"/>
      <point x="530" y="403"/>
      <point x="559" y="391" type="curve"/>
      <point x="559" y="494" type="line"/>
      <point x="530" y="505"/>
      <point x="513" y="509"/>
      <point x="482" y="509" type="curve" smooth="yes"/>
      <point x="407" y="509"/>
      <point x="347" y="465"/>
      <point x="314" y="382" type="curve"/>
      <point x="314" y="501" type="line"/>
      <point x="77" y="501" type="line"/>
      <point x="77" y="411" type="line"/>
      <point x="201" y="411" type="line"/>
      <point x="201" y="89" type="line"/>
      <point x="77" y="89" type="line"/>
    </contour>
  </outline>
</glyph>
<glyph name="s" format="2">
  <advance width="600"/>
  <unicode hex="0073"/>
  <anchor x="292" y="501" name="top"/>
  <anchor x="298" y="0" name="bottom"/>
  <outline>
    <contour>
      <point x="296" y="-10" type="curve" smooth="yes"/>
      <point x="423" y="-10"/>
      <point x="520" y="57"/>
      <point x="520" y="151" type="curve" smooth="yes"/>
      <point x="520" y="354"/>
      <point x="185" y="258"/>
      <point x="185" y="364" type="curve" smooth="yes"/>
      <point x="185" y="400"/>
      <point x="224" y="422"/>
      <point x="289" y="422" type="curve" smooth="yes"/>
      <point x="344" y="422"/>
      <point x="400" y="408"/>
      <point x="454" y="371" type="curve"/>
      <point x="509" y="445" type="line"/>
      <point x="442" y="490"/>
      <point x="369" y="510"/>
      <point x="292" y="510" type="curve" smooth="yes"/>
      <point x="168" y="510"/>
      <point x="84" y="451"/>
      <point x="84" y="355" type="curve" smooth="yes"/>
      <point x="84" y="156"/>
      <point x="415" y="251"/>
      <point x="415" y="143" type="curve" smooth="yes"/>
      <point x="415" y="104"/>
      <point x="368" y="78"/>
      <point x="295" y="78" type="curve" smooth="yes"/>
      <point x="239" y="78"/>
      <point x="189" y="92"/>
      <point x="120" y="137" type="curve"/>
      <point x="65" y="62" type="line"/>
      <point x="121" y="14"/>
      <point x="203" y="-10"/>
    </contour>
  </outline>
</glyph>
<glyph name="u" format="2">
  <advance width="600"/>
  <unicode hex="0075"/>
  <anchor x="300" y="501" name="top"/>
  <anchor x="519" y="0" name="bottom"/>
  <outline>
    <contour>
      <point x="252" y="-8" type="curve" smooth="yes"/>
      <point x="316" y="-8"/>
      <point x="368" y="20"/>
      <point x="406" y="75" type="curve"/>
      <point x="406" y="0" type="line"/>
      <point x="519" y="0" type="line"/>
      <point x="519" y="501" type="line"/>
      <point x="406" y="501" type="line"/>
      <point x="406" y="137" type="line"/>
      <point x="380" y="102"/>
      <point x="344" y="83"/>
      <point x="301" y="83" type="curve" smooth="yes"/>
      <point x="234" y="83"/>
      <point x="191" y="130"/>
      <point x="191" y="204" type="curve" smooth="yes"/>
      <point x="191" y="501" type="line"/>
      <point x="77" y="501" type="line"/>
      <point x="77" y="171" type="line" smooth="yes"/>
      <point x="77" y="66"/>
      <point x="149" y="-8"/>
    </contour>
  </outline>
</glyph>
<glyph name="w" format="2">
  <advance width="600"/>
  <unicode hex="0077"/>
  <anchor x="301" y="501" name="top"/>
  <outline>
    <contour>
      <point x="125" y="0" type="line"/>
      <point x="221" y="0" type="line"/>
      <point x="301" y="353" type="line"/>
      <point x="382" y="0" type="line"/>
      <point x="476" y="0" type="line"/>
      <point x="572" y="501" type="line"/>
      <point x="484" y="501" type="line"/>
      <point x="428" y="157" type="line"/>
      <point x="345" y="501" type="line"/>
      <point x="259" y="501" type="line"/>
      <point x="178" y="157" type="line"/>
      <point x="121" y="501" type="line"/>
      <point x="28" y="501" type="line"/>
    </contour>
  </outline>
</glyph>
<glyph name="x" format="2">
  <advance width="600"/>
  <unicode hex="0078"/>
  <outline>
    <contour>
      <point x="38" y="0" type="line"/>
      <point x="165" y="0" type="line"/>
      <point x="297" y="177" type="line"/>
      <point x="429" y="0" type="line"/>
      <point x="562" y="0" type="line"/>
      <point x="366" y="255" type="line"/>
      <point x="556" y="501" type="line"/>
      <point x="429" y="501" type="line"/>
      <point x="302" y="333" type="line"/>
      <point x="177" y="501" type="line"/>
      <point x="44" y="501" type="line"/>
      <point x="233" y="256" type="line"/>
    </contour>
  </outline>
</glyph>
<glyph name="y" format="2">
  <advance width="600"/>
  <unicode hex="0079"/>
  <anchor x="301" y="501" name="top"/>
  <outline>
    <contour>
      <point x="129" y="-219" type="curve" smooth="yes"/>
      <point x="227" y="-219"/>
      <point x="275" y="-184"/>
      <point x="315" y="-87" type="curve" smooth="yes"/>
      <point x="561" y="501" type="line"/>
      <point x="440" y="501" type="line"/>
      <point x="295" y="126" type="line"/>
      <point x="159" y="501" type="line"/>
      <point x="35" y="501" type="line"/>
      <point x="230" y="-8" type="line"/>
      <point x="207" y="-63" type="line" smooth="yes"/>
      <point x="191" y="-102"/>
      <point x="161" y="-118"/>
      <point x="116" y="-118" type="curve"/>
      <point x="92" y="-118"/>
      <point x="76" y="-116"/>
      <point x="48" y="-110" type="curve"/>
      <point x="48" y="-210" type="line"/>
      <point x="75" y="-216"/>
      <point x="105" y="-219"/>
    </contour>
  </outline>
</glyph>
<glyph name="z" format="2">
  <advance width="600"/>
  <unicode hex="007A"/>
  <anchor x="296" y="501" name="top"/>
  <outline>
    <contour>
      <point x="72" y="0" type="line"/>
      <point x="524" y="0" type="line"/>
      <point x="524" y="97" type="line"/>
      <point x="219" y="96" type="line"/>
      <point x="518" y="418" type="line"/>
      <point x="518" y="501" type="line"/>
      <point x="74" y="501" type="line"/>
      <point x="74" y="402" type="line"/>
      <point x="369" y="404" type="line"/>
      <point x="72" y="83" type="line"/>
    </contour>
  </outline>
</glyph>
<glyph name="braceleft" format="2">
  <advance width="600"/>
  <unicode hex="007B"/>
  <outline>
    <contour>
      <point x="356" y="-221" type="curve" smooth="yes"/>
      <point x="396" y="-221"/>
      <point x="440" y="-215"/>
      <point x="484" y="-195" type="curve"/>
      <point x="460" y="-114" type="line"/>
      <point x="425" y="-128"/>
      <point x="396" y="-133"/>
      <point x="366" y="-133" type="curve" smooth="yes"/>
      <point x="319" y="-133"/>
      <point x="291" y="-107"/>
      <point x="291" y="-69" type="curve" smooth="yes"/>
      <point x="291" y="-13"/>
      <point x="366" y="70"/>
      <point x="366" y="132" type="curve" smooth="yes"/>
      <point x="366" y="185"/>
      <point x="326" y="231"/>
      <point x="268" y="245" type="curve"/>
      <point x="326" y="259"/>
      <point x="366" y="305"/>
      <point x="366" y="358" type="curve" smooth="yes"/>
      <point x="366" y="419"/>
      <point x="291" y="502"/>
      <point x="291" y="558" type="curve" smooth="yes"/>
      <point x="291" y="596"/>
      <point x="319" y="622"/>
      <point x="366" y="622" type="curve"/>
      <point x="396" y="622"/>
      <point x="425" y="618"/>
      <point x="460" y="603" type="curve"/>
      <point x="484" y="684" type="line"/>
      <point x="440" y="704"/>
      <point x="396" y="710"/>
      <point x="356" y="710" type="curve"/>
      <point x="261" y="710"/>
      <point x="195" y="649"/>
      <point x="195" y="570" type="curve" smooth="yes"/>
      <point x="195" y="488"/>
      <point x="272" y="417"/>
      <point x="272" y="359" type="curve" smooth="yes"/>
      <point x="272" y="318"/>
      <point x="238" y="288"/>
      <point x="186" y="288" type="curve" smooth="yes"/>
      <point x="109" y="288" type="line"/>
      <point x="109" y="201" type="line"/>
      <point x="186" y="201" type="line" smooth="yes"/>
      <point x="238" y="201"/>
      <point x="272" y="172"/>
      <point x="272" y="130" type="curve" smooth="yes"/>
      <point x="272" y="72"/>
      <point x="195" y="1"/>
      <point x="195" y="-80" type="curve" smooth="yes"/>
      <point x="195" y="-160"/>
      <point x="261" y="-221"/>
    </contour>
  </outline>
</glyph>
<glyph name="bar" format="2">
  <advance width="600"/>
  <unicode hex="007C"/>
  <outline>
    <contour>
      <point x="249" y="-209" type="line"/>
      <point x="351" y="-209" type="line"/>
      <point x="351" y="700" type="line"/>
      <point x="249" y="700" type="line"/>
    </contour>
  </outline>
</glyph>
<glyph name="asciitilde" format="2">
  <advance width="600"/>
  <unicode hex="007E"/>
  <outline>
    <contour>
      <point x="126" y="291" type="line"/>
      <point x="133" y="347"/>
      <point x="154" y="374"/>
      <point x="189" y="374" type="curve" smooth="yes"/>
      <point x="205" y="374"/>
      <point x="219" y="369"/>
      <point x="250" y="354" type="curve" smooth="yes"/>
      <point x="331" y="312" type="line" smooth="yes"/>
      <point x="363" y="295"/>
      <point x="393" y="287"/>
      <point x="421" y="287" type="curve" smooth="yes"/>
      <point x="493" y="287"/>
      <point x="541" y="344"/>
      <point x="553" y="448" type="curve"/>
      <point x="475" y="457" type="line"/>
      <point x="468" y="402"/>
      <point x="446" y="374"/>
      <point x="410" y="374" type="curve" smooth="yes"/>
      <point x="395" y="374"/>
      <point x="379" y="379"/>
      <point x="350" y="394" type="curve" smooth="yes"/>
      <point x="269" y="435" type="line" smooth="yes"/>
      <point x="235" y="454"/>
      <point x="207" y="462"/>
      <point x="179" y="462" type="curve" smooth="yes"/>
      <point x="106" y="462"/>
      <point x="59" y="404"/>
      <point x="47" y="300" type="curve"/>
    </contour>
  </outline>
</glyph>
<glyph name="cent" format="2">
  <advance width="600"/>
  <unicode hex="00A2"/>
  <outline>
    <contour>
      <point x="281" y="-115" type="line"/>
      <point x="341" y="-115" type="line"/>
      <point x="341" y="-8" type="line"/>
      <point x="420" y="-2"/>
      <point x="488" y="32"/>
      <point x="528" y="86" type="curve"/>
      <point x="448" y="152" type="line"/>
      <point x="423" y="120"/>
      <point x="386" y="96"/>
      <point x="341" y="90" type="curve"/>
      <point x="341" y="410" type="line"/>
      <point x="385" y="404"/>
      <point x="423" y="381"/>
      <point x="448" y="349" type="curve"/>
      <point x="528" y="414" type="line"/>
      <point x="488" y="468"/>
      <point x="420" y="502"/>
      <point x="341" y="508" type="curve"/>
      <point x="341" y="615" type="line"/>
      <point x="281" y="615" type="line"/>
      <point x="281" y="506" type="line"/>
      <point x="150" y="489"/>
      <point x="56" y="384"/>
      <point x="56" y="250" type="curve" smooth="yes"/>
      <point x="56" y="116"/>
      <point x="150" y="10"/>
      <point x="281" y="-6" type="curve"/>
    </contour>
    <contour>
      <point x="168" y="250" type="curve" smooth="yes"/>
      <point x="168" y="328"/>
      <point x="214" y="389"/>
      <point x="281" y="406" type="curve"/>
      <point x="281" y="93" type="line"/>
      <point x="214" y="110"/>
      <point x="168" y="172"/>
    </contour>
  </outline>
</glyph>
<glyph name="sterling" format="2">
  <advance width="600"/>
  <unicode hex="00A3"/>
  <outline>
    <contour>
      <point x="64" y="288" type="line"/>
      <point x="172" y="288" type="line"/>
      <point x="183" y="254"/>
      <point x="190" y="223"/>
      <point x="190" y="197" type="curve" smooth="yes"/>
      <point x="190" y="169"/>
      <point x="183" y="146"/>
      <point x="168" y="131" type="curve"/>
      <point x="109" y="126"/>
      <point x="61" y="88"/>
      <point x="24" y="24" type="curve"/>
      <point x="107" y="-28" type="line"/>
      <point x="130" y="14"/>
      <point x="158" y="37"/>
      <point x="195" y="37" type="curve" smooth="yes"/>
      <point x="270" y="37"/>
      <point x="349" y="-25"/>
      <point x="436" y="-25" type="curve" smooth="yes"/>
      <point x="501" y="-25"/>
      <point x="554" y="8"/>
      <point x="592" y="75" type="curve"/>
      <point x="508" y="127" type="line"/>
      <point x="488" y="90"/>
      <point x="462" y="72"/>
      <point x="424" y="72" type="curve" smooth="yes"/>
      <point x="373" y="72"/>
      <point x="319" y="101"/>
      <point x="262" y="118" type="curve"/>
      <point x="280" y="142"/>
      <point x="290" y="175"/>
      <point x="290" y="213" type="curve" smooth="yes"/>
      <point x="290" y="236"/>
      <point x="285" y="262"/>
      <point x="278" y="288" type="curve"/>
      <point x="401" y="288" type="line"/>
      <point x="401" y="357" type="line"/>
      <point x="257" y="357" type="line"/>
      <point x="243" y="405"/>
      <point x="228" y="454"/>
      <point x="228" y="498" type="curve"/>
      <point x="228" y="573"/>
      <point x="268" y="617"/>
      <point x="330" y="617" type="curve" smooth="yes"/>
      <point x="387" y="617"/>
      <point x="425" y="580"/>
      <point x="451" y="505" type="curve"/>
      <point x="549" y="540" type="line"/>
      <point x="511" y="652"/>
      <point x="441" y="711"/>
      <point x="327" y="711" type="curve" smooth="yes"/>
      <point x="205" y="711"/>
      <point x="122" y="626"/>
      <point x="122" y="495" type="curve"/>
      <point x="122" y="452"/>
      <point x="135" y="404"/>
      <point x="150" y="357" type="curve"/>
      <point x="64" y="357" type="line"/>
    </contour>
  </outline>
</glyph>
<glyph name="uni00A4" format="2">
  <advance width="600"/>
  <unicode hex="00A4"/>
  <outline>
    <contour>
      <point x="48" y="52" type="line"/>
      <point x="143" y="148" type="line"/>
      <point x="187" y="116"/>
      <point x="241" y="97"/>
      <point x="300" y="97" type="curve" smooth="yes"/>
      <point x="359" y="97"/>
      <point x="412" y="116"/>
      <point x="456" y="147" type="curve"/>
      <point x="553" y="51" type="line"/>
      <point x="609" y="108" type="line"/>
      <point x="513" y="204" type="line"/>
      <point x="546" y="247"/>
      <point x="565" y="302"/>
      <point x="565" y="362" type="curve" smooth="yes"/>
      <point x="565" y="423"/>
      <point x="545" y="478"/>
      <point x="512" y="522" type="curve"/>
      <point x="608" y="618" type="line"/>
      <point x="552" y="673" type="line"/>
      <point x="456" y="577" type="line"/>
      <point x="412" y="609"/>
      <point x="359" y="627"/>
      <point x="300" y="627" type="curve" smooth="yes"/>
      <point x="242" y="627"/>
      <point x="188" y="609"/>
      <point x="144" y="577" type="curve"/>
      <point x="48" y="674" type="line"/>
      <point x="-9" y="617" type="line"/>
      <point x="86" y="521" type="line"/>
      <point x="54" y="477"/>
      <point x="34" y="423"/>
      <point x="34" y="362" type="curve" smooth="yes"/>
      <point x="34" y="302"/>
      <point x="54" y="247"/>
      <point x="86" y="203" type="curve"/>
      <point x="-8" y="109" type="line"/>
    </contour>
    <contour>
      <point x="300" y="195" type="curve" smooth="yes"/>
      <point x="212" y="195"/>
      <point x="141" y="268"/>
      <point x="141" y="362" type="curve" smooth="yes"/>
      <point x="141" y="456"/>
      <point x="212" y="530"/>
      <point x="300" y="530" type="curve" smooth="yes"/>
      <point x="388" y="530"/>
      <point x="459" y="456"/>
      <point x="459" y="362" type="curve" smooth="yes"/>
      <point x="459" y="268"/>
      <point x="388" y="195"/>
    </contour>
  </outline>
</glyph>
<glyph name="yen" format="2">
  <advance width="600"/>
  <unicode hex="00A5"/>
  <outline>
    <contour>
      <point x="71" y="132" type="line"/>
      <point x="240" y="132" type="line"/>
      <point x="240" y="0" type="line"/>
      <point x="360" y="0" type="line"/>
      <point x="360" y="132" type="line"/>
      <point x="529" y="132" type="line"/>
      <point x="529" y="197" type="line"/>
      <point x="360" y="197" type="line"/>
      <point x="360" y="265" type="line"/>
      <point x="529" y="265" type="line"/>
      <point x="529" y="330" type="line"/>
      <point x="380" y="330" type="line"/>
      <point x="590" y="700" type="line"/>
      <point x="468" y="700" type="line"/>
      <point x="303" y="397" type="line"/>
      <point x="139" y="700" type="line"/>
      <point x="10" y="700" type="line"/>
      <point x="220" y="330" type="line"/>
      <point x="71" y="330" type="line"/>
      <point x="71" y="265" type="line"/>
      <point x="240" y="265" type="line"/>
      <point x="240" y="197" type="line"/>
      <point x="71" y="197" type="line"/>
    </contour>
  </outline>
</glyph>
<glyph name="section" format="2">
  <advance width="600"/>
  <unicode hex="00A7"/>
  <outline>
    <contour>
      <point x="292" y="-51" type="curve" smooth="yes"/>
      <point x="401" y="-51"/>
      <point x="473" y="7"/>
      <point x="473" y="96" type="curve" smooth="yes"/>
      <point x="473" y="135"/>
      <point x="460" y="165"/>
      <point x="434" y="189" type="curve"/>
      <point x="494" y="211"/>
      <point x="530" y="258"/>
      <point x="530" y="319" type="curve" smooth="yes"/>
      <point x="530" y="394"/>
      <point x="493" y="433"/>
      <point x="389" y="469" type="curve" smooth="yes"/>
      <point x="289" y="504" type="line" smooth="yes"/>
      <point x="245" y="519"/>
      <point x="226" y="539"/>
      <point x="226" y="570" type="curve" smooth="yes"/>
      <point x="226" y="610"/>
      <point x="256" y="634"/>
      <point x="307" y="634" type="curve" smooth="yes"/>
      <point x="348" y="634"/>
      <point x="396" y="618"/>
      <point x="449" y="586" type="curve"/>
      <point x="492" y="657" type="line"/>
      <point x="433" y="692"/>
      <point x="369" y="711"/>
      <point x="308" y="711" type="curve" smooth="yes"/>
      <point x="199" y="711"/>
      <point x="127" y="651"/>
      <point x="127" y="562" type="curve" smooth="yes"/>
      <point x="127" y="523"/>
      <point x="140" y="493"/>
      <point x="167" y="468" type="curve"/>
      <point x="106" y="448"/>
      <point x="70" y="402"/>
      <point x="70" y="340" type="curve" smooth="yes"/>
      <point x="70" y="265"/>
      <point x="107" y="226"/>
      <point x="210" y="191" type="curve" smooth="yes"/>
      <point x="312" y="155" type="line" smooth="yes"/>
      <point x="357" y="139"/>
      <point x="374" y="120"/>
      <point x="374" y="89" type="curve" smooth="yes"/>
      <point x="374" y="50"/>
      <point x="344" y="25"/>
      <point x="293" y="25" type="curve" smooth="yes"/>
      <point x="252" y="25"/>
      <point x="205" y="41"/>
      <point x="151" y="73" type="curve"/>
      <point x="108" y="1" type="line"/>
      <point x="165" y="-33"/>
      <point x="229" y="-51"/>
    </contour>
    <contour>
      <point x="346" y="238" type="curve" smooth="yes"/>
      <point x="235" y="275" type="line" smooth="yes"/>
      <point x="183" y="294"/>
      <point x="162" y="316"/>
      <point x="162" y="351" type="curve" smooth="yes"/>
      <point x="162" y="392"/>
      <point x="191" y="420"/>
      <point x="239" y="426" type="curve"/>
      <point x="244" y="424"/>
      <point x="249" y="422"/>
      <point x="254" y="421" type="curve" smooth="yes"/>
      <point x="365" y="383" type="line" smooth="yes"/>
      <point x="416" y="365"/>
      <point x="438" y="342"/>
      <point x="438" y="307" type="curve" smooth="yes"/>
      <point x="438" y="268"/>
      <point x="408" y="240"/>
      <point x="360" y="233" type="curve"/>
      <point x="356" y="235"/>
      <point x="351" y="237"/>
    </contour>
  </outline>
</glyph>
<glyph name="copyright" format="2">
  <advance width="600"/>
  <unicode hex="00A9"/>
  <outline>
    <contour>
      <point x="305" y="163" type="curve" smooth="yes"/>
      <point x="356" y="163"/>
      <point x="405" y="185"/>
      <point x="438" y="224" type="curve"/>
      <point x="391" y="279" type="line"/>
      <point x="367" y="250"/>
      <point x="339" y="235"/>
      <point x="307" y="235" type="curve" smooth="yes"/>
      <point x="255" y="235"/>
      <point x="213" y="282"/>
      <point x="213" y="350" type="curve" smooth="yes"/>
      <point x="213" y="419"/>
      <point x="255" y="466"/>
      <point x="307" y="466" type="curve" smooth="yes"/>
      <point x="339" y="466"/>
      <point x="367" y="451"/>
      <point x="391" y="422" type="curve"/>
      <point x="438" y="476" type="line"/>
      <point x="405" y="516"/>
      <point x="356" y="538"/>
      <point x="305" y="538" type="curve" smooth="yes"/>
      <point x="212" y="538"/>
      <point x="138" y="458"/>
      <point x="138" y="350" type="curve" smooth="yes"/>
      <point x="138" y="242"/>
      <point x="212" y="163"/>
    </contour>
    <contour>
      <point x="300" y="-11" type="curve" smooth="yes"/>
      <point x="460" y="-11"/>
      <point x="584" y="140"/>
      <point x="584" y="350" type="curve" smooth="yes"/>
      <point x="584" y="560"/>
      <point x="460" y="711"/>
      <point x="300" y="711" type="curve" smooth="yes"/>
      <point x="140" y="711"/>
      <point x="16" y="560"/>
      <point x="16" y="350" type="curve" smooth="yes"/>
      <point x="16" y="140"/>
      <point x="140" y="-11"/>
    </contour>
    <contour>
      <point x="300" y="39" type="curve" smooth="yes"/>
      <point x="167" y="39"/>
      <point x="68" y="173"/>
      <point x="68" y="350" type="curve" smooth="yes"/>
      <point x="68" y="527"/>
      <point x="167" y="661"/>
      <point x="300" y="661" type="curve" smooth="yes"/>
      <point x="433" y="661"/>
      <point x="532" y="527"/>
      <point x="532" y="350" type="curve" smooth="yes"/>
      <point x="532" y="173"/>
      <point x="433" y="39"/>
    </contour>
  </outline>
</glyph>
<glyph name="ordfeminine" format="2">
  <advance width="600"/>
  <unicode hex="00AA"/>
  <outline>
    <contour>
      <point x="246" y="309" type="curve" smooth="yes"/>
      <point x="290" y="309"/>
      <point x="326" y="323"/>
      <point x="361" y="352" type="curve"/>
      <point x="361" y="316" type="line"/>
      <point x="451" y="316" type="line"/>
      <point x="451" y="569" type="line" smooth="yes"/>
      <point x="451" y="659"/>
      <point x="392" y="711"/>
      <point x="288" y="711" type="curve" smooth="yes"/>
      <point x="236" y="711"/>
      <point x="184" y="699"/>
      <point x="122" y="670" type="curve"/>
      <point x="155" y="602" type="line"/>
      <point x="205" y="624"/>
      <point x="241" y="634"/>
      <point x="274" y="634" type="curve" smooth="yes"/>
      <point x="331" y="634"/>
      <point x="361" y="610"/>
      <point x="361" y="561" type="curve" smooth="yes"/>
      <point x="361" y="525" type="line"/>
      <point x="329" y="538"/>
      <point x="296" y="545"/>
      <point x="262" y="545" type="curve" smooth="yes"/>
      <point x="163" y="545"/>
      <point x="104" y="501"/>
      <point x="104" y="428" type="curve" smooth="yes"/>
      <point x="104" y="358"/>
      <point x="162" y="309"/>
    </contour>
    <contour>
      <point x="268" y="376" type="curve" smooth="yes"/>
      <point x="222" y="376"/>
      <point x="191" y="397"/>
      <point x="191" y="430" type="curve" smooth="yes"/>
      <point x="191" y="463"/>
      <point x="222" y="484"/>
      <point x="272" y="484" type="curve" smooth="yes"/>
      <point x="306" y="484"/>
      <point x="334" y="479"/>
      <point x="361" y="466" type="curve"/>
      <point x="361" y="405" type="line"/>
      <point x="336" y="386"/>
      <point x="305" y="376"/>
    </contour>
  </outline>
</glyph>
<glyph name="guillemotleft" format="2">
  <advance width="600"/>
  <unicode hex="00AB"/>
  <outline>
    <contour>
      <point x="225" y="0" type="line"/>
      <point x="341" y="0" type="line"/>
      <point x="144" y="253" type="line"/>
      <point x="341" y="501" type="line"/>
      <point x="228" y="501" type="line"/>
      <point x="27" y="251" type="line"/>
    </contour>
    <contour>
      <point x="465" y="0" type="line"/>
      <point x="581" y="0" type="line"/>
      <point x="384" y="253" type="line"/>
      <point x="581" y="501" type="line"/>
      <point x="468" y="501" type="line"/>
      <point x="267" y="251" type="line"/>
    </contour>
  </outline>
</glyph>
<glyph name="uni00AC" format="2">
  <advance width="600"/>
  <unicode hex="00AC"/>
  <outline>
    <contour>
      <point x="443" y="0" type="line"/>
      <point x="533" y="0" type="line"/>
      <point x="533" y="332" type="line"/>
      <point x="67" y="332" type="line"/>
      <point x="67" y="245" type="line"/>
      <point x="443" y="245" type="line"/>
    </contour>
  </outline>
</glyph>
<glyph name="registered" format="2">
  <advance width="600"/>
  <unicode hex="00AE"/>
  <outline>
    <contour>
      <point x="300" y="302" type="curve" smooth="yes"/>
      <point x="409" y="302"/>
      <point x="495" y="392"/>
      <point x="495" y="506" type="curve" smooth="yes"/>
      <point x="495" y="621"/>
      <point x="409" y="711"/>
      <point x="300" y="711" type="curve" smooth="yes"/>
      <point x="191" y="711"/>
      <point x="105" y="621"/>
      <point x="105" y="506" type="curve" smooth="yes"/>
      <point x="105" y="392"/>
      <point x="191" y="302"/>
    </contour>
    <contour>
      <point x="300" y="342" type="curve" smooth="yes"/>
      <point x="213" y="342"/>
      <point x="148" y="411"/>
      <point x="148" y="506" type="curve" smooth="yes"/>
      <point x="148" y="601"/>
      <point x="213" y="671"/>
      <point x="300" y="671" type="curve" smooth="yes"/>
      <point x="387" y="671"/>
      <point x="452" y="601"/>
      <point x="452" y="506" type="curve" smooth="yes"/>
      <point x="452" y="411"/>
      <point x="387" y="342"/>
    </contour>
    <contour>
      <point x="233" y="413" type="line"/>
      <point x="274" y="413" type="line"/>
      <point x="274" y="482" type="line"/>
      <point x="301" y="482" type="line"/>
      <point x="338" y="413" type="line"/>
      <point x="382" y="413" type="line"/>
      <point x="340" y="490" type="line"/>
      <point x="360" y="501"/>
      <point x="371" y="521"/>
      <point x="371" y="542" type="curve" smooth="yes"/>
      <point x="371" y="578"/>
      <point x="348" y="601"/>
      <point x="311" y="601" type="curve" smooth="yes"/>
      <point x="233" y="601" type="line"/>
    </contour>
    <contour>
      <point x="304" y="568" type="line" smooth="yes"/>
      <point x="322" y="568"/>
      <point x="331" y="558"/>
      <point x="331" y="541" type="curve" smooth="yes"/>
      <point x="331" y="523"/>
      <point x="320" y="513"/>
      <point x="303" y="513" type="curve" smooth="yes"/>
      <point x="274" y="513" type="line"/>
      <point x="274" y="568" type="line"/>
    </contour>
  </outline>
</glyph>
<glyph name="macron" format="2">
  <advance width="600"/>
  <unicode hex="00AF"/>
  <outline>
    <contour>
      <point x="151" y="629" type="line"/>
      <point x="450" y="629" type="line"/>
      <point x="450" y="702" type="line"/>
      <point x="151" y="702" type="line"/>
    </contour>
  </outline>
</glyph>
<glyph name="degree" format="2">
  <advance width="600"/>
  <unicode hex="00B0"/>
  <outline>
    <contour>
      <point x="300" y="418" type="curve" smooth="yes"/>
      <point x="384" y="418"/>
      <point x="448" y="484"/>
      <point x="448" y="564" type="curve" smooth="yes"/>
      <point x="448" y="644"/>
      <point x="384" y="711"/>
      <point x="300" y="711" type="curve" smooth="yes"/>
      <point x="216" y="711"/>
      <point x="152" y="644"/>
      <point x="152" y="564" type="curve" smooth="yes"/>
      <point x="152" y="484"/>
      <point x="216" y="418"/>
    </contour>
    <contour>
      <point x="300" y="481" type="curve" smooth="yes"/>
      <point x="254" y="481"/>
      <point x="217" y="519"/>
      <point x="217" y="564" type="curve" smooth="yes"/>
      <point x="217" y="610"/>
      <point x="254" y="648"/>
      <point x="300" y="648" type="curve" smooth="yes"/>
      <point x="346" y="648"/>
      <point x="383" y="610"/>
      <point x="383" y="564" type="curve" smooth="yes"/>
      <point x="383" y="519"/>
      <point x="346" y="481"/>
    </contour>
  </outline>
</glyph>
<glyph name="plusminus" format="2">
  <advance width="600"/>
  <unicode hex="00B1"/>
  <outline>
    <contour>
      <point x="255" y="189" type="line"/>
      <point x="345" y="189" type="line"/>
      <point x="345" y="354" type="line"/>
      <point x="510" y="354" type="line"/>
      <point x="510" y="441" type="line"/>
      <point x="345" y="441" type="line"/>
      <point x="345" y="605" type="line"/>
      <point x="255" y="605" type="line"/>
      <point x="255" y="441" type="line"/>
      <point x="90" y="441" type="line"/>
      <point x="90" y="354" type="line"/>
      <point x="255" y="354" type="line"/>
    </contour>
    <contour>
      <point x="90" y="-1" type="line"/>
      <point x="510" y="-1" type="line"/>
      <point x="510" y="86" type="line"/>
      <point x="90" y="86" type="line"/>
    </contour>
  </outline>
</glyph>
<glyph name="acute" format="2">
  <advance width="600"/>
  <unicode hex="00B4"/>
  <anchor x="300" y="501" name="_top"/>
  <outline>
    <contour>
      <point x="221" y="603" type="line"/>
      <point x="320" y="603" type="line"/>
      <point x="486" y="736" type="line"/>
      <point x="344" y="736" type="line"/>
    </contour>
  </outline>
</glyph>
<glyph name="uni00B5" format="2">
  <advance width="600"/>
  <unicode hex="00B5"/>
  <outline>
    <contour>
      <point x="81" y="-209" type="line"/>
      <point x="194" y="-209" type="line"/>
      <point x="194" y="12" type="line"/>
      <point x="214" y="-1"/>
      <point x="237" y="-8"/>
      <point x="264" y="-8" type="curve" smooth="yes"/>
      <point x="324" y="-8"/>
      <point x="374" y="20"/>
      <point x="409" y="73" type="curve"/>
      <point x="409" y="0" type="line"/>
      <point x="523" y="0" type="line"/>
      <point x="523" y="501" type="line"/>
      <point x="409" y="501" type="line"/>
      <point x="409" y="138" type="line"/>
      <point x="384" y="102"/>
      <point x="348" y="83"/>
      <point x="305" y="83" type="curve" smooth="yes"/>
      <point x="237" y="83"/>
      <point x="194" y="130"/>
      <point x="194" y="203" type="curve"/>
      <point x="194" y="501" type="line"/>
      <point x="81" y="501" type="line"/>
    </contour>
  </outline>
</glyph>
<glyph name="paragraph" format="2">
  <advance width="600"/>
  <unicode hex="00B6"/>
  <outline>
    <contour>
      <point x="271" y="0" type="line"/>
      <point x="364" y="0" type="line"/>
      <point x="364" y="264" type="line"/>
      <point x="460" y="264" type="line"/>
      <point x="460" y="0" type="line"/>
      <point x="552" y="0" type="line"/>
      <point x="552" y="700" type="line"/>
      <point x="239" y="700" type="line" smooth="yes"/>
      <point x="108" y="700"/>
      <point x="22" y="614"/>
      <point x="22" y="482" type="curve" smooth="yes"/>
      <point x="22" y="350"/>
      <point x="108" y="264"/>
      <point x="239" y="264" type="curve" smooth="yes"/>
      <point x="271" y="264" type="line"/>
    </contour>
    <contour>
      <point x="460" y="353" type="line"/>
      <point x="364" y="353" type="line"/>
      <point x="364" y="611" type="line"/>
      <point x="460" y="611" type="line"/>
    </contour>
    <contour>
      <point x="239" y="353" type="line" smooth="yes"/>
      <point x="163" y="353"/>
      <point x="116" y="402"/>
      <point x="116" y="482" type="curve" smooth="yes"/>
      <point x="116" y="562"/>
      <point x="163" y="611"/>
      <point x="239" y="611" type="curve" smooth="yes"/>
      <point x="271" y="611" type="line"/>
      <point x="271" y="353" type="line"/>
    </contour>
  </outline>
</glyph>
<glyph name="periodcentered" format="2">
  <advance width="600"/>
  <unicode hex="00B7"/>
  <outline>
    <contour>
      <point x="300" y="214" type="curve" smooth="yes"/>
      <point x="347" y="214"/>
      <point x="384" y="251"/>
      <point x="384" y="297" type="curve" smooth="yes"/>
      <point x="384" y="344"/>
      <point x="347" y="381"/>
      <point x="300" y="381" type="curve" smooth="yes"/>
      <point x="253" y="381"/>
      <point x="216" y="344"/>
      <point x="216" y="297" type="curve" smooth="yes"/>
      <point x="216" y="251"/>
      <point x="253" y="214"/>
    </contour>
  </outline>
</glyph>
<glyph name="ordmasculine" format="2">
  <advance width="600"/>
  <unicode hex="00BA"/>
  <outline>
    <contour>
      <point x="297" y="307" type="curve" smooth="yes"/>
      <point x="412" y="307"/>
      <point x="502" y="396"/>
      <point x="502" y="509" type="curve" smooth="yes"/>
      <point x="502" y="622"/>
      <point x="412" y="711"/>
      <point x="297" y="711" type="curve" smooth="yes"/>
      <point x="183" y="711"/>
      <point x="93" y="622"/>
      <point x="93" y="509" type="curve" smooth="yes"/>
      <point x="93" y="396"/>
      <point x="183" y="307"/>
    </contour>
    <contour>
      <point x="297" y="387" type="curve" smooth="yes"/>
      <point x="233" y="387"/>
      <point x="183" y="440"/>
      <point x="183" y="509" type="curve" smooth="yes"/>
      <point x="183" y="578"/>
      <point x="233" y="631"/>
      <point x="297" y="631" type="curve" smooth="yes"/>
      <point x="361" y="631"/>
      <point x="412" y="578"/>
      <point x="412" y="509" type="curve" smooth="yes"/>
      <point x="412" y="440"/>
      <point x="361" y="387"/>
    </contour>
  </outline>
</glyph>
<glyph name="onequarter" format="2">
  <advance width="600"/>
  <unicode hex="00BC"/>
  <outline>
    <contour>
      <point x="106" y="416" type="line"/>
      <point x="172" y="416" type="line"/>
      <point x="172" y="700" type="line"/>
      <point x="131" y="700" type="line"/>
      <point x="49" y="666" type="line"/>
      <point x="49" y="609" type="line"/>
      <point x="106" y="632" type="line"/>
    </contour>
    <contour>
      <point x="469" y="0" type="line"/>
      <point x="534" y="0" type="line"/>
      <point x="534" y="63" type="line"/>
      <point x="568" y="63" type="line"/>
      <point x="568" y="115" type="line"/>
      <point x="534" y="115" type="line"/>
      <point x="534" y="284" type="line"/>
      <point x="458" y="284" type="line"/>
      <point x="316" y="116" type="line"/>
      <point x="316" y="63" type="line"/>
      <point x="469" y="63" type="line"/>
    </contour>
    <contour>
      <point x="381" y="115" type="line"/>
      <point x="469" y="217" type="line"/>
      <point x="469" y="115" type="line"/>
    </contour>
    <component base="fraction"/>
  </outline>
</glyph>
<glyph name="onehalf" format="2">
  <advance width="600"/>
  <unicode hex="00BD"/>
  <outline>
    <contour>
      <point x="106" y="416" type="line"/>
      <point x="172" y="416" type="line"/>
      <point x="172" y="700" type="line"/>
      <point x="131" y="700" type="line"/>
      <point x="49" y="666" type="line"/>
      <point x="49" y="609" type="line"/>
      <point x="106" y="632" type="line"/>
    </contour>
    <contour>
      <point x="344" y="0" type="line"/>
      <point x="550" y="0" type="line"/>
      <point x="550" y="55" type="line"/>
      <point x="429" y="55" type="line"/>
      <point x="505" y="127" type="line" smooth="yes"/>
      <point x="534" y="153"/>
      <point x="546" y="176"/>
      <point x="546" y="203" type="curve" smooth="yes"/>
      <point x="546" y="252"/>
      <point x="506" y="288"/>
      <point x="443" y="288" type="curve" smooth="yes"/>
      <point x="403" y="288"/>
      <point x="365" y="271"/>
      <point x="332" y="240" type="curve"/>
      <point x="368" y="196" type="line"/>
      <point x="399" y="225"/>
      <point x="420" y="230"/>
      <point x="441" y="230" type="curve" smooth="yes"/>
      <point x="467" y="230"/>
      <point x="483" y="216"/>
      <point x="483" y="198" type="curve"/>
      <point x="483" y="184"/>
      <point x="477" y="174"/>
      <point x="461" y="158" type="curve" smooth="yes"/>
      <point x="344" y="47" type="line"/>
    </contour>
    <component base="fraction"/>
  </outline>
</glyph>
<glyph name="threequarters" format="2">
  <advance width="600"/>
  <unicode hex="00BE"/>
  <outline>
    <contour>
      <point x="140" y="413" type="curve" smooth="yes"/>
      <point x="207" y="413"/>
      <point x="255" y="448"/>
      <point x="255" y="497" type="curve" smooth="yes"/>
      <point x="255" y="529"/>
      <point x="231" y="552"/>
      <point x="194" y="560" type="curve"/>
      <point x="227" y="570"/>
      <point x="248" y="594"/>
      <point x="248" y="624" type="curve" smooth="yes"/>
      <point x="248" y="672"/>
      <point x="204" y="705"/>
      <point x="141" y="705" type="curve" smooth="yes"/>
      <point x="101" y="705"/>
      <point x="58" y="689"/>
      <point x="30" y="661" type="curve"/>
      <point x="71" y="618" type="line"/>
      <point x="96" y="639"/>
      <point x="114" y="647"/>
      <point x="139" y="647" type="curve" smooth="yes"/>
      <point x="164" y="647"/>
      <point x="182" y="634"/>
      <point x="182" y="615" type="curve" smooth="yes"/>
      <point x="182" y="595"/>
      <point x="166" y="583"/>
      <point x="139" y="583" type="curve"/>
      <point x="115" y="583" type="line"/>
      <point x="115" y="531" type="line"/>
      <point x="147" y="531" type="line"/>
      <point x="173" y="531"/>
      <point x="189" y="520"/>
      <point x="189" y="501" type="curve" smooth="yes"/>
      <point x="189" y="482"/>
      <point x="169" y="470"/>
      <point x="139" y="470" type="curve" smooth="yes"/>
      <point x="112" y="470"/>
      <point x="91" y="478"/>
      <point x="66" y="499" type="curve"/>
      <point x="27" y="453" type="line"/>
      <point x="56" y="427"/>
      <point x="96" y="413"/>
    </contour>
    <contour>
      <point x="469" y="0" type="line"/>
      <point x="534" y="0" type="line"/>
      <point x="534" y="63" type="line"/>
      <point x="568" y="63" type="line"/>
      <point x="568" y="115" type="line"/>
      <point x="534" y="115" type="line"/>
      <point x="534" y="284" type="line"/>
      <point x="458" y="284" type="line"/>
      <point x="316" y="116" type="line"/>
      <point x="316" y="63" type="line"/>
      <point x="469" y="63" type="line"/>
    </contour>
    <contour>
      <point x="381" y="115" type="line"/>
      <point x="469" y="217" type="line"/>
      <point x="469" y="115" type="line"/>
    </contour>
    <component base="fraction" xOffset="9"/>
  </outline>
</glyph>
<glyph name="AE" format="2">
  <advance width="600"/>
  <unicode hex="00C6"/>
  <outline>
    <contour>
      <point x="-2" y="0" type="line"/>
      <point x="106" y="0" type="line"/>
      <point x="148" y="149" type="line"/>
      <point x="269" y="149" type="line"/>
      <point x="269" y="0" type="line"/>
      <point x="573" y="0" type="line"/>
      <point x="573" y="102" type="line"/>
      <point x="379" y="102" type="line"/>
      <point x="379" y="303" type="line"/>
      <point x="500" y="303" type="line"/>
      <point x="500" y="403" type="line"/>
      <point x="379" y="403" type="line"/>
      <point x="379" y="598" type="line"/>
      <point x="569" y="598" type="line"/>
      <point x="569" y="700" type="line"/>
      <point x="205" y="700" type="line"/>
    </contour>
    <contour>
      <point x="171" y="239" type="line"/>
      <point x="269" y="586" type="line"/>
      <point x="269" y="239" type="line"/>
    </contour>
  </outline>
</glyph>
<glyph name="Ccedilla" format="2">
  <advance width="600"/>
  <unicode hex="00C7"/>
  <outline>
    <contour>
      <point x="305" y="-246" type="curve" smooth="yes"/>
      <point x="374" y="-246"/>
      <point x="425" y="-203"/>
      <point x="425" y="-145" type="curve" smooth="yes"/>
      <point x="425" y="-97"/>
      <point x="387" y="-66"/>
      <point x="326" y="-62" type="curve"/>
      <point x="338" y="-9" type="line"/>
      <point x="448" y="3"/>
      <point x="532" y="85"/>
      <point x="565" y="215" type="curve"/>
      <point x="457" y="246" type="line"/>
      <point x="437" y="148"/>
      <point x="378" y="97"/>
      <point x="310" y="97" type="curve" smooth="yes"/>
      <point x="224" y="97"/>
      <point x="157" y="182"/>
      <point x="157" y="350" type="curve" smooth="yes"/>
      <point x="157" y="518"/>
      <point x="224" y="603"/>
      <point x="310" y="603" type="curve" smooth="yes"/>
      <point x="378" y="603"/>
      <point x="437" y="552"/>
      <point x="457" y="454" type="curve"/>
      <point x="565" y="485" type="line"/>
      <point x="530" y="628"/>
      <point x="432" y="711"/>
      <point x="308" y="711" type="curve" smooth="yes"/>
      <point x="159" y="711"/>
      <point x="36" y="582"/>
      <point x="36" y="350" type="curve" smooth="yes"/>
      <point x="36" y="132"/>
      <point x="145" y="5"/>
      <point x="282" y="-10" type="curve"/>
      <point x="258" y="-104" type="line"/>
      <point x="295" y="-104" type="line" smooth="yes"/>
      <point x="335" y="-104"/>
      <point x="359" y="-120"/>
      <point x="359" y="-147" type="curve" smooth="yes"/>
      <point x="359" y="-175"/>
      <point x="337" y="-192"/>
      <point x="299" y="-192" type="curve" smooth="yes"/>
      <point x="271" y="-192"/>
      <point x="244" y="-182"/>
      <point x="221" y="-164" type="curve"/>
      <point x="183" y="-207" type="line"/>
      <point x="213" y="-233"/>
      <point x="253" y="-246"/>
    </contour>
  </outline>
</glyph>
<glyph name="multiply" format="2">
  <advance width="600"/>
  <unicode hex="00D7"/>
  <outline>
    <contour>
      <point x="155" y="149" type="line"/>
      <point x="298" y="303" type="line"/>
      <point x="443" y="148" type="line"/>
      <point x="498" y="205" type="line"/>
      <point x="353" y="360" type="line"/>
      <point x="497" y="514" type="line"/>
      <point x="444" y="570" type="line"/>
      <point x="300" y="416" type="line"/>
      <point x="156" y="570" type="line"/>
      <point x="102" y="513" type="line"/>
      <point x="246" y="359" type="line"/>
      <point x="102" y="205" type="line"/>
    </contour>
  </outline>
</glyph>
<glyph name="Oslash" format="2">
  <advance width="600"/>
  <unicode hex="00D8"/>
  <outline>
    <contour>
      <point x="300" y="-11" type="curve" smooth="yes"/>
      <point x="448" y="-11"/>
      <point x="572" y="118"/>
      <point x="572" y="350" type="curve" smooth="yes"/>
      <point x="572" y="450"/>
      <point x="549" y="532"/>
      <point x="510" y="591" type="curve"/>
      <point x="582" y="700" type="line"/>
      <point x="483" y="700" type="line"/>
      <point x="453" y="655" type="line"/>
      <point x="409" y="692"/>
      <point x="356" y="711"/>
      <point x="300" y="711" type="curve" smooth="yes"/>
      <point x="152" y="711"/>
      <point x="28" y="582"/>
      <point x="28" y="350" type="curve" smooth="yes"/>
      <point x="28" y="250"/>
      <point x="51" y="168"/>
      <point x="90" y="109" type="curve"/>
      <point x="18" y="0" type="line"/>
      <point x="117" y="0" type="line"/>
      <point x="147" y="45" type="line"/>
      <point x="191" y="8"/>
      <point x="244" y="-11"/>
    </contour>
    <contour>
      <point x="168" y="228" type="line"/>
      <point x="156" y="261"/>
      <point x="149" y="302"/>
      <point x="149" y="350" type="curve" smooth="yes"/>
      <point x="149" y="516"/>
      <point x="215" y="603"/>
      <point x="300" y="603" type="curve" smooth="yes"/>
      <point x="334" y="603"/>
      <point x="366" y="589"/>
      <point x="391" y="561" type="curve"/>
    </contour>
    <contour>
      <point x="300" y="97" type="curve" smooth="yes"/>
      <point x="266" y="97"/>
      <point x="234" y="111"/>
      <point x="209" y="139" type="curve"/>
      <point x="432" y="472" type="line"/>
      <point x="444" y="439"/>
      <point x="451" y="398"/>
      <point x="451" y="350" type="curve" smooth="yes"/>
      <point x="451" y="184"/>
      <point x="385" y="97"/>
    </contour>
  </outline>
</glyph>
<glyph name="Thorn" format="2">
  <advance width="600"/>
  <unicode hex="00DE"/>
  <outline>
    <contour>
      <point x="78" y="0" type="line"/>
      <point x="198" y="0" type="line"/>
      <point x="198" y="134" type="line"/>
      <point x="324" y="134" type="line" smooth="yes"/>
      <point x="466" y="134"/>
      <point x="558" y="223"/>
      <point x="558" y="349" type="curve" smooth="yes"/>
      <point x="558" y="478"/>
      <point x="466" y="567"/>
      <point x="324" y="567" type="curve" smooth="yes"/>
      <point x="198" y="567" type="line"/>
      <point x="198" y="700" type="line"/>
      <point x="78" y="700" type="line"/>
    </contour>
    <contour>
      <point x="198" y="233" type="line"/>
      <point x="198" y="466" type="line"/>
      <point x="305" y="466" type="line" smooth="yes"/>
      <point x="390" y="466"/>
      <point x="437" y="420"/>
      <point x="437" y="350" type="curve" smooth="yes"/>
      <point x="437" y="279"/>
      <point x="390" y="233"/>
      <point x="305" y="233" type="curve" smooth="yes"/>
    </contour>
  </outline>
</glyph>
<glyph name="germandbls" format="2">
  <advance width="600"/>
  <unicode hex="00DF"/>
  <outline>
    <contour>
      <point x="390" y="-11" type="curve" smooth="yes"/>
      <point x="498" y="-11"/>
      <point x="573" y="55"/>
      <point x="573" y="149" type="curve" smooth="yes"/>
      <point x="573" y="319"/>
      <point x="347" y="298"/>
      <point x="347" y="372" type="curve" smooth="yes"/>
      <point x="347" y="438"/>
      <point x="488" y="447"/>
      <point x="488" y="571" type="curve" smooth="yes"/>
      <point x="488" y="667"/>
      <point x="406" y="737"/>
      <point x="279" y="737" type="curve" smooth="yes"/>
      <point x="138" y="737"/>
      <point x="51" y="644"/>
      <point x="51" y="505" type="curve" smooth="yes"/>
      <point x="51" y="0" type="line"/>
      <point x="164" y="0" type="line"/>
      <point x="164" y="509" type="line" smooth="yes"/>
      <point x="164" y="592"/>
      <point x="210" y="644"/>
      <point x="282" y="644" type="curve" smooth="yes"/>
      <point x="342" y="644"/>
      <point x="384" y="611"/>
      <point x="384" y="564" type="curve"/>
      <point x="384" y="481"/>
      <point x="244" y="471"/>
      <point x="244" y="361" type="curve" smooth="yes"/>
      <point x="244" y="211"/>
      <point x="469" y="259"/>
      <point x="469" y="145" type="curve" smooth="yes"/>
      <point x="469" y="101"/>
      <point x="434" y="72"/>
      <point x="383" y="72" type="curve" smooth="yes"/>
      <point x="343" y="72"/>
      <point x="308" y="88"/>
      <point x="272" y="117" type="curve"/>
      <point x="219" y="46" type="line"/>
      <point x="267" y="7"/>
      <point x="319" y="-11"/>
    </contour>
  </outline>
</glyph>
<glyph name="ae" format="2">
  <advance width="600"/>
  <unicode hex="00E6"/>
  <outline>
    <contour>
      <point x="163" y="-10" type="curve" smooth="yes"/>
      <point x="211" y="-10"/>
      <point x="247" y="8"/>
      <point x="290" y="54" type="curve"/>
      <point x="324" y="14"/>
      <point x="372" y="-10"/>
      <point x="430" y="-10" type="curve" smooth="yes"/>
      <point x="484" y="-10"/>
      <point x="531" y="6"/>
      <point x="574" y="40" type="curve"/>
      <point x="527" y="118" type="line"/>
      <point x="499" y="96"/>
      <point x="466" y="82"/>
      <point x="434" y="82" type="curve" smooth="yes"/>
      <point x="374" y="82"/>
      <point x="335" y="140"/>
      <point x="328" y="223" type="curve"/>
      <point x="578" y="223" type="line"/>
      <point x="578" y="255" type="line" smooth="yes"/>
      <point x="578" y="413"/>
      <point x="509" y="509"/>
      <point x="412" y="509" type="curve" smooth="yes"/>
      <point x="361" y="509"/>
      <point x="322" y="485"/>
      <point x="292" y="442" type="curve"/>
      <point x="269" y="486"/>
      <point x="229" y="509"/>
      <point x="173" y="509" type="curve" smooth="yes"/>
      <point x="125" y="509"/>
      <point x="71" y="490"/>
      <point x="19" y="452" type="curve"/>
      <point x="63" y="375" type="line"/>
      <point x="108" y="408"/>
      <point x="133" y="417"/>
      <point x="166" y="417" type="curve" smooth="yes"/>
      <point x="205" y="417"/>
      <point x="226" y="389"/>
      <point x="226" y="334" type="curve" smooth="yes"/>
      <point x="226" y="282" type="line"/>
      <point x="211" y="286"/>
      <point x="196" y="288"/>
      <point x="179" y="288" type="curve" smooth="yes"/>
      <point x="81" y="288"/>
      <point x="19" y="229"/>
      <point x="19" y="139" type="curve" smooth="yes"/>
      <point x="19" y="51"/>
      <point x="77" y="-10"/>
    </contour>
    <contour>
      <point x="329" y="292" type="line"/>
      <point x="336" y="371"/>
      <point x="364" y="419"/>
      <point x="408" y="419" type="curve" smooth="yes"/>
      <point x="447" y="419"/>
      <point x="476" y="372"/>
      <point x="479" y="292" type="curve"/>
    </contour>
    <contour>
      <point x="182" y="68" type="curve" smooth="yes"/>
      <point x="142" y="68"/>
      <point x="116" y="101"/>
      <point x="116" y="142" type="curve" smooth="yes"/>
      <point x="116" y="189"/>
      <point x="149" y="220"/>
      <point x="195" y="220" type="curve" smooth="yes"/>
      <point x="208" y="220"/>
      <point x="219" y="218"/>
      <point x="230" y="214" type="curve"/>
      <point x="233" y="174"/>
      <point x="242" y="138"/>
      <point x="256" y="107" type="curve"/>
      <point x="232" y="80"/>
      <point x="210" y="68"/>
    </contour>
  </outline>
</glyph>
<glyph name="ccedilla" format="2">
  <advance width="600"/>
  <unicode hex="00E7"/>
  <outline>
    <contour>
      <point x="307" y="-246" type="curve" smooth="yes"/>
      <point x="376" y="-246"/>
      <point x="427" y="-203"/>
      <point x="427" y="-145" type="curve" smooth="yes"/>
      <point x="427" y="-97"/>
      <point x="389" y="-66"/>
      <point x="328" y="-62" type="curve"/>
      <point x="340" y="-9" type="line"/>
      <point x="427" y="-1"/>
      <point x="499" y="42"/>
      <point x="540" y="107" type="curve"/>
      <point x="452" y="167" type="line"/>
      <point x="425" y="119"/>
      <point x="374" y="88"/>
      <point x="313" y="88" type="curve" smooth="yes"/>
      <point x="227" y="88"/>
      <point x="164" y="156"/>
      <point x="164" y="249" type="curve" smooth="yes"/>
      <point x="164" y="342"/>
      <point x="227" y="411"/>
      <point x="313" y="411" type="curve" smooth="yes"/>
      <point x="374" y="411"/>
      <point x="425" y="380"/>
      <point x="452" y="331" type="curve"/>
      <point x="540" y="392" type="line"/>
      <point x="494" y="463"/>
      <point x="411" y="509"/>
      <point x="313" y="509" type="curve" smooth="yes"/>
      <point x="165" y="509"/>
      <point x="51" y="397"/>
      <point x="51" y="249" type="curve" smooth="yes"/>
      <point x="51" y="112"/>
      <point x="151" y="5"/>
      <point x="284" y="-9" type="curve"/>
      <point x="260" y="-104" type="line"/>
      <point x="297" y="-104" type="line" smooth="yes"/>
      <point x="337" y="-104"/>
      <point x="361" y="-120"/>
      <point x="361" y="-147" type="curve" smooth="yes"/>
      <point x="361" y="-175"/>
      <point x="339" y="-192"/>
      <point x="301" y="-192" type="curve" smooth="yes"/>
      <point x="273" y="-192"/>
      <point x="246" y="-182"/>
      <point x="223" y="-164" type="curve"/>
      <point x="185" y="-207" type="line"/>
      <point x="215" y="-233"/>
      <point x="255" y="-246"/>
    </contour>
  </outline>
</glyph>
<glyph name="eth" format="2">
  <advance width="600"/>
  <unicode hex="00F0"/>
  <outline>
    <contour>
      <point x="294" y="-10" type="curve" smooth="yes"/>
      <point x="449" y="-10"/>
      <point x="549" y="112"/>
      <point x="549" y="298" type="curve" smooth="yes"/>
      <point x="549" y="432"/>
      <point x="508" y="546"/>
      <point x="431" y="630" type="curve"/>
      <point x="512" y="684" type="line"/>
      <point x="473" y="742" type="line"/>
      <point x="380" y="680" type="line"/>
      <point x="343" y="709"/>
      <point x="301" y="733"/>
      <point x="254" y="752" type="curve"/>
      <point x="200" y="675" type="line"/>
      <point x="235" y="662"/>
      <point x="268" y="645"/>
      <point x="297" y="624" type="curve"/>
      <point x="221" y="574" type="line"/>
      <point x="261" y="517" type="line"/>
      <point x="350" y="575" type="line"/>
      <point x="399" y="523"/>
      <point x="431" y="455"/>
      <point x="441" y="379" type="curve"/>
      <point x="412" y="433"/>
      <point x="348" y="470"/>
      <point x="273" y="470" type="curve" smooth="yes"/>
      <point x="148" y="470"/>
      <point x="51" y="369"/>
      <point x="51" y="237" type="curve" smooth="yes"/>
      <point x="51" y="98"/>
      <point x="157" y="-10"/>
    </contour>
    <contour>
      <point x="298" y="87" type="curve" smooth="yes"/>
      <point x="219" y="87"/>
      <point x="159" y="152"/>
      <point x="159" y="236" type="curve" smooth="yes"/>
      <point x="159" y="319"/>
      <point x="219" y="384"/>
      <point x="298" y="384" type="curve" smooth="yes"/>
      <point x="376" y="384"/>
      <point x="436" y="319"/>
      <point x="436" y="236" type="curve" smooth="yes"/>
      <point x="436" y="152"/>
      <point x="376" y="87"/>
    </contour>
  </outline>
</glyph>
<glyph name="divide" format="2">
  <advance width="600"/>
  <unicode hex="00F7"/>
  <outline>
    <contour>
      <point x="300" y="83" type="curve" smooth="yes"/>
      <point x="339" y="83"/>
      <point x="370" y="115"/>
      <point x="370" y="153" type="curve" smooth="yes"/>
      <point x="370" y="192"/>
      <point x="339" y="224"/>
      <point x="300" y="224" type="curve" smooth="yes"/>
      <point x="261" y="224"/>
      <point x="230" y="192"/>
      <point x="230" y="153" type="curve" smooth="yes"/>
      <point x="230" y="115"/>
      <point x="261" y="83"/>
    </contour>
    <contour>
      <point x="300" y="493" type="curve" smooth="yes"/>
      <point x="339" y="493"/>
      <point x="370" y="525"/>
      <point x="370" y="564" type="curve" smooth="yes"/>
      <point x="370" y="602"/>
      <point x="339" y="634"/>
      <point x="300" y="634" type="curve" smooth="yes"/>
      <point x="261" y="634"/>
      <point x="230" y="602"/>
      <point x="230" y="564" type="curve" smooth="yes"/>
      <point x="230" y="525"/>
      <point x="261" y="493"/>
    </contour>
    <contour>
      <point x="90" y="315" type="line"/>
      <point x="510" y="315" type="line"/>
      <point x="510" y="402" type="line"/>
      <point x="90" y="402" type="line"/>
    </contour>
  </outline>
</glyph>
<glyph name="oslash" format="2">
  <advance width="600"/>
  <unicode hex="00F8"/>
  <outline>
    <contour>
      <point x="49" y="0" type="line"/>
      <point x="134" y="0" type="line"/>
      <point x="160" y="32" type="line"/>
      <point x="200" y="5"/>
      <point x="248" y="-10"/>
      <point x="300" y="-10" type="curve" smooth="yes"/>
      <point x="443" y="-10"/>
      <point x="551" y="102"/>
      <point x="551" y="249" type="curve" smooth="yes"/>
      <point x="551" y="318"/>
      <point x="528" y="379"/>
      <point x="488" y="425" type="curve"/>
      <point x="551" y="501" type="line"/>
      <point x="466" y="501" type="line"/>
      <point x="439" y="467" type="line"/>
      <point x="399" y="494"/>
      <point x="352" y="509"/>
      <point x="300" y="509" type="curve" smooth="yes"/>
      <point x="157" y="509"/>
      <point x="49" y="397"/>
      <point x="49" y="249" type="curve" smooth="yes"/>
      <point x="49" y="181"/>
      <point x="72" y="120"/>
      <point x="111" y="75" type="curve"/>
    </contour>
    <contour>
      <point x="183" y="159" type="line"/>
      <point x="168" y="184"/>
      <point x="159" y="215"/>
      <point x="159" y="249" type="curve" smooth="yes"/>
      <point x="159" y="343"/>
      <point x="219" y="412"/>
      <point x="300" y="412" type="curve" smooth="yes"/>
      <point x="327" y="412"/>
      <point x="353" y="404"/>
      <point x="374" y="390" type="curve"/>
    </contour>
    <contour>
      <point x="300" y="87" type="curve" smooth="yes"/>
      <point x="272" y="87"/>
      <point x="247" y="95"/>
      <point x="226" y="109" type="curve"/>
      <point x="417" y="341" type="line"/>
      <point x="432" y="316"/>
      <point x="441" y="284"/>
      <point x="441" y="249" type="curve" smooth="yes"/>
      <point x="441" y="155"/>
      <point x="381" y="87"/>
    </contour>
  </outline>
</glyph>
<glyph name="thorn" format="2">
  <advance width="600"/>
  <unicode hex="00FE"/>
  <outline>
    <contour>
      <point x="76" y="-209" type="line"/>
      <point x="189" y="-209" type="line"/>
      <point x="189" y="53" type="line"/>
      <point x="225" y="14"/>
      <point x="273" y="-7"/>
      <point x="327" y="-7" type="curve" smooth="yes"/>
      <point x="455" y="-7"/>
      <point x="556" y="105"/>
      <point x="556" y="250" type="curve" smooth="yes"/>
      <point x="556" y="395"/>
      <point x="456" y="508"/>
      <point x="329" y="508" type="curve" smooth="yes"/>
      <point x="273" y="508"/>
      <point x="224" y="484"/>
      <point x="189" y="444" type="curve"/>
      <point x="189" y="737" type="line"/>
      <point x="76" y="717" type="line"/>
    </contour>
    <contour>
      <point x="302" y="415" type="curve" smooth="yes"/>
      <point x="386" y="415"/>
      <point x="444" y="346"/>
      <point x="444" y="250" type="curve" smooth="yes"/>
      <point x="444" y="154"/>
      <point x="386" y="85"/>
      <point x="302" y="85" type="curve" smooth="yes"/>
      <point x="257" y="85"/>
      <point x="217" y="104"/>
      <point x="189" y="137" type="curve"/>
      <point x="189" y="363" type="line"/>
      <point x="216" y="396"/>
      <point x="256" y="415"/>
    </contour>
  </outline>
</glyph>
<glyph name="Aogonek" format="2">
  <advance width="600"/>
  <unicode hex="0104"/>
  <outline>
    <contour>
      <point x="9" y="0" type="line"/>
      <point x="127" y="0" type="line"/>
      <point x="177" y="169" type="line"/>
      <point x="418" y="169" type="line"/>
      <point x="469" y="0" type="line"/>
      <point x="523" y="0" type="line"/>
      <point x="457" y="-46"/>
      <point x="429" y="-87"/>
      <point x="429" y="-136" type="curve" smooth="yes"/>
      <point x="429" y="-193"/>
      <point x="471" y="-231"/>
      <point x="536" y="-231" type="curve" smooth="yes"/>
      <point x="567" y="-231"/>
      <point x="597" y="-223"/>
      <point x="618" y="-210" type="curve"/>
      <point x="601" y="-157" type="line"/>
      <point x="590" y="-165"/>
      <point x="572" y="-169"/>
      <point x="554" y="-169" type="curve" smooth="yes"/>
      <point x="518" y="-169"/>
      <point x="495" y="-150"/>
      <point x="495" y="-117" type="curve" smooth="yes"/>
      <point x="495" y="-78"/>
      <point x="525" y="-42"/>
      <point x="591" y="0" type="curve"/>
      <point x="371" y="700" type="line"/>
      <point x="229" y="700" type="line"/>
    </contour>
    <contour>
      <point x="204" y="262" type="line"/>
      <point x="298" y="573" type="line"/>
      <point x="392" y="262" type="line"/>
    </contour>
  </outline>
</glyph>
<glyph name="aogonek" format="2">
  <advance width="600"/>
  <unicode hex="0105"/>
  <outline>
    <contour>
      <point x="242" y="-9" type="curve" smooth="yes"/>
      <point x="301" y="-9"/>
      <point x="349" y="10"/>
      <point x="394" y="53" type="curve"/>
      <point x="394" y="0" type="line"/>
      <point x="438" y="0" type="line"/>
      <point x="372" y="-46"/>
      <point x="344" y="-87"/>
      <point x="344" y="-136" type="curve" smooth="yes"/>
      <point x="344" y="-193"/>
      <point x="386" y="-231"/>
      <point x="451" y="-231" type="curve" smooth="yes"/>
      <point x="482" y="-231"/>
      <point x="513" y="-223"/>
      <point x="533" y="-210" type="curve"/>
      <point x="516" y="-157" type="line"/>
      <point x="505" y="-165"/>
      <point x="487" y="-169"/>
      <point x="470" y="-169" type="curve" smooth="yes"/>
      <point x="433" y="-169"/>
      <point x="411" y="-150"/>
      <point x="411" y="-117" type="curve" smooth="yes"/>
      <point x="411" y="-78"/>
      <point x="440" y="-42"/>
      <point x="506" y="0" type="curve"/>
      <point x="506" y="321" type="line" smooth="yes"/>
      <point x="506" y="441"/>
      <point x="430" y="509"/>
      <point x="298" y="509" type="curve" smooth="yes"/>
      <point x="229" y="509"/>
      <point x="159" y="492"/>
      <point x="82" y="454" type="curve"/>
      <point x="125" y="372" type="line"/>
      <point x="185" y="403"/>
      <point x="232" y="415"/>
      <point x="276" y="415" type="curve" smooth="yes"/>
      <point x="355" y="415"/>
      <point x="394" y="380"/>
      <point x="394" y="309" type="curve" smooth="yes"/>
      <point x="394" y="259" type="line"/>
      <point x="349" y="281"/>
      <point x="304" y="291"/>
      <point x="256" y="291" type="curve" smooth="yes"/>
      <point x="136" y="291"/>
      <point x="62" y="234"/>
      <point x="62" y="143" type="curve" smooth="yes"/>
      <point x="62" y="53"/>
      <point x="136" y="-9"/>
    </contour>
    <contour>
      <point x="168" y="146" type="curve" smooth="yes"/>
      <point x="168" y="191"/>
      <point x="209" y="218"/>
      <point x="276" y="218" type="curve" smooth="yes"/>
      <point x="319" y="218"/>
      <point x="358" y="211"/>
      <point x="394" y="193" type="curve"/>
      <point x="394" y="114" type="line"/>
      <point x="360" y="84"/>
      <point x="319" y="70"/>
      <point x="273" y="70" type="curve"/>
      <point x="209" y="70"/>
      <point x="168" y="99"/>
    </contour>
  </outline>
</glyph>
<glyph name="dcaron" format="2">
  <advance width="600"/>
  <unicode hex="010F"/>
  <outline>
    <contour>
      <point x="533" y="514" type="line"/>
      <point x="604" y="514" type="line"/>
      <point x="636" y="737" type="line"/>
      <point x="537" y="718" type="line"/>
    </contour>
    <contour>
      <point x="240" y="-5" type="curve"/>
      <point x="290" y="-5"/>
      <point x="334" y="16"/>
      <point x="366" y="53" type="curve"/>
      <point x="366" y="0" type="line"/>
      <point x="474" y="0" type="line"/>
      <point x="474" y="737" type="line"/>
      <point x="366" y="718" type="line"/>
      <point x="366" y="452" type="line"/>
      <point x="332" y="487"/>
      <point x="292" y="505"/>
      <point x="248" y="505" type="curve"/>
      <point x="130" y="505"/>
      <point x="41" y="396"/>
      <point x="41" y="250" type="curve" smooth="yes"/>
      <point x="41" y="105"/>
      <point x="126" y="-5"/>
    </contour>
    <contour>
      <point x="148" y="250" type="curve" smooth="yes"/>
      <point x="148" y="345"/>
      <point x="199" y="412"/>
      <point x="271" y="412" type="curve"/>
      <point x="307" y="412"/>
      <point x="340" y="397"/>
      <point x="366" y="370" type="curve"/>
      <point x="366" y="131" type="line"/>
      <point x="340" y="102"/>
      <point x="308" y="88"/>
      <point x="271" y="88" type="curve"/>
      <point x="199" y="88"/>
      <point x="148" y="156"/>
    </contour>
  </outline>
</glyph>
<glyph name="Dcroat" format="2">
  <advance width="600"/>
  <unicode hex="0110"/>
  <outline>
    <contour>
      <point x="79" y="0" type="line"/>
      <point x="278" y="0" type="line" smooth="yes"/>
      <point x="436" y="0"/>
      <point x="566" y="127"/>
      <point x="566" y="350" type="curve" smooth="yes"/>
      <point x="566" y="573"/>
      <point x="436" y="700"/>
      <point x="278" y="700" type="curve" smooth="yes"/>
      <point x="79" y="700" type="line"/>
      <point x="79" y="397" type="line"/>
      <point x="11" y="397" type="line"/>
      <point x="11" y="309" type="line"/>
      <point x="79" y="309" type="line"/>
    </contour>
    <contour>
      <point x="199" y="102" type="line"/>
      <point x="199" y="309" type="line"/>
      <point x="294" y="309" type="line"/>
      <point x="294" y="397" type="line"/>
      <point x="199" y="397" type="line"/>
      <point x="199" y="598" type="line"/>
      <point x="266" y="598" type="line" smooth="yes"/>
      <point x="368" y="598"/>
      <point x="445" y="510"/>
      <point x="445" y="350" type="curve" smooth="yes"/>
      <point x="445" y="190"/>
      <point x="368" y="102"/>
      <point x="266" y="102" type="curve" smooth="yes"/>
    </contour>
  </outline>
</glyph>
<glyph name="dcroat" format="2">
  <advance width="600"/>
  <unicode hex="0111"/>
  <outline>
    <contour>
      <point x="271" y="-7" type="curve" smooth="yes"/>
      <point x="328" y="-7"/>
      <point x="378" y="16"/>
      <point x="413" y="58" type="curve"/>
      <point x="413" y="0" type="line"/>
      <point x="523" y="0" type="line"/>
      <point x="523" y="567" type="line"/>
      <point x="592" y="567" type="line"/>
      <point x="592" y="637" type="line"/>
      <point x="523" y="637" type="line"/>
      <point x="523" y="737" type="line"/>
      <point x="410" y="718" type="line"/>
      <point x="410" y="637" type="line"/>
      <point x="284" y="637" type="line"/>
      <point x="284" y="567" type="line"/>
      <point x="410" y="567" type="line"/>
      <point x="410" y="447" type="line"/>
      <point x="374" y="486"/>
      <point x="327" y="508"/>
      <point x="273" y="508" type="curve" smooth="yes"/>
      <point x="145" y="508"/>
      <point x="44" y="395"/>
      <point x="44" y="250" type="curve" smooth="yes"/>
      <point x="44" y="105"/>
      <point x="144" y="-7"/>
    </contour>
    <contour>
      <point x="298" y="86" type="curve" smooth="yes"/>
      <point x="214" y="86"/>
      <point x="156" y="154"/>
      <point x="156" y="250" type="curve" smooth="yes"/>
      <point x="156" y="346"/>
      <point x="214" y="415"/>
      <point x="298" y="415" type="curve" smooth="yes"/>
      <point x="342" y="415"/>
      <point x="383" y="395"/>
      <point x="410" y="364" type="curve"/>
      <point x="410" y="136" type="line"/>
      <point x="383" y="104"/>
      <point x="343" y="86"/>
    </contour>
  </outline>
</glyph>
<glyph name="Eogonek" format="2">
  <advance width="600"/>
  <unicode hex="0118"/>
  <outline>
    <contour>
      <point x="87" y="0" type="line"/>
      <point x="481" y="0" type="line"/>
      <point x="415" y="-46"/>
      <point x="387" y="-87"/>
      <point x="387" y="-136" type="curve" smooth="yes"/>
      <point x="387" y="-193"/>
      <point x="430" y="-231"/>
      <point x="494" y="-231" type="curve" smooth="yes"/>
      <point x="525" y="-231"/>
      <point x="556" y="-223"/>
      <point x="576" y="-210" type="curve"/>
      <point x="560" y="-157" type="line"/>
      <point x="548" y="-165"/>
      <point x="530" y="-169"/>
      <point x="513" y="-169" type="curve" smooth="yes"/>
      <point x="476" y="-169"/>
      <point x="454" y="-150"/>
      <point x="454" y="-117" type="curve" smooth="yes"/>
      <point x="454" y="-78"/>
      <point x="484" y="-42"/>
      <point x="549" y="0" type="curve"/>
      <point x="549" y="102" type="line"/>
      <point x="207" y="102" type="line"/>
      <point x="207" y="303" type="line"/>
      <point x="426" y="303" type="line"/>
      <point x="426" y="403" type="line"/>
      <point x="207" y="403" type="line"/>
      <point x="207" y="598" type="line"/>
      <point x="545" y="598" type="line"/>
      <point x="545" y="700" type="line"/>
      <point x="87" y="700" type="line"/>
    </contour>
  </outline>
</glyph>
<glyph name="eogonek" format="2">
  <advance width="600"/>
  <unicode hex="0119"/>
  <outline>
    <contour>
      <point x="53" y="250" type="curve" smooth="yes"/>
      <point x="53" y="102"/>
      <point x="167" y="-10"/>
      <point x="314" y="-10" type="curve"/>
      <point x="258" y="-52"/>
      <point x="234" y="-90"/>
      <point x="234" y="-136" type="curve" smooth="yes"/>
      <point x="234" y="-193"/>
      <point x="277" y="-231"/>
      <point x="341" y="-231" type="curve" smooth="yes"/>
      <point x="372" y="-231"/>
      <point x="403" y="-223"/>
      <point x="423" y="-210" type="curve"/>
      <point x="406" y="-157" type="line"/>
      <point x="395" y="-165"/>
      <point x="377" y="-169"/>
      <point x="360" y="-169" type="curve" smooth="yes"/>
      <point x="323" y="-169"/>
      <point x="301" y="-150"/>
      <point x="301" y="-117" type="curve" smooth="yes"/>
      <point x="301" y="-78"/>
      <point x="331" y="-42"/>
      <point x="396" y="0" type="curve"/>
      <point x="443" y="12"/>
      <point x="485" y="36"/>
      <point x="522" y="73" type="curve"/>
      <point x="447" y="140" type="line"/>
      <point x="417" y="104"/>
      <point x="371" y="83"/>
      <point x="319" y="83" type="curve" smooth="yes"/>
      <point x="238" y="83"/>
      <point x="175" y="142"/>
      <point x="164" y="223" type="curve"/>
      <point x="552" y="223" type="line"/>
      <point x="552" y="250" type="line" smooth="yes"/>
      <point x="552" y="400"/>
      <point x="447" y="509"/>
      <point x="301" y="509" type="curve" smooth="yes"/>
      <point x="160" y="509"/>
      <point x="53" y="397"/>
    </contour>
    <contour>
      <point x="165" y="294" type="line"/>
      <point x="180" y="368"/>
      <point x="233" y="417"/>
      <point x="303" y="417" type="curve" smooth="yes"/>
      <point x="376" y="417"/>
      <point x="431" y="367"/>
      <point x="444" y="294" type="curve"/>
    </contour>
  </outline>
</glyph>
<glyph name="hcircumflex" format="2">
  <advance width="600"/>
  <unicode hex="0125"/>
  <outline>
    <contour>
      <point x="81" y="0" type="line"/>
      <point x="194" y="0" type="line"/>
      <point x="194" y="362" type="line"/>
      <point x="220" y="398"/>
      <point x="256" y="417"/>
      <point x="299" y="417" type="curve" smooth="yes"/>
      <point x="366" y="417"/>
      <point x="409" y="370"/>
      <point x="409" y="297" type="curve" smooth="yes"/>
      <point x="409" y="0" type="line"/>
      <point x="523" y="0" type="line"/>
      <point x="523" y="330" type="line" smooth="yes"/>
      <point x="523" y="435"/>
      <point x="451" y="508"/>
      <point x="348" y="508" type="curve" smooth="yes"/>
      <point x="285" y="508"/>
      <point x="232" y="480"/>
      <point x="194" y="425" type="curve"/>
      <point x="194" y="727" type="line"/>
      <point x="81" y="727" type="line"/>
    </contour>
    <component base="circumflex" xOffset="-164" yOffset="199"/>
  </outline>
</glyph>
<glyph name="Hbar" format="2">
  <advance width="600"/>
  <unicode hex="0126"/>
  <outline>
    <contour>
      <point x="60" y="0" type="line"/>
      <point x="180" y="0" type="line"/>
      <point x="180" y="300" type="line"/>
      <point x="419" y="300" type="line"/>
      <point x="419" y="0" type="line"/>
      <point x="539" y="0" type="line"/>
      <point x="539" y="508" type="line"/>
      <point x="597" y="508" type="line"/>
      <point x="597" y="596" type="line"/>
      <point x="539" y="596" type="line"/>
      <point x="539" y="700" type="line"/>
      <point x="419" y="700" type="line"/>
      <point x="419" y="596" type="line"/>
      <point x="180" y="596" type="line"/>
      <point x="180" y="700" type="line"/>
      <point x="60" y="700" type="line"/>
      <point x="60" y="596" type="line"/>
      <point x="3" y="596" type="line"/>
      <point x="3" y="508" type="line"/>
      <point x="60" y="508" type="line"/>
    </contour>
    <contour>
      <point x="180" y="400" type="line"/>
      <point x="180" y="508" type="line"/>
      <point x="419" y="508" type="line"/>
      <point x="419" y="400" type="line"/>
    </contour>
  </outline>
</glyph>
<glyph name="hbar" format="2">
  <advance width="600"/>
  <unicode hex="0127"/>
  <outline>
    <contour>
      <point x="81" y="0" type="line"/>
      <point x="194" y="0" type="line"/>
      <point x="194" y="363" type="line"/>
      <point x="220" y="399"/>
      <point x="256" y="418"/>
      <point x="299" y="418" type="curve" smooth="yes"/>
      <point x="366" y="418"/>
      <point x="409" y="371"/>
      <point x="409" y="298" type="curve" smooth="yes"/>
      <point x="409" y="0" type="line"/>
      <point x="523" y="0" type="line"/>
      <point x="523" y="330" type="line" smooth="yes"/>
      <point x="523" y="436"/>
      <point x="451" y="509"/>
      <point x="348" y="509" type="curve" smooth="yes"/>
      <point x="285" y="509"/>
      <point x="232" y="481"/>
      <point x="194" y="426" type="curve"/>
      <point x="194" y="567" type="line"/>
      <point x="312" y="567" type="line"/>
      <point x="312" y="637" type="line"/>
      <point x="194" y="637" type="line"/>
      <point x="194" y="737" type="line"/>
      <point x="81" y="717" type="line"/>
      <point x="81" y="637" type="line"/>
      <point x="12" y="637" type="line"/>
      <point x="12" y="567" type="line"/>
      <point x="81" y="567" type="line"/>
    </contour>
  </outline>
</glyph>
<glyph name="Iogonek" format="2">
  <advance width="600"/>
  <unicode hex="012E"/>
  <outline>
    <contour>
      <point x="64" y="0" type="line"/>
      <point x="468" y="0" type="line"/>
      <point x="402" y="-46"/>
      <point x="374" y="-87"/>
      <point x="374" y="-136" type="curve" smooth="yes"/>
      <point x="374" y="-193"/>
      <point x="417" y="-231"/>
      <point x="481" y="-231" type="curve" smooth="yes"/>
      <point x="512" y="-231"/>
      <point x="543" y="-223"/>
      <point x="563" y="-210" type="curve"/>
      <point x="546" y="-157" type="line"/>
      <point x="535" y="-165"/>
      <point x="517" y="-169"/>
      <point x="500" y="-169" type="curve" smooth="yes"/>
      <point x="463" y="-169"/>
      <point x="441" y="-150"/>
      <point x="441" y="-117" type="curve" smooth="yes"/>
      <point x="441" y="-78"/>
      <point x="471" y="-42"/>
      <point x="536" y="0" type="curve"/>
      <point x="536" y="102" type="line"/>
      <point x="360" y="102" type="line"/>
      <point x="360" y="598" type="line"/>
      <point x="536" y="598" type="line"/>
      <point x="536" y="700" type="line"/>
      <point x="64" y="700" type="line"/>
      <point x="64" y="598" type="line"/>
      <point x="240" y="598" type="line"/>
      <point x="240" y="102" type="line"/>
      <point x="64" y="102" type="line"/>
    </contour>
  </outline>
</glyph>
<glyph name="iogonek" format="2">
  <advance width="600"/>
  <unicode hex="012F"/>
  <outline>
    <contour>
      <point x="297" y="599" type="curve" smooth="yes"/>
      <point x="341" y="599"/>
      <point x="377" y="636"/>
      <point x="377" y="680" type="curve" smooth="yes"/>
      <point x="377" y="724"/>
      <point x="341" y="760"/>
      <point x="297" y="760" type="curve" smooth="yes"/>
      <point x="252" y="760"/>
      <point x="216" y="724"/>
      <point x="216" y="680" type="curve" smooth="yes"/>
      <point x="216" y="636"/>
      <point x="252" y="599"/>
    </contour>
    <contour>
      <point x="441" y="-231" type="curve" smooth="yes"/>
      <point x="472" y="-231"/>
      <point x="503" y="-223"/>
      <point x="523" y="-210" type="curve"/>
      <point x="507" y="-157" type="line"/>
      <point x="496" y="-165"/>
      <point x="478" y="-169"/>
      <point x="460" y="-169" type="curve" smooth="yes"/>
      <point x="424" y="-169"/>
      <point x="401" y="-150"/>
      <point x="401" y="-117" type="curve" smooth="yes"/>
      <point x="401" y="-78"/>
      <point x="430" y="-43"/>
      <point x="494" y="-2" type="curve"/>
      <point x="511" y="2"/>
      <point x="528" y="7"/>
      <point x="542" y="13" type="curve"/>
      <point x="542" y="108" type="line"/>
      <point x="503" y="93"/>
      <point x="472" y="87"/>
      <point x="440" y="87" type="curve" smooth="yes"/>
      <point x="381" y="87"/>
      <point x="353" y="112"/>
      <point x="353" y="172" type="curve" smooth="yes"/>
      <point x="353" y="501" type="line"/>
      <point x="60" y="501" type="line"/>
      <point x="60" y="411" type="line"/>
      <point x="240" y="411" type="line"/>
      <point x="240" y="160" type="line" smooth="yes"/>
      <point x="240" y="50"/>
      <point x="300" y="-7"/>
      <point x="415" y="-10" type="curve"/>
      <point x="359" y="-52"/>
      <point x="335" y="-90"/>
      <point x="335" y="-136" type="curve" smooth="yes"/>
      <point x="335" y="-193"/>
      <point x="377" y="-231"/>
    </contour>
  </outline>
</glyph>
<glyph name="dotlessi" format="2">
  <advance width="600"/>
  <unicode hex="0131"/>
  <note>
Version created Wed Nov 11 16:21:20 2020
</note>
  <anchor x="298" y="501" name="top"/>
  <anchor x="510" y="0" name="bottom"/>
  <outline>
    <contour>
      <point x="424" y="-10" type="curve" smooth="yes"/>
      <point x="464" y="-10"/>
      <point x="511" y="-1"/>
      <point x="542" y="12" type="curve"/>
      <point x="542" y="108" type="line"/>
      <point x="503" y="92"/>
      <point x="471" y="87"/>
      <point x="439" y="87" type="curve" smooth="yes"/>
      <point x="379" y="87"/>
      <point x="353" y="111"/>
      <point x="353" y="174" type="curve" smooth="yes"/>
      <point x="353" y="501" type="line"/>
      <point x="60" y="501" type="line"/>
      <point x="60" y="411" type="line"/>
      <point x="240" y="411" type="line"/>
      <point x="240" y="156" type="line" smooth="yes"/>
      <point x="240" y="46"/>
      <point x="303" y="-10"/>
    </contour>
  </outline>
</glyph>
<glyph name="IJ" format="2">
  <advance width="600"/>
  <unicode hex="0132"/>
  <outline>
    <contour>
      <point x="253" y="120" type="curve"/>
      <point x="234" y="21" type="line"/>
      <point x="265" y="0"/>
      <point x="310" y="-11"/>
      <point x="355" y="-11" type="curve" smooth="yes"/>
      <point x="473" y="-11"/>
      <point x="546" y="66"/>
      <point x="546" y="186" type="curve" smooth="yes"/>
      <point x="546" y="700" type="line"/>
      <point x="426" y="700" type="line"/>
      <point x="426" y="197" type="line" smooth="yes"/>
      <point x="426" y="133"/>
      <point x="393" y="97"/>
      <point x="334" y="97" type="curve" smooth="yes"/>
      <point x="302" y="97"/>
      <point x="278" y="106"/>
    </contour>
    <contour>
      <point x="61" y="0" type="line"/>
      <point x="181" y="0" type="line"/>
      <point x="181" y="700" type="line"/>
      <point x="61" y="700" type="line"/>
    </contour>
  </outline>
</glyph>
<glyph name="ij" format="2">
  <advance width="600"/>
  <unicode hex="0133"/>
  <outline>
    <contour>
      <point x="107" y="0" type="line"/>
      <point x="220" y="0" type="line"/>
      <point x="220" y="501" type="line"/>
      <point x="107" y="501" type="line"/>
    </contour>
    <contour>
      <point x="337" y="-219" type="curve" smooth="yes"/>
      <point x="440" y="-219"/>
      <point x="493" y="-166"/>
      <point x="493" y="-64" type="curve" smooth="yes"/>
      <point x="493" y="501" type="line"/>
      <point x="379" y="501" type="line"/>
      <point x="379" y="-57" type="line" smooth="yes"/>
      <point x="379" y="-101"/>
      <point x="361" y="-121"/>
      <point x="323" y="-121" type="curve" smooth="yes"/>
      <point x="308" y="-121"/>
      <point x="294" y="-120"/>
      <point x="275" y="-115" type="curve"/>
      <point x="275" y="-210" type="line"/>
      <point x="293" y="-215"/>
      <point x="317" y="-219"/>
    </contour>
    <contour>
      <point x="244" y="680" type="curve" smooth="yes"/>
      <point x="244" y="724"/>
      <point x="208" y="760"/>
      <point x="163" y="760" type="curve" smooth="yes"/>
      <point x="119" y="760"/>
      <point x="83" y="724"/>
      <point x="83" y="680" type="curve" smooth="yes"/>
      <point x="83" y="636"/>
      <point x="119" y="599"/>
      <point x="163" y="599" type="curve" smooth="yes"/>
      <point x="208" y="599"/>
      <point x="244" y="636"/>
    </contour>
    <contour>
      <point x="517" y="680" type="curve" smooth="yes"/>
      <point x="517" y="724"/>
      <point x="481" y="760"/>
      <point x="437" y="760" type="curve" smooth="yes"/>
      <point x="392" y="760"/>
      <point x="356" y="724"/>
      <point x="356" y="680" type="curve" smooth="yes"/>
      <point x="356" y="636"/>
      <point x="392" y="599"/>
      <point x="437" y="599" type="curve" smooth="yes"/>
      <point x="481" y="599"/>
      <point x="517" y="636"/>
    </contour>
  </outline>
</glyph>
<glyph name="Lslash" format="2">
  <advance width="600"/>
  <unicode hex="0141"/>
  <outline>
    <contour>
      <point x="95" y="0" type="line"/>
      <point x="556" y="0" type="line"/>
      <point x="556" y="102" type="line"/>
      <point x="215" y="102" type="line"/>
      <point x="215" y="298" type="line"/>
      <point x="413" y="420" type="line"/>
      <point x="413" y="525" type="line"/>
      <point x="215" y="402" type="line"/>
      <point x="215" y="700" type="line"/>
      <point x="95" y="700" type="line"/>
      <point x="95" y="333" type="line"/>
      <point x="5" y="276" type="line"/>
      <point x="5" y="172" type="line"/>
      <point x="95" y="228" type="line"/>
    </contour>
  </outline>
</glyph>
<glyph name="lslash" format="2">
  <advance width="600"/>
  <unicode hex="0142"/>
  <outline>
    <contour>
      <point x="418" y="-10" type="curve" smooth="yes"/>
      <point x="458" y="-10"/>
      <point x="504" y="0"/>
      <point x="535" y="13" type="curve"/>
      <point x="535" y="108" type="line"/>
      <point x="496" y="93"/>
      <point x="465" y="87"/>
      <point x="434" y="87" type="curve" smooth="yes"/>
      <point x="374" y="87"/>
      <point x="346" y="112"/>
      <point x="346" y="172" type="curve" smooth="yes"/>
      <point x="346" y="331" type="line"/>
      <point x="534" y="426" type="line"/>
      <point x="534" y="527" type="line"/>
      <point x="346" y="431" type="line"/>
      <point x="346" y="727" type="line"/>
      <point x="53" y="727" type="line"/>
      <point x="53" y="638" type="line"/>
      <point x="233" y="638" type="line"/>
      <point x="233" y="378" type="line"/>
      <point x="68" y="294" type="line"/>
      <point x="68" y="194" type="line"/>
      <point x="233" y="278" type="line"/>
      <point x="233" y="160" type="line" smooth="yes"/>
      <point x="233" y="47"/>
      <point x="297" y="-10"/>
    </contour>
  </outline>
</glyph>
<glyph name="Eng" format="2">
  <advance width="600"/>
  <unicode hex="014A"/>
  <outline>
    <contour>
      <point x="367" y="-219" type="curve" smooth="yes"/>
      <point x="478" y="-219"/>
      <point x="537" y="-160"/>
      <point x="537" y="-49" type="curve" smooth="yes"/>
      <point x="537" y="700" type="line"/>
      <point x="435" y="700" type="line"/>
      <point x="437" y="210" type="line"/>
      <point x="184" y="700" type="line"/>
      <point x="63" y="700" type="line"/>
      <point x="63" y="0" type="line"/>
      <point x="165" y="0" type="line"/>
      <point x="163" y="506" type="line"/>
      <point x="429" y="-7" type="line"/>
      <point x="429" y="-37" type="line" smooth="yes"/>
      <point x="429" y="-99"/>
      <point x="409" y="-123"/>
      <point x="364" y="-123" type="curve" smooth="yes"/>
      <point x="339" y="-123"/>
      <point x="313" y="-120"/>
      <point x="282" y="-108" type="curve"/>
      <point x="282" y="-204" type="line"/>
      <point x="313" y="-214"/>
      <point x="343" y="-219"/>
    </contour>
  </outline>
</glyph>
<glyph name="eng" format="2">
  <advance width="600"/>
  <unicode hex="014B"/>
  <outline>
    <contour>
      <point x="369" y="-219" type="curve" smooth="yes"/>
      <point x="467" y="-219"/>
      <point x="523" y="-167"/>
      <point x="523" y="-74" type="curve" smooth="yes"/>
      <point x="523" y="330" type="line" smooth="yes"/>
      <point x="523" y="436"/>
      <point x="451" y="509"/>
      <point x="348" y="509" type="curve" smooth="yes"/>
      <point x="285" y="509"/>
      <point x="232" y="481"/>
      <point x="194" y="426" type="curve"/>
      <point x="194" y="501" type="line"/>
      <point x="81" y="501" type="line"/>
      <point x="81" y="0" type="line"/>
      <point x="194" y="0" type="line"/>
      <point x="194" y="363" type="line"/>
      <point x="220" y="399"/>
      <point x="256" y="418"/>
      <point x="299" y="418" type="curve" smooth="yes"/>
      <point x="366" y="418"/>
      <point x="409" y="371"/>
      <point x="409" y="298" type="curve" smooth="yes"/>
      <point x="409" y="-68" type="line" smooth="yes"/>
      <point x="409" y="-106"/>
      <point x="391" y="-123"/>
      <point x="348" y="-123" type="curve" smooth="yes"/>
      <point x="330" y="-123"/>
      <point x="318" y="-122"/>
      <point x="297" y="-117" type="curve"/>
      <point x="297" y="-211" type="line"/>
      <point x="319" y="-216"/>
      <point x="347" y="-219"/>
    </contour>
  </outline>
</glyph>
<glyph name="OE" format="2">
  <advance width="600"/>
  <unicode hex="0152"/>
  <outline>
    <contour>
      <point x="17" y="350" type="curve" smooth="yes"/>
      <point x="17" y="138"/>
      <point x="126" y="0"/>
      <point x="293" y="0" type="curve" smooth="yes"/>
      <point x="585" y="0" type="line"/>
      <point x="585" y="102" type="line"/>
      <point x="390" y="102" type="line"/>
      <point x="390" y="303" type="line"/>
      <point x="512" y="303" type="line"/>
      <point x="512" y="403" type="line"/>
      <point x="390" y="403" type="line"/>
      <point x="390" y="598" type="line"/>
      <point x="581" y="598" type="line"/>
      <point x="581" y="700" type="line"/>
      <point x="293" y="700" type="line" smooth="yes"/>
      <point x="126" y="700"/>
      <point x="17" y="562"/>
    </contour>
    <contour>
      <point x="132" y="350" type="curve" smooth="yes"/>
      <point x="132" y="494"/>
      <point x="188" y="587"/>
      <point x="279" y="597" type="curve"/>
      <point x="279" y="103" type="line"/>
      <point x="188" y="113"/>
      <point x="132" y="206"/>
    </contour>
  </outline>
</glyph>
<glyph name="oe" format="2">
  <advance width="600"/>
  <unicode hex="0153"/>
  <outline>
    <contour>
      <point x="188" y="-9" type="curve" smooth="yes"/>
      <point x="238" y="-9"/>
      <point x="281" y="22"/>
      <point x="308" y="74" type="curve"/>
      <point x="341" y="21"/>
      <point x="391" y="-10"/>
      <point x="450" y="-10" type="curve" smooth="yes"/>
      <point x="500" y="-10"/>
      <point x="546" y="6"/>
      <point x="587" y="38" type="curve"/>
      <point x="541" y="115" type="line"/>
      <point x="516" y="95"/>
      <point x="484" y="82"/>
      <point x="455" y="82" type="curve" smooth="yes"/>
      <point x="401" y="82"/>
      <point x="366" y="135"/>
      <point x="360" y="223" type="curve"/>
      <point x="585" y="223" type="line"/>
      <point x="585" y="263" type="line" smooth="yes"/>
      <point x="585" y="414"/>
      <point x="523" y="509"/>
      <point x="430" y="509" type="curve" smooth="yes"/>
      <point x="380" y="509"/>
      <point x="336" y="478"/>
      <point x="307" y="427" type="curve"/>
      <point x="280" y="478"/>
      <point x="238" y="509"/>
      <point x="188" y="509" type="curve" smooth="yes"/>
      <point x="88" y="509"/>
      <point x="18" y="404"/>
      <point x="18" y="250" type="curve" smooth="yes"/>
      <point x="18" y="96"/>
      <point x="88" y="-9"/>
    </contour>
    <contour>
      <point x="428" y="420" type="curve" smooth="yes"/>
      <point x="463" y="420"/>
      <point x="486" y="377"/>
      <point x="489" y="292" type="curve"/>
      <point x="360" y="292" type="line"/>
      <point x="366" y="372"/>
      <point x="392" y="420"/>
    </contour>
    <contour>
      <point x="190" y="81" type="curve" smooth="yes"/>
      <point x="148" y="81"/>
      <point x="121" y="146"/>
      <point x="121" y="250" type="curve" smooth="yes"/>
      <point x="121" y="354"/>
      <point x="148" y="419"/>
      <point x="190" y="419" type="curve" smooth="yes"/>
      <point x="232" y="419"/>
      <point x="259" y="354"/>
      <point x="259" y="250" type="curve" smooth="yes"/>
      <point x="259" y="146"/>
      <point x="232" y="81"/>
    </contour>
  </outline>
</glyph>
<glyph name="Scedilla" format="2">
  <advance width="600"/>
  <unicode hex="015E"/>
  <outline>
    <contour>
      <point x="299" y="-246" type="curve" smooth="yes"/>
      <point x="368" y="-246"/>
      <point x="419" y="-203"/>
      <point x="419" y="-145" type="curve" smooth="yes"/>
      <point x="419" y="-97"/>
      <point x="381" y="-66"/>
      <point x="320" y="-62" type="curve"/>
      <point x="333" y="-10" type="line"/>
      <point x="469" y="-1"/>
      <point x="561" y="86"/>
      <point x="561" y="203" type="curve" smooth="yes"/>
      <point x="561" y="470"/>
      <point x="167" y="351"/>
      <point x="167" y="519" type="curve" smooth="yes"/>
      <point x="167" y="573"/>
      <point x="216" y="612"/>
      <point x="291" y="612" type="curve" smooth="yes"/>
      <point x="357" y="612"/>
      <point x="422" y="586"/>
      <point x="491" y="534" type="curve"/>
      <point x="552" y="623" type="line"/>
      <point x="473" y="682"/>
      <point x="387" y="711"/>
      <point x="294" y="711" type="curve" smooth="yes"/>
      <point x="147" y="711"/>
      <point x="53" y="630"/>
      <point x="53" y="508" type="curve" smooth="yes"/>
      <point x="53" y="245"/>
      <point x="443" y="366"/>
      <point x="443" y="194" type="curve" smooth="yes"/>
      <point x="443" y="133"/>
      <point x="388" y="88"/>
      <point x="308" y="88" type="curve" smooth="yes"/>
      <point x="240" y="88"/>
      <point x="182" y="114"/>
      <point x="97" y="182" type="curve"/>
      <point x="34" y="92" type="line"/>
      <point x="112" y="29"/>
      <point x="189" y="-4"/>
      <point x="276" y="-10" type="curve"/>
      <point x="253" y="-104" type="line"/>
      <point x="289" y="-104" type="line" smooth="yes"/>
      <point x="329" y="-104"/>
      <point x="353" y="-120"/>
      <point x="353" y="-147" type="curve" smooth="yes"/>
      <point x="353" y="-175"/>
      <point x="331" y="-192"/>
      <point x="293" y="-192" type="curve" smooth="yes"/>
      <point x="265" y="-192"/>
      <point x="238" y="-182"/>
      <point x="215" y="-164" type="curve"/>
      <point x="177" y="-207" type="line"/>
      <point x="207" y="-233"/>
      <point x="247" y="-246"/>
    </contour>
  </outline>
</glyph>
<glyph name="scedilla" format="2">
  <advance width="600"/>
  <unicode hex="015F"/>
  <outline>
    <contour>
      <point x="293" y="-246" type="curve" smooth="yes"/>
      <point x="363" y="-246"/>
      <point x="414" y="-203"/>
      <point x="414" y="-145" type="curve" smooth="yes"/>
      <point x="414" y="-97"/>
      <point x="375" y="-66"/>
      <point x="315" y="-62" type="curve"/>
      <point x="327" y="-8" type="line"/>
      <point x="439" y="2"/>
      <point x="520" y="65"/>
      <point x="520" y="151" type="curve" smooth="yes"/>
      <point x="520" y="354"/>
      <point x="185" y="258"/>
      <point x="185" y="364" type="curve" smooth="yes"/>
      <point x="185" y="400"/>
      <point x="224" y="422"/>
      <point x="289" y="422" type="curve" smooth="yes"/>
      <point x="344" y="422"/>
      <point x="400" y="408"/>
      <point x="454" y="371" type="curve"/>
      <point x="509" y="445" type="line"/>
      <point x="442" y="490"/>
      <point x="369" y="510"/>
      <point x="292" y="510" type="curve" smooth="yes"/>
      <point x="168" y="510"/>
      <point x="84" y="451"/>
      <point x="84" y="355" type="curve" smooth="yes"/>
      <point x="84" y="156"/>
      <point x="415" y="251"/>
      <point x="415" y="143" type="curve" smooth="yes"/>
      <point x="415" y="104"/>
      <point x="368" y="78"/>
      <point x="295" y="78" type="curve" smooth="yes"/>
      <point x="239" y="78"/>
      <point x="189" y="92"/>
      <point x="120" y="137" type="curve"/>
      <point x="65" y="62" type="line"/>
      <point x="116" y="18"/>
      <point x="188" y="-6"/>
      <point x="271" y="-9" type="curve"/>
      <point x="247" y="-104" type="line"/>
      <point x="284" y="-104" type="line" smooth="yes"/>
      <point x="324" y="-104"/>
      <point x="348" y="-120"/>
      <point x="348" y="-147" type="curve" smooth="yes"/>
      <point x="348" y="-175"/>
      <point x="326" y="-192"/>
      <point x="288" y="-192" type="curve" smooth="yes"/>
      <point x="260" y="-192"/>
      <point x="233" y="-182"/>
      <point x="210" y="-164" type="curve"/>
      <point x="172" y="-207" type="line"/>
      <point x="201" y="-233"/>
      <point x="242" y="-246"/>
    </contour>
  </outline>
</glyph>
<glyph name="Tcedilla" format="2">
  <advance width="600"/>
  <unicode hex="0162"/>
  <outline>
    <contour>
      <point x="240" y="0" type="line"/>
      <point x="275" y="0" type="line"/>
      <point x="249" y="-104" type="line"/>
      <point x="286" y="-104" type="line" smooth="yes"/>
      <point x="326" y="-104"/>
      <point x="350" y="-120"/>
      <point x="350" y="-147" type="curve" smooth="yes"/>
      <point x="350" y="-175"/>
      <point x="328" y="-192"/>
      <point x="290" y="-192" type="curve" smooth="yes"/>
      <point x="262" y="-192"/>
      <point x="235" y="-182"/>
      <point x="212" y="-164" type="curve"/>
      <point x="174" y="-207" type="line"/>
      <point x="204" y="-233"/>
      <point x="244" y="-246"/>
      <point x="296" y="-246" type="curve" smooth="yes"/>
      <point x="365" y="-246"/>
      <point x="416" y="-203"/>
      <point x="416" y="-145" type="curve" smooth="yes"/>
      <point x="416" y="-97"/>
      <point x="378" y="-66"/>
      <point x="317" y="-62" type="curve"/>
      <point x="331" y="0" type="line"/>
      <point x="360" y="0" type="line"/>
      <point x="360" y="598" type="line"/>
      <point x="577" y="598" type="line"/>
      <point x="577" y="700" type="line"/>
      <point x="23" y="700" type="line"/>
      <point x="23" y="598" type="line"/>
      <point x="240" y="598" type="line"/>
    </contour>
  </outline>
</glyph>
<glyph name="tcedilla" format="2">
  <advance width="600"/>
  <unicode hex="0163"/>
  <outline>
    <contour>
      <point x="388" y="-10" type="curve" smooth="yes"/>
      <point x="431" y="-10"/>
      <point x="481" y="-1"/>
      <point x="523" y="13" type="curve"/>
      <point x="523" y="109" type="line"/>
      <point x="473" y="92"/>
      <point x="437" y="87"/>
      <point x="403" y="87" type="curve" smooth="yes"/>
      <point x="339" y="87"/>
      <point x="310" y="111"/>
      <point x="310" y="174" type="curve" smooth="yes"/>
      <point x="310" y="411" type="line"/>
      <point x="522" y="411" type="line"/>
      <point x="522" y="501" type="line"/>
      <point x="310" y="501" type="line"/>
      <point x="310" y="663" type="line"/>
      <point x="197" y="639" type="line"/>
      <point x="197" y="501" type="line"/>
      <point x="37" y="501" type="line"/>
      <point x="37" y="411" type="line"/>
      <point x="197" y="411" type="line"/>
      <point x="197" y="153" type="line" smooth="yes"/>
      <point x="197" y="68"/>
      <point x="238" y="15"/>
      <point x="317" y="-2" type="curve"/>
      <point x="292" y="-104" type="line"/>
      <point x="329" y="-104" type="line" smooth="yes"/>
      <point x="369" y="-104"/>
      <point x="393" y="-120"/>
      <point x="393" y="-147" type="curve" smooth="yes"/>
      <point x="393" y="-175"/>
      <point x="371" y="-192"/>
      <point x="333" y="-192" type="curve" smooth="yes"/>
      <point x="305" y="-192"/>
      <point x="278" y="-182"/>
      <point x="255" y="-164" type="curve"/>
      <point x="217" y="-207" type="line"/>
      <point x="247" y="-233"/>
      <point x="287" y="-246"/>
      <point x="339" y="-246" type="curve" smooth="yes"/>
      <point x="408" y="-246"/>
      <point x="459" y="-203"/>
      <point x="459" y="-145" type="curve" smooth="yes"/>
      <point x="459" y="-97"/>
      <point x="421" y="-66"/>
      <point x="360" y="-62" type="curve"/>
      <point x="372" y="-9" type="line"/>
      <point x="377" y="-10"/>
      <point x="383" y="-10"/>
    </contour>
  </outline>
</glyph>
<glyph name="tcaron" format="2">
  <advance width="600"/>
  <unicode hex="0165"/>
  <outline>
    <contour>
      <point x="387" y="577" type="line"/>
      <point x="458" y="577" type="line"/>
      <point x="490" y="796" type="line"/>
      <point x="391" y="777" type="line"/>
    </contour>
    <component base="t"/>
  </outline>
</glyph>
<glyph name="Tbar" format="2">
  <advance width="600"/>
  <unicode hex="0166"/>
  <outline>
    <contour>
      <point x="240" y="0" type="line"/>
      <point x="360" y="0" type="line"/>
      <point x="360" y="288" type="line"/>
      <point x="500" y="288" type="line"/>
      <point x="500" y="376" type="line"/>
      <point x="360" y="376" type="line"/>
      <point x="360" y="598" type="line"/>
      <point x="577" y="598" type="line"/>
      <point x="577" y="700" type="line"/>
      <point x="23" y="700" type="line"/>
      <point x="23" y="598" type="line"/>
      <point x="240" y="598" type="line"/>
      <point x="240" y="376" type="line"/>
      <point x="100" y="376" type="line"/>
      <point x="100" y="288" type="line"/>
      <point x="240" y="288" type="line"/>
    </contour>
  </outline>
</glyph>
<glyph name="tbar" format="2">
  <advance width="600"/>
  <unicode hex="0167"/>
  <outline>
    <contour>
      <point x="388" y="-10" type="curve" smooth="yes"/>
      <point x="431" y="-10"/>
      <point x="481" y="-1"/>
      <point x="523" y="13" type="curve"/>
      <point x="523" y="109" type="line"/>
      <point x="473" y="92"/>
      <point x="437" y="87"/>
      <point x="403" y="87" type="curve" smooth="yes"/>
      <point x="339" y="87"/>
      <point x="310" y="111"/>
      <point x="310" y="174" type="curve" smooth="yes"/>
      <point x="310" y="240" type="line"/>
      <point x="523" y="240" type="line"/>
      <point x="523" y="309" type="line"/>
      <point x="310" y="309" type="line"/>
      <point x="310" y="411" type="line"/>
      <point x="522" y="411" type="line"/>
      <point x="522" y="501" type="line"/>
      <point x="310" y="501" type="line"/>
      <point x="310" y="663" type="line"/>
      <point x="197" y="639" type="line"/>
      <point x="197" y="501" type="line"/>
      <point x="37" y="501" type="line"/>
      <point x="37" y="411" type="line"/>
      <point x="197" y="411" type="line"/>
      <point x="197" y="309" type="line"/>
      <point x="37" y="309" type="line"/>
      <point x="37" y="240" type="line"/>
      <point x="197" y="240" type="line"/>
      <point x="197" y="153" type="line" smooth="yes"/>
      <point x="197" y="46"/>
      <point x="263" y="-10"/>
    </contour>
  </outline>
</glyph>
<glyph name="Uogonek" format="2">
  <advance width="600"/>
  <unicode hex="0172"/>
  <outline>
    <contour>
      <point x="326" y="-231" type="curve" smooth="yes"/>
      <point x="357" y="-231"/>
      <point x="388" y="-223"/>
      <point x="408" y="-210" type="curve"/>
      <point x="391" y="-157" type="line"/>
      <point x="380" y="-165"/>
      <point x="362" y="-169"/>
      <point x="345" y="-169" type="curve" smooth="yes"/>
      <point x="308" y="-169"/>
      <point x="286" y="-150"/>
      <point x="286" y="-117" type="curve" smooth="yes"/>
      <point x="286" y="-78"/>
      <point x="316" y="-42"/>
      <point x="381" y="0" type="curve"/>
      <point x="485" y="30"/>
      <point x="549" y="121"/>
      <point x="549" y="249" type="curve" smooth="yes"/>
      <point x="549" y="700" type="line"/>
      <point x="429" y="700" type="line"/>
      <point x="429" y="249" type="line" smooth="yes"/>
      <point x="429" y="157"/>
      <point x="379" y="97"/>
      <point x="300" y="97" type="curve" smooth="yes"/>
      <point x="221" y="97"/>
      <point x="171" y="157"/>
      <point x="171" y="249" type="curve" smooth="yes"/>
      <point x="171" y="700" type="line"/>
      <point x="51" y="700" type="line"/>
      <point x="51" y="249" type="line" smooth="yes"/>
      <point x="51.0" y="90.89232485226918"/>
      <point x="148.96959771722578" y="-11.0"/>
      <point x="299" y="-11" type="curve"/>
      <point x="243" y="-52"/>
      <point x="219" y="-91"/>
      <point x="219" y="-136" type="curve" smooth="yes"/>
      <point x="219" y="-193"/>
      <point x="262" y="-231"/>
    </contour>
  </outline>
</glyph>
<glyph name="uogonek" format="2">
  <advance width="600"/>
  <unicode hex="0173"/>
  <outline>
    <contour>
      <point x="252" y="-8" type="curve" smooth="yes"/>
      <point x="316" y="-8"/>
      <point x="368" y="20"/>
      <point x="406" y="75" type="curve"/>
      <point x="406" y="0" type="line"/>
      <point x="451" y="0" type="line"/>
      <point x="385" y="-46"/>
      <point x="357" y="-87"/>
      <point x="357" y="-136" type="curve" smooth="yes"/>
      <point x="357" y="-193"/>
      <point x="399" y="-231"/>
      <point x="464" y="-231" type="curve" smooth="yes"/>
      <point x="495" y="-231"/>
      <point x="526" y="-223"/>
      <point x="546" y="-210" type="curve"/>
      <point x="529" y="-157" type="line"/>
      <point x="518" y="-165"/>
      <point x="500" y="-169"/>
      <point x="483" y="-169" type="curve" smooth="yes"/>
      <point x="446" y="-169"/>
      <point x="424" y="-150"/>
      <point x="424" y="-117" type="curve" smooth="yes"/>
      <point x="424" y="-78"/>
      <point x="453" y="-42"/>
      <point x="519" y="0" type="curve"/>
      <point x="519" y="501" type="line"/>
      <point x="406" y="501" type="line"/>
      <point x="406" y="137" type="line"/>
      <point x="380" y="102"/>
      <point x="344" y="83"/>
      <point x="301" y="83" type="curve" smooth="yes"/>
      <point x="234" y="83"/>
      <point x="191" y="130"/>
      <point x="191" y="204" type="curve" smooth="yes"/>
      <point x="191" y="501" type="line"/>
      <point x="77" y="501" type="line"/>
      <point x="77" y="171" type="line" smooth="yes"/>
      <point x="77" y="66"/>
      <point x="149" y="-8"/>
    </contour>
  </outline>
</glyph>
<glyph name="dotlessj" format="2">
  <advance width="600"/>
  <unicode hex="0237"/>
  <anchor x="387" y="501" name="top"/>
  <outline>
    <contour>
      <point x="225" y="-219" type="curve" smooth="yes"/>
      <point x="371" y="-219"/>
      <point x="444" y="-156"/>
      <point x="444" y="-30" type="curve" smooth="yes"/>
      <point x="444" y="501" type="line"/>
      <point x="87" y="501" type="line"/>
      <point x="87" y="411" type="line"/>
      <point x="331" y="411" type="line"/>
      <point x="331" y="-13" type="line" smooth="yes"/>
      <point x="331" y="-92"/>
      <point x="299" y="-121"/>
      <point x="226" y="-121" type="curve" smooth="yes"/>
      <point x="183" y="-121"/>
      <point x="147" y="-115"/>
      <point x="87" y="-95" type="curve"/>
      <point x="87" y="-196" type="line"/>
      <point x="132" y="-210"/>
      <point x="183" y="-219"/>
    </contour>
  </outline>
</glyph>
<glyph name="circumflex" format="2">
  <advance width="600"/>
  <unicode hex="02C6"/>
  <outline>
    <contour>
      <point x="123" y="599" type="line"/>
      <point x="211" y="599" type="line"/>
      <point x="299" y="683" type="line"/>
      <point x="387" y="599" type="line"/>
      <point x="477" y="599" type="line"/>
      <point x="357" y="737" type="line"/>
      <point x="243" y="737" type="line"/>
    </contour>
  </outline>
</glyph>
<glyph name="caron" format="2">
  <advance width="600"/>
  <unicode hex="02C7"/>
  <outline>
    <contour>
      <point x="243" y="603" type="line"/>
      <point x="357" y="603" type="line"/>
      <point x="477" y="741" type="line"/>
      <point x="388" y="741" type="line"/>
      <point x="301" y="658" type="line"/>
      <point x="213" y="741" type="line"/>
      <point x="123" y="741" type="line"/>
    </contour>
  </outline>
</glyph>
<glyph name="dotaccent" format="2">
  <advance width="600"/>
  <unicode hex="02D9"/>
  <outline>
    <contour>
      <point x="301" y="600" type="curve" smooth="yes"/>
      <point x="343" y="600"/>
      <point x="377" y="633"/>
      <point x="377" y="674" type="curve" smooth="yes"/>
      <point x="377" y="715"/>
      <point x="343" y="748"/>
      <point x="301" y="748" type="curve" smooth="yes"/>
      <point x="260" y="748"/>
      <point x="226" y="715"/>
      <point x="226" y="674" type="curve" smooth="yes"/>
      <point x="226" y="633"/>
      <point x="260" y="600"/>
    </contour>
  </outline>
</glyph>
<glyph name="ring" format="2">
  <advance width="600"/>
  <unicode hex="02DA"/>
  <outline>
    <contour>
      <point x="300" y="578" type="curve" smooth="yes"/>
      <point x="366" y="578"/>
      <point x="419" y="631"/>
      <point x="419" y="695" type="curve" smooth="yes"/>
      <point x="419" y="759"/>
      <point x="366" y="812"/>
      <point x="300" y="812" type="curve" smooth="yes"/>
      <point x="234" y="812"/>
      <point x="181" y="759"/>
      <point x="181" y="695" type="curve" smooth="yes"/>
      <point x="181" y="631"/>
      <point x="234" y="578"/>
    </contour>
    <contour>
      <point x="300" y="630" type="curve" smooth="yes"/>
      <point x="264" y="630"/>
      <point x="235" y="659"/>
      <point x="235" y="695" type="curve" smooth="yes"/>
      <point x="235" y="732"/>
      <point x="264" y="761"/>
      <point x="300" y="761" type="curve" smooth="yes"/>
      <point x="336" y="761"/>
      <point x="365" y="732"/>
      <point x="365" y="695" type="curve" smooth="yes"/>
      <point x="365" y="659"/>
      <point x="336" y="630"/>
    </contour>
  </outline>
</glyph>
<glyph name="tilde" format="2">
  <advance width="600"/>
  <unicode hex="02DC"/>
  <outline>
    <contour>
      <point x="181" y="595" type="line"/>
      <point x="194" y="644"/>
      <point x="207" y="661"/>
      <point x="231" y="661" type="curve"/>
      <point x="270" y="661"/>
      <point x="321" y="601"/>
      <point x="379" y="601" type="curve" smooth="yes"/>
      <point x="431" y="601"/>
      <point x="467" y="642"/>
      <point x="488" y="722" type="curve"/>
      <point x="419" y="737" type="line"/>
      <point x="406" y="688"/>
      <point x="395" y="672"/>
      <point x="374" y="672" type="curve"/>
      <point x="335" y="672"/>
      <point x="284" y="732"/>
      <point x="225" y="732" type="curve" smooth="yes"/>
      <point x="170" y="732"/>
      <point x="133" y="690"/>
      <point x="112" y="610" type="curve"/>
    </contour>
  </outline>
</glyph>
<glyph name="hungarumlaut" format="2">
  <advance width="600"/>
  <unicode hex="02DD"/>
  <outline>
    <contour>
      <point x="138" y="592" type="line"/>
      <point x="230" y="592" type="line"/>
      <point x="381" y="724" type="line"/>
      <point x="270" y="724" type="line"/>
    </contour>
    <contour>
      <point x="335" y="592" type="line"/>
      <point x="423" y="592" type="line"/>
      <point x="580" y="724" type="line"/>
      <point x="467" y="724" type="line"/>
    </contour>
  </outline>
</glyph>
<glyph name="uni0327" format="2">
  <unicode hex="0327"/>
  <anchor x="312" y="0" name="_bottom"/>
  <outline>
    <contour>
      <point x="307" y="-246" type="curve" smooth="yes"/>
      <point x="377" y="-246"/>
      <point x="428" y="-203"/>
      <point x="428" y="-145" type="curve" smooth="yes"/>
      <point x="428" y="-97"/>
      <point x="389" y="-66"/>
      <point x="329" y="-62" type="curve"/>
      <point x="343" y="0" type="line"/>
      <point x="287" y="0" type="line"/>
      <point x="261" y="-104" type="line"/>
      <point x="297" y="-104" type="line" smooth="yes"/>
      <point x="338" y="-104"/>
      <point x="362" y="-120"/>
      <point x="362" y="-147" type="curve" smooth="yes"/>
      <point x="362" y="-175"/>
      <point x="340" y="-192"/>
      <point x="302" y="-192" type="curve" smooth="yes"/>
      <point x="274" y="-192"/>
      <point x="247" y="-182"/>
      <point x="224" y="-164" type="curve"/>
      <point x="186" y="-207" type="line"/>
      <point x="215" y="-233"/>
      <point x="256" y="-246"/>
    </contour>
  </outline>
</glyph>
<glyph name="uni0328" format="2">
  <unicode hex="0328"/>
  <anchor x="360" y="0" name="_bottom"/>
  <outline>
    <contour>
      <point x="305" y="-231" type="curve" smooth="yes"/>
      <point x="337" y="-231"/>
      <point x="367" y="-223"/>
      <point x="388" y="-210" type="curve"/>
      <point x="371" y="-157" type="line"/>
      <point x="360" y="-165"/>
      <point x="342" y="-169"/>
      <point x="324" y="-169" type="curve" smooth="yes"/>
      <point x="288" y="-169"/>
      <point x="265" y="-150"/>
      <point x="265" y="-117" type="curve" smooth="yes"/>
      <point x="265" y="-78"/>
      <point x="295" y="-42"/>
      <point x="361" y="0" type="curve"/>
      <point x="322" y="19" type="line"/>
      <point x="235" y="-35"/>
      <point x="199" y="-80"/>
      <point x="199" y="-136" type="curve" smooth="yes"/>
      <point x="199" y="-193"/>
      <point x="241" y="-231"/>
    </contour>
  </outline>
</glyph>
<glyph name="endash" format="2">
  <advance width="600"/>
  <unicode hex="2013"/>
  <outline>
    <contour>
      <point x="78" y="236" type="line"/>
      <point x="522" y="236" type="line"/>
      <point x="522" y="330" type="line"/>
      <point x="78" y="330" type="line"/>
    </contour>
  </outline>
</glyph>
<glyph name="emdash" format="2">
  <advance width="600"/>
  <unicode hex="2014"/>
  <outline>
    <contour>
      <point x="15" y="236" type="line"/>
      <point x="585" y="236" type="line"/>
      <point x="585" y="330" type="line"/>
      <point x="15" y="330" type="line"/>
    </contour>
  </outline>
</glyph>
<glyph name="dagger" format="2">
  <advance width="600"/>
  <unicode hex="2020"/>
  <outline>
    <contour>
      <point x="254" y="0" type="line"/>
      <point x="346" y="0" type="line"/>
      <point x="346" y="427" type="line"/>
      <point x="477" y="427" type="line"/>
      <point x="477" y="507" type="line"/>
      <point x="346" y="507" type="line"/>
      <point x="346" y="700" type="line"/>
      <point x="254" y="700" type="line"/>
      <point x="254" y="507" type="line"/>
      <point x="123" y="507" type="line"/>
      <point x="123" y="427" type="line"/>
      <point x="254" y="427" type="line"/>
    </contour>
  </outline>
</glyph>
<glyph name="daggerdbl" format="2">
  <advance width="600"/>
  <unicode hex="2021"/>
  <outline>
    <contour>
      <point x="123" y="193" type="line"/>
      <point x="254" y="193" type="line"/>
      <point x="254" y="0" type="line"/>
      <point x="346" y="0" type="line"/>
      <point x="346" y="193" type="line"/>
      <point x="477" y="193" type="line"/>
      <point x="477" y="273" type="line"/>
      <point x="346" y="273" type="line"/>
      <point x="346" y="427" type="line"/>
      <point x="477" y="427" type="line"/>
      <point x="477" y="507" type="line"/>
      <point x="346" y="507" type="line"/>
      <point x="346" y="700" type="line"/>
      <point x="254" y="700" type="line"/>
      <point x="254" y="507" type="line"/>
      <point x="123" y="507" type="line"/>
      <point x="123" y="427" type="line"/>
      <point x="254" y="427" type="line"/>
      <point x="254" y="273" type="line"/>
      <point x="123" y="273" type="line"/>
    </contour>
  </outline>
</glyph>
<glyph name="bullet" format="2">
  <advance width="600"/>
  <unicode hex="2022"/>
  <outline>
    <contour>
      <point x="300" y="229" type="curve" smooth="yes"/>
      <point x="359" y="229"/>
      <point x="408" y="277"/>
      <point x="408" y="339" type="curve" smooth="yes"/>
      <point x="408" y="402"/>
      <point x="359" y="450"/>
      <point x="300" y="450" type="curve" smooth="yes"/>
      <point x="241" y="450"/>
      <point x="192" y="402"/>
      <point x="192" y="339" type="curve" smooth="yes"/>
      <point x="192" y="277"/>
      <point x="241" y="229"/>
    </contour>
  </outline>
</glyph>
<glyph name="ellipsis" format="2">
  <advance width="600"/>
  <unicode hex="2026"/>
  <outline>
    <contour>
      <point x="95" y="-9" type="curve" smooth="yes"/>
      <point x="137" y="-9"/>
      <point x="168" y="25"/>
      <point x="168" y="69" type="curve" smooth="yes"/>
      <point x="168" y="113"/>
      <point x="137" y="148"/>
      <point x="95" y="148" type="curve" smooth="yes"/>
      <point x="54" y="148"/>
      <point x="23" y="113"/>
      <point x="23" y="69" type="curve" smooth="yes"/>
      <point x="23" y="25"/>
      <point x="54" y="-9"/>
    </contour>
    <contour>
      <point x="300" y="-9" type="curve" smooth="yes"/>
      <point x="341" y="-9"/>
      <point x="373" y="25"/>
      <point x="373" y="69" type="curve" smooth="yes"/>
      <point x="373" y="113"/>
      <point x="341" y="148"/>
      <point x="300" y="148" type="curve" smooth="yes"/>
      <point x="259" y="148"/>
      <point x="227" y="113"/>
      <point x="227" y="69" type="curve" smooth="yes"/>
      <point x="227" y="25"/>
      <point x="259" y="-9"/>
    </contour>
    <contour>
      <point x="505" y="-9" type="curve" smooth="yes"/>
      <point x="546" y="-9"/>
      <point x="577" y="25"/>
      <point x="577" y="69" type="curve" smooth="yes"/>
      <point x="577" y="113"/>
      <point x="546" y="148"/>
      <point x="505" y="148" type="curve" smooth="yes"/>
      <point x="463" y="148"/>
      <point x="432" y="113"/>
      <point x="432" y="69" type="curve" smooth="yes"/>
      <point x="432" y="25"/>
      <point x="463" y="-9"/>
    </contour>
  </outline>
</glyph>
<glyph name="perthousand" format="2">
  <advance width="600"/>
  <unicode hex="2030"/>
  <outline>
    <contour>
      <point x="41" y="0" type="line"/>
      <point x="102" y="0" type="line"/>
      <point x="357" y="700" type="line"/>
      <point x="296" y="700" type="line"/>
    </contour>
    <contour>
      <point x="101" y="449" type="curve" smooth="yes"/>
      <point x="154" y="449"/>
      <point x="190" y="500"/>
      <point x="190" y="577" type="curve" smooth="yes"/>
      <point x="190" y="654"/>
      <point x="154" y="705"/>
      <point x="101" y="705" type="curve" smooth="yes"/>
      <point x="48" y="705"/>
      <point x="11" y="654"/>
      <point x="11" y="577" type="curve" smooth="yes"/>
      <point x="11" y="500"/>
      <point x="48" y="449"/>
    </contour>
    <contour>
      <point x="101" y="500" type="curve" smooth="yes"/>
      <point x="78" y="500"/>
      <point x="64" y="528"/>
      <point x="64" y="577" type="curve" smooth="yes"/>
      <point x="64" y="626"/>
      <point x="78" y="654"/>
      <point x="101" y="654" type="curve" smooth="yes"/>
      <point x="123" y="654"/>
      <point x="138" y="626"/>
      <point x="138" y="577" type="curve" smooth="yes"/>
      <point x="138" y="528"/>
      <point x="123" y="500"/>
    </contour>
    <contour>
      <point x="297" y="46" type="curve" smooth="yes"/>
      <point x="275" y="46"/>
      <point x="260" y="74"/>
      <point x="260" y="123" type="curve" smooth="yes"/>
      <point x="260" y="172"/>
      <point x="275" y="200"/>
      <point x="297" y="200" type="curve" smooth="yes"/>
      <point x="319" y="200"/>
      <point x="334" y="172"/>
      <point x="334" y="123" type="curve" smooth="yes"/>
      <point x="334" y="74"/>
      <point x="319" y="46"/>
    </contour>
    <contour>
      <point x="297" y="-5" type="curve" smooth="yes"/>
      <point x="350" y="-5"/>
      <point x="387" y="46"/>
      <point x="387" y="123" type="curve" smooth="yes"/>
      <point x="387" y="200"/>
      <point x="350" y="251"/>
      <point x="297" y="251" type="curve" smooth="yes"/>
      <point x="244" y="251"/>
      <point x="208" y="200"/>
      <point x="208" y="123" type="curve" smooth="yes"/>
      <point x="208" y="46"/>
      <point x="244" y="-5"/>
    </contour>
    <contour>
      <point x="499" y="46" type="curve" smooth="yes"/>
      <point x="477" y="46"/>
      <point x="462" y="74"/>
      <point x="462" y="123" type="curve" smooth="yes"/>
      <point x="462" y="172"/>
      <point x="477" y="200"/>
      <point x="499" y="200" type="curve" smooth="yes"/>
      <point x="521" y="200"/>
      <point x="536" y="172"/>
      <point x="536" y="123" type="curve" smooth="yes"/>
      <point x="536" y="74"/>
      <point x="521" y="46"/>
    </contour>
    <contour>
      <point x="499" y="-5" type="curve" smooth="yes"/>
      <point x="552" y="-5"/>
      <point x="589" y="46"/>
      <point x="589" y="123" type="curve" smooth="yes"/>
      <point x="589" y="200"/>
      <point x="552" y="251"/>
      <point x="499" y="251" type="curve" smooth="yes"/>
      <point x="446" y="251"/>
      <point x="410" y="200"/>
      <point x="410" y="123" type="curve" smooth="yes"/>
      <point x="410" y="46"/>
      <point x="446" y="-5"/>
    </contour>
  </outline>
</glyph>
<glyph name="guilsinglleft" format="2">
  <advance width="600"/>
  <unicode hex="2039"/>
  <outline>
    <contour>
      <point x="351" y="0" type="line"/>
      <point x="467" y="0" type="line"/>
      <point x="246" y="252" type="line"/>
      <point x="467" y="501" type="line"/>
      <point x="354" y="501" type="line"/>
      <point x="126" y="251" type="line"/>
    </contour>
  </outline>
</glyph>
<glyph name="fraction" format="2">
  <advance width="600"/>
  <unicode hex="2044"/>
  <outline>
    <contour>
      <point x="53" y="0" type="line"/>
      <point x="126" y="0" type="line"/>
      <point x="513" y="700" type="line"/>
      <point x="440" y="700" type="line"/>
    </contour>
  </outline>
</glyph>
<glyph name="uni2079" format="2">
  <advance width="600"/>
  <unicode hex="2079"/>
  <outline>
    <contour>
      <point x="288" y="705" type="curve" smooth="yes"/>
      <point x="213" y="705"/>
      <point x="158" y="656"/>
      <point x="158" y="590" type="curve" smooth="yes"/>
      <point x="158" y="528"/>
      <point x="206" y="486"/>
      <point x="275" y="486" type="curve" smooth="yes"/>
      <point x="313" y="486"/>
      <point x="349" y="503"/>
      <point x="371" y="530" type="curve"/>
      <point x="371" y="452"/>
      <point x="337" y="406"/>
      <point x="276" y="406" type="curve" smooth="yes"/>
      <point x="254" y="406"/>
      <point x="228" y="415"/>
      <point x="204" y="430" type="curve"/>
      <point x="171" y="374" type="line"/>
      <point x="201" y="354"/>
      <point x="235" y="344"/>
      <point x="270" y="344" type="curve" smooth="yes"/>
      <point x="373" y="344"/>
      <point x="441" y="419"/>
      <point x="441" y="531" type="curve" smooth="yes"/>
      <point x="441" y="636"/>
      <point x="380" y="705"/>
    </contour>
    <contour>
      <point x="292" y="538" type="curve" smooth="yes"/>
      <point x="254" y="538"/>
      <point x="228" y="560"/>
      <point x="228" y="591" type="curve" smooth="yes"/>
      <point x="228" y="622"/>
      <point x="254" y="645"/>
      <point x="289" y="645" type="curve" smooth="yes"/>
      <point x="327" y="645"/>
      <point x="357" y="617"/>
      <point x="367" y="572" type="curve"/>
      <point x="347" y="550"/>
      <point x="321" y="538"/>
    </contour>
  </outline>
</glyph>
<glyph name="uni2080" format="2">
  <advance width="600"/>
  <unicode hex="2080"/>
  <outline>
    <contour>
      <point x="300" y="-5" type="curve" smooth="yes"/>
      <point x="390" y="-5"/>
      <point x="451" y="67"/>
      <point x="451" y="175" type="curve" smooth="yes"/>
      <point x="451" y="283"/>
      <point x="390" y="355"/>
      <point x="300" y="355" type="curve" smooth="yes"/>
      <point x="210" y="355"/>
      <point x="149" y="283"/>
      <point x="149" y="175" type="curve" smooth="yes"/>
      <point x="149" y="67"/>
      <point x="210" y="-5"/>
    </contour>
    <contour>
      <point x="300" y="57" type="curve" smooth="yes"/>
      <point x="250" y="57"/>
      <point x="218" y="101"/>
      <point x="218" y="175" type="curve" smooth="yes"/>
      <point x="218" y="249"/>
      <point x="250" y="293"/>
      <point x="300" y="293" type="curve" smooth="yes"/>
      <point x="350" y="293"/>
      <point x="382" y="249"/>
      <point x="382" y="175" type="curve" smooth="yes"/>
      <point x="382" y="101"/>
      <point x="350" y="57"/>
    </contour>
  </outline>
</glyph>
<glyph name="uni2081" format="2">
  <advance width="600"/>
  <unicode hex="2081"/>
  <outline>
    <contour>
      <point x="281" y="0" type="line"/>
      <point x="352" y="0" type="line"/>
      <point x="352" y="350" type="line"/>
      <point x="308" y="350" type="line"/>
      <point x="197" y="310" type="line"/>
      <point x="197" y="249" type="line"/>
      <point x="281" y="278" type="line"/>
    </contour>
  </outline>
</glyph>
<glyph name="uni2082" format="2">
  <advance width="600"/>
  <unicode hex="2082"/>
  <outline>
    <contour>
      <point x="159" y="0" type="line"/>
      <point x="409" y="0" type="line"/>
      <point x="409" y="59" type="line"/>
      <point x="250" y="59" type="line"/>
      <point x="350" y="152" type="line" smooth="yes"/>
      <point x="389" y="189"/>
      <point x="405" y="216"/>
      <point x="405" y="252" type="curve" smooth="yes"/>
      <point x="405" y="311"/>
      <point x="355" y="355"/>
      <point x="280" y="355" type="curve" smooth="yes"/>
      <point x="232" y="355"/>
      <point x="187" y="335"/>
      <point x="147" y="298" type="curve"/>
      <point x="187" y="251" type="line"/>
      <point x="224" y="286"/>
      <point x="250" y="294"/>
      <point x="278" y="294" type="curve" smooth="yes"/>
      <point x="312" y="294"/>
      <point x="336" y="273"/>
      <point x="336" y="246" type="curve" smooth="yes"/>
      <point x="336" y="226"/>
      <point x="327" y="209"/>
      <point x="302" y="186" type="curve" smooth="yes"/>
      <point x="159" y="52" type="line"/>
    </contour>
  </outline>
</glyph>
<glyph name="uni2083" format="2">
  <advance width="600"/>
  <unicode hex="2083"/>
  <outline>
    <contour>
      <point x="276" y="-5" type="curve" smooth="yes"/>
      <point x="357" y="-5"/>
      <point x="415" y="38"/>
      <point x="415" y="98" type="curve" smooth="yes"/>
      <point x="415" y="138"/>
      <point x="384" y="168"/>
      <point x="337" y="178" type="curve"/>
      <point x="379" y="190"/>
      <point x="405" y="220"/>
      <point x="405" y="256" type="curve" smooth="yes"/>
      <point x="405" y="314"/>
      <point x="352" y="355"/>
      <point x="277" y="355" type="curve" smooth="yes"/>
      <point x="229" y="355"/>
      <point x="179" y="336"/>
      <point x="144" y="303" type="curve"/>
      <point x="187" y="256" type="line"/>
      <point x="219" y="283"/>
      <point x="244" y="293"/>
      <point x="275" y="293" type="curve" smooth="yes"/>
      <point x="309" y="293"/>
      <point x="334" y="274"/>
      <point x="334" y="248" type="curve" smooth="yes"/>
      <point x="334" y="220"/>
      <point x="310" y="201"/>
      <point x="274" y="201" type="curve" smooth="yes"/>
      <point x="245" y="201" type="line"/>
      <point x="245" y="145" type="line"/>
      <point x="282" y="145" type="line" smooth="yes"/>
      <point x="320" y="145"/>
      <point x="344" y="129"/>
      <point x="344" y="102" type="curve" smooth="yes"/>
      <point x="344" y="74"/>
      <point x="316" y="56"/>
      <point x="275" y="56" type="curve" smooth="yes"/>
      <point x="242" y="56"/>
      <point x="214" y="67"/>
      <point x="181" y="93" type="curve"/>
      <point x="140" y="43" type="line"/>
      <point x="176" y="12"/>
      <point x="224" y="-5"/>
    </contour>
  </outline>
</glyph>
<glyph name="uni2084" format="2">
  <advance width="600"/>
  <unicode hex="2084"/>
  <outline>
    <contour>
      <point x="333" y="0" type="line"/>
      <point x="403" y="0" type="line"/>
      <point x="403" y="81" type="line"/>
      <point x="445" y="81" type="line"/>
      <point x="445" y="138" type="line"/>
      <point x="403" y="138" type="line"/>
      <point x="403" y="350" type="line"/>
      <point x="322" y="350" type="line"/>
      <point x="141" y="139" type="line"/>
      <point x="141" y="81" type="line"/>
      <point x="333" y="81" type="line"/>
    </contour>
    <contour>
      <point x="213" y="138" type="line"/>
      <point x="333" y="277" type="line"/>
      <point x="333" y="138" type="line"/>
    </contour>
  </outline>
</glyph>
<glyph name="uni2085" format="2">
  <advance width="600"/>
  <unicode hex="2085"/>
  <outline>
    <contour>
      <point x="286" y="-5" type="curve" smooth="yes"/>
      <point x="372" y="-5"/>
      <point x="429" y="42"/>
      <point x="429" y="112" type="curve" smooth="yes"/>
      <point x="429" y="176"/>
      <point x="380" y="220"/>
      <point x="302" y="220" type="curve" smooth="yes"/>
      <point x="280" y="220"/>
      <point x="258" y="215"/>
      <point x="237" y="205" type="curve"/>
      <point x="241" y="292" type="line"/>
      <point x="410" y="292" type="line"/>
      <point x="410" y="350" type="line"/>
      <point x="183" y="350" type="line"/>
      <point x="175" y="166" type="line"/>
      <point x="222" y="152" type="line"/>
      <point x="245" y="162"/>
      <point x="265" y="167"/>
      <point x="288" y="167" type="curve" smooth="yes"/>
      <point x="329" y="167"/>
      <point x="356" y="144"/>
      <point x="356" y="111" type="curve" smooth="yes"/>
      <point x="356" y="77"/>
      <point x="327" y="53"/>
      <point x="285" y="53" type="curve" smooth="yes"/>
      <point x="257" y="53"/>
      <point x="230" y="62"/>
      <point x="194" y="85" type="curve"/>
      <point x="160" y="32" type="line"/>
      <point x="200" y="6"/>
      <point x="239" y="-5"/>
    </contour>
  </outline>
</glyph>
<glyph name="uni2086" format="2">
  <advance width="600"/>
  <unicode hex="2086"/>
  <outline>
    <contour>
      <point x="312" y="-5" type="curve" smooth="yes"/>
      <point x="387" y="-5"/>
      <point x="442" y="44"/>
      <point x="442" y="110" type="curve" smooth="yes"/>
      <point x="442" y="172"/>
      <point x="394" y="214"/>
      <point x="325" y="214" type="curve" smooth="yes"/>
      <point x="287" y="214"/>
      <point x="251" y="197"/>
      <point x="229" y="170" type="curve"/>
      <point x="229" y="248"/>
      <point x="263" y="294"/>
      <point x="324" y="294" type="curve" smooth="yes"/>
      <point x="346" y="294"/>
      <point x="372" y="285"/>
      <point x="396" y="270" type="curve"/>
      <point x="429" y="326" type="line"/>
      <point x="399" y="346"/>
      <point x="365" y="356"/>
      <point x="330" y="356" type="curve" smooth="yes"/>
      <point x="227" y="356"/>
      <point x="159" y="281"/>
      <point x="159" y="169" type="curve" smooth="yes"/>
      <point x="159" y="64"/>
      <point x="220" y="-5"/>
    </contour>
    <contour>
      <point x="308" y="162" type="curve" smooth="yes"/>
      <point x="346" y="162"/>
      <point x="372" y="140"/>
      <point x="372" y="109" type="curve" smooth="yes"/>
      <point x="372" y="78"/>
      <point x="346" y="55"/>
      <point x="311" y="55" type="curve" smooth="yes"/>
      <point x="273" y="55"/>
      <point x="243" y="83"/>
      <point x="233" y="128" type="curve"/>
      <point x="253" y="150"/>
      <point x="279" y="162"/>
    </contour>
  </outline>
</glyph>
<glyph name="uni2087" format="2">
  <advance width="600"/>
  <unicode hex="2087"/>
  <outline>
    <contour>
      <point x="197" y="0" type="line"/>
      <point x="281" y="0" type="line"/>
      <point x="432" y="297" type="line"/>
      <point x="432" y="350" type="line"/>
      <point x="156" y="350" type="line"/>
      <point x="156" y="290" type="line"/>
      <point x="354" y="290" type="line"/>
    </contour>
  </outline>
</glyph>
